<svg width="109" height="108" viewBox="0 0 109 108" fill="none" xmlns="http://www.w3.org/2000/svg">
<rect x="2" y="1.5" width="105" height="105" rx="52.5" stroke="#114084" stroke-width="3"/>
<g clip-path="url(#clip0_5001_1889)">
<path d="M78.7564 38.5503C78.5049 37.9433 77.9179 37.551 77.2608 37.551H75.9621C73.9543 37.551 71.928 37.4085 69.9397 37.1276C69.5399 37.071 69.1686 37.3499 69.112 37.7505C69.0554 38.151 69.3342 38.5216 69.7348 38.5781C71.7908 38.8686 73.8859 39.0158 75.962 39.0158H77.2607C77.2862 39.0158 77.3637 39.0158 77.4029 39.1108C77.4423 39.2059 77.3876 39.2605 77.3695 39.2785L76.3424 40.3057C75.7362 40.9118 74.9302 41.2458 74.0729 41.2458H73.1307C71.882 41.2458 70.7081 41.732 69.8252 42.6149C69.2191 43.2212 68.413 43.555 67.5557 43.555H65.6385C65.0104 43.555 64.3811 43.6845 63.8027 43.9309C63.7107 43.8808 63.6166 43.831 63.5161 43.7836C62.7933 43.4426 61.959 43.3185 61.1686 43.4339C60.478 43.5348 59.8163 43.8491 59.3054 44.319C58.7284 44.8496 58.4027 45.5325 58.3881 46.242C58.387 46.2958 58.389 46.3494 58.3914 46.403H56.6308V39.1224C56.6363 39.1179 56.6421 39.114 56.6476 39.1093C58.725 37.3324 61.5394 36.7036 64.1765 37.4275C65.0377 37.664 65.9175 37.8771 66.7915 38.0611C67.1862 38.1441 67.5758 37.8912 67.6591 37.4953C67.7425 37.0995 67.4892 36.711 67.0933 36.6277C66.2481 36.4498 65.3971 36.2437 64.5643 36.015C61.8381 35.2667 58.951 35.7459 56.6309 37.2895V35.8432C57.7509 35.1241 58.4294 33.8967 58.4294 32.5399C58.4294 30.3729 56.6667 28.6099 54.5002 28.6099C52.3337 28.6099 50.571 30.3729 50.571 32.54C50.571 33.8911 51.2456 35.116 52.3593 35.8362V37.2836C50.041 35.7488 47.1434 35.272 44.4361 36.015C40.7233 37.0343 36.8885 37.5511 33.0383 37.5511H31.7397C31.0825 37.5511 30.4956 37.9434 30.2441 38.5504C29.9927 39.1574 30.1305 39.8499 30.595 40.3145L31.6222 41.3415C32.5051 42.2244 33.679 42.7106 34.9276 42.7106H35.8698C36.7272 42.7106 37.5332 43.0445 38.1394 43.6507C39.0223 44.5336 40.1962 45.0198 41.4448 45.0198H42.1835C41.7493 45.2896 41.3797 45.5979 41.0625 45.9547C40.1436 46.9888 39.6624 48.1973 39.6712 49.4497C39.6814 50.8533 40.3171 52.2441 41.3719 53.1702C42.2787 53.9664 43.3967 54.3745 44.4642 54.7242C44.5399 54.749 44.6168 54.7608 44.6923 54.7608C45.0004 54.7608 45.2871 54.5649 45.3882 54.2562C45.5142 53.8719 45.3047 53.4582 44.9202 53.3322C43.9971 53.0298 43.0372 52.6832 42.3384 52.0695C41.5927 51.4147 41.1433 50.4315 41.136 49.4393C41.1299 48.5552 41.483 47.6867 42.1574 46.9278C42.455 46.5931 42.8274 46.3133 43.2958 46.0723C43.6292 45.9008 43.9799 45.7727 44.3512 45.637C44.5535 45.5631 44.7629 45.4866 44.9762 45.4005C45.7924 45.0709 46.7453 44.7553 47.6223 44.9115C48.2977 45.0319 49.0322 45.5847 49.0415 46.2675C49.0471 46.6805 48.7737 47.1215 48.3614 47.3649C47.9499 47.6078 47.3893 47.6824 46.8225 47.5696C46.6146 47.5282 46.3957 47.4631 46.164 47.3941C45.5169 47.2016 44.7834 46.9832 44.0016 47.2153C43.2889 47.427 42.7355 48.0228 42.5211 48.809C42.3068 49.5952 42.4814 50.3895 42.9881 50.9335C43.4548 51.4346 44.0927 51.6591 44.5585 51.823C47.0747 52.7089 49.6383 53.5635 52.187 54.3673C51.5912 54.5751 50.9784 54.8129 50.3934 55.1238C49.544 54.8425 48.6943 54.5624 47.8439 54.284C47.4593 54.1581 47.0458 54.3678 46.9198 54.7521C46.794 55.1364 47.0035 55.5502 47.388 55.6761C47.8949 55.8421 48.4013 56.0098 48.9079 56.1768C47.5745 57.4474 46.9222 59.2613 47.0639 61.3435C47.1964 63.2901 48.3319 65.0328 50.3477 66.3841C49.916 66.7228 49.5052 67.0954 49.1311 67.5146C47.953 68.8348 47.354 70.4495 47.4877 71.9448C47.6519 73.7799 48.9738 75.3347 50.6311 75.6419C50.6756 75.6501 50.7202 75.6541 50.7646 75.6541C50.9669 75.6541 51.1627 75.5701 51.3026 75.4186C51.4733 75.2337 51.5372 74.9743 51.4718 74.7313C51.1183 73.4171 50.8367 72.1513 51.2685 71.1092C51.4895 70.5758 51.8866 70.1349 52.3594 69.7591V76.4739C52.3594 77.6517 53.3175 78.6098 54.4952 78.6098C55.673 78.6098 56.6311 77.6517 56.6311 76.4739V69.8757C57.1014 70.2845 57.4275 70.7111 57.6174 71.1662C58.0966 72.3151 57.7308 73.7379 57.414 74.7081C57.3353 74.9491 57.3869 75.2138 57.5503 75.4076C57.6906 75.574 57.8961 75.6679 58.1101 75.6679C58.1454 75.6679 58.1812 75.6653 58.2167 75.6601C59.9542 75.4047 61.3403 73.7591 61.4411 71.8321C61.5209 70.3019 60.828 68.6644 59.5398 67.3396C59.2104 67.0008 58.8447 66.6785 58.4237 66.3561C59.4267 65.6626 60.3153 64.8324 60.9599 63.7402C61.2064 63.3223 61.4053 62.8705 61.5513 62.3976C62.077 60.6924 61.8673 58.8315 60.9905 57.4199C60.7167 56.9789 60.3862 56.5785 59.994 56.2097L64.4332 54.7468C65.3285 54.4517 66.3435 54.1173 67.1991 53.4753C68.7216 52.3331 69.4977 50.3109 69.1302 48.4434C68.9398 47.4761 68.4324 46.5455 67.7013 45.823C67.3823 45.5079 67.0287 45.2383 66.651 45.0196H67.5558C68.8044 45.0196 69.9783 44.5334 70.8612 43.6505C71.4674 43.0443 72.2734 42.7104 73.1308 42.7104H74.073C75.3216 42.7104 76.4955 42.2242 77.3784 41.3413L78.4056 40.3143C78.87 39.8498 79.0078 39.1573 78.7564 38.5503ZM58.9277 47.868C59.2206 48.2661 59.6185 48.6007 60.0911 48.8207C60.9314 49.2117 61.9592 49.2506 62.9856 48.9302C63.1266 48.8861 63.2621 48.8376 63.3932 48.7906C63.726 48.6714 64.0418 48.5591 64.299 48.5787C64.6069 48.6025 64.9131 48.8652 64.996 49.177C65.0818 49.4994 64.9488 49.8948 64.6798 50.117C64.4533 50.3041 64.1057 50.4191 63.7696 50.5303L56.631 52.8921V47.8679H58.9277V47.868ZM52.0358 32.54C52.0358 31.1807 53.1413 30.0747 54.5002 30.0747C55.8591 30.0747 56.9646 31.1807 56.9646 32.54C56.9646 33.491 56.4331 34.3407 55.5776 34.7576C55.3258 34.8804 55.166 35.1359 55.166 35.416V53.3768L53.7895 53.8322C53.8118 53.762 53.824 53.6874 53.824 53.6099V35.4107C53.824 35.1316 53.6653 34.8768 53.4149 34.7535C52.5643 34.3351 52.0358 33.4869 52.0358 32.54ZM47.8792 43.4694C46.8488 43.2858 45.8489 43.5203 44.962 43.838C44.4484 43.6505 43.9112 43.555 43.3618 43.555H41.4446C40.5873 43.555 39.7813 43.2211 39.1751 42.6149C38.2922 41.732 37.1184 41.2458 35.8696 41.2458H34.9274C34.0701 41.2458 33.2641 40.9119 32.6579 40.3057L31.6308 39.2785C31.6127 39.2605 31.558 39.2058 31.5974 39.1108C31.6366 39.0158 31.7141 39.0158 31.7396 39.0158H33.0383C37.0195 39.0158 40.9847 38.4814 44.8238 37.4275C47.3737 36.7277 50.1233 37.3021 52.1788 38.9646C52.2349 39.01 52.2957 39.0453 52.3592 39.0716V46.403H50.5023C50.5051 46.3513 50.5067 46.2995 50.5061 46.2478C50.4858 44.7437 49.1375 43.6938 47.8792 43.4694ZM44.0598 49.9351C43.873 49.7345 43.8725 49.4209 43.9342 49.1943C43.996 48.9677 44.1557 48.6978 44.4184 48.6197C44.7826 48.5115 45.2291 48.6443 45.7462 48.7982C45.9997 48.8737 46.2617 48.9517 46.5363 49.0063C47.465 49.1914 48.3776 49.0564 49.106 48.6265C49.4401 48.4292 49.7266 48.1679 49.9524 47.868H52.3593V52.8857C49.9145 52.1115 47.4576 51.2908 45.0448 50.4415C44.6867 50.3153 44.281 50.1725 44.0598 49.9351ZM54.495 77.145C54.125 77.145 53.824 76.844 53.824 76.474V68.843C53.8339 68.8378 53.844 68.8324 53.8538 68.8272C54.2652 68.6127 54.6989 68.3986 55.1183 68.1916C55.1342 68.1837 55.1501 68.1759 55.166 68.168V76.474C55.166 76.844 54.865 77.145 54.495 77.145ZM58.4897 68.361C59.4943 69.3942 60.0369 70.6316 59.9781 71.7559C59.9431 72.4289 59.6502 73.0702 59.2193 73.531C59.3707 72.6031 59.3732 71.5714 58.969 70.6024C58.5686 69.6422 57.8024 68.8093 56.6309 68.058V67.4267C56.7798 67.3478 56.9278 67.2675 57.0749 67.1858C57.6434 67.5813 58.1 67.9604 58.4897 68.361ZM59.7461 58.193C60.4025 59.2498 60.5539 60.6604 60.1514 61.9662C60.0392 62.3301 59.8866 62.6766 59.6982 62.9962C58.6148 64.8321 56.5076 65.8723 54.4699 66.8781C54.0434 67.0887 53.6024 67.3063 53.1765 67.5284C51.9086 68.1896 50.5295 69.0655 49.915 70.5487C49.5212 71.4994 49.5276 72.5034 49.6913 73.5021C49.2838 73.0609 49.0042 72.4601 48.9465 71.8145C48.8487 70.721 49.3143 69.5093 50.2237 68.49C51.1116 67.4951 52.2987 66.7691 53.4494 66.1328C53.697 65.9959 53.9463 65.8611 54.1956 65.7264C55.2038 65.1813 56.2464 64.618 57.1959 63.8981C57.7384 63.4869 58.4107 62.9082 58.7984 62.0775C59.4291 60.7261 59.0688 59.0222 57.9415 58.0264C57.5736 57.7014 57.1509 57.4682 56.7312 57.2852L58.3432 56.7539C58.9477 57.1771 59.4076 57.648 59.7461 58.193ZM56.6309 58.8762C56.7525 58.9509 56.8676 59.0321 56.9715 59.124C57.6023 59.6813 57.8216 60.7065 57.4708 61.4581C57.3119 61.7986 57.0472 62.1207 56.6308 62.4746V58.8762H56.6309ZM54.4954 58.0219C54.5413 58.0499 54.5906 58.0738 54.6439 58.0917C54.818 58.1503 54.9921 58.209 55.1661 58.2679V63.5001C54.7336 63.7626 54.2856 64.0113 53.8241 64.2617V58.2432C53.8469 58.2356 53.8697 58.2281 53.8923 58.2207L54.4954 58.0219ZM52.3592 62.664C52.0951 62.4864 51.8524 62.2931 51.6651 62.0669C51.0381 61.3101 51.081 60.0202 51.7567 59.3065C51.9276 59.1261 52.1336 58.9749 52.3593 58.8439L52.3592 62.664ZM67.6929 48.7264C67.9501 50.0333 67.3856 51.5044 66.3199 52.3037C65.6565 52.8015 64.8015 53.0832 63.9745 53.3557L53.4336 56.8293C52.5602 57.1172 51.4731 57.4754 50.693 58.2991C49.5013 59.5574 49.4314 61.6668 50.5369 63.0012C51.0495 63.6201 51.7249 64.0111 52.3208 64.3562C52.3333 64.3634 52.3463 64.3693 52.3591 64.3758V65.0646C52.1248 65.1979 51.8902 65.3359 51.6569 65.4798C51.4883 65.3789 51.3297 65.2788 51.1763 65.1763C49.5192 64.0695 48.6273 62.7465 48.5249 61.2437C48.4037 59.4614 49.0025 57.9474 50.211 56.9804C51.1093 56.2616 52.2766 55.8754 53.4055 55.502L64.2296 51.9208C64.6504 51.7815 65.1741 51.6082 65.6125 51.2462C66.3233 50.6591 66.6444 49.6761 66.4115 48.8002C66.1674 47.8818 65.345 47.1901 64.4117 47.118C63.8409 47.0738 63.3403 47.2532 62.8988 47.4113C62.7765 47.4552 62.6609 47.4966 62.5489 47.5315C61.8714 47.743 61.2181 47.7291 60.7092 47.4924C60.2031 47.2568 59.843 46.7436 59.8526 46.272C59.8643 45.7098 60.4516 45.0188 61.3803 44.8832C61.889 44.8089 62.4259 44.8888 62.8913 45.1083C63.0085 45.1636 63.1292 45.231 63.257 45.3023C63.4638 45.4178 63.6982 45.5486 63.9593 45.6479C64.2275 45.7497 64.4973 45.8079 64.7352 45.8592C64.852 45.8844 64.9623 45.9082 65.067 45.9354C65.657 46.0894 66.2119 46.4107 66.6716 46.8649C67.196 47.3834 67.5587 48.0443 67.6929 48.7264Z" fill="#114084"/>
</g>
<defs>
<clipPath id="clip0_5001_1889">
<rect width="50" height="50" fill="white" transform="translate(29.5 28.6099)"/>
</clipPath>
</defs>
</svg>
