<svg width="109" height="108" viewBox="0 0 109 108" fill="none" xmlns="http://www.w3.org/2000/svg">
<rect x="2" y="1.5" width="105" height="105" rx="52.5" stroke="#114084" stroke-width="3"/>
<g clip-path="url(#clip0_3006_32)">
<path d="M34.3924 76.2087C34.5262 76.2888 34.6863 76.3126 34.8376 76.2746C34.9889 76.2367 35.1189 76.1403 35.1991 76.0065L41.4621 65.5552C41.4837 65.519 41.5015 65.4806 41.515 65.4406L42.3587 62.9362C42.5894 62.4264 43.4165 61.6274 43.9871 61.1496C43.9871 61.1496 54.0675 61.3475 54.0952 61.353C54.9379 62.2206 55.8546 63.5568 56.8238 65.329L54.0344 69.6131C53.8117 69.9547 53.7228 70.3664 53.785 70.7694C53.8471 71.1724 54.0558 71.5383 54.371 71.7969L56.3857 73.4531C56.5624 73.5982 56.7671 73.7052 56.9871 73.7674C57.207 73.8296 57.4375 73.8455 57.6639 73.8143C57.8904 73.7831 58.1079 73.7053 58.3028 73.5859C58.4978 73.4666 58.6659 73.3081 58.7966 73.1206L59.7766 71.7147C60.7252 74.0721 61.3281 75.8709 61.3354 75.8905C61.359 75.9649 61.3971 76.0339 61.4475 76.0934C61.498 76.1529 61.5598 76.2018 61.6293 76.2372C61.6989 76.2726 61.7748 76.2939 61.8526 76.2997C61.9304 76.3055 62.0086 76.2957 62.0826 76.271C62.1567 76.2463 62.225 76.2071 62.2837 76.1557C62.3424 76.1043 62.3904 76.0417 62.4247 75.9716C62.459 75.9015 62.479 75.8253 62.4835 75.7474C62.4881 75.6695 62.4771 75.5914 62.4512 75.5178C62.444 75.4961 61.709 73.3019 60.5827 70.5736C60.5815 70.5708 60.5796 70.5684 60.5784 70.5655L68.2879 59.5055C68.6492 58.9855 68.9001 58.397 69.0252 57.7764C70.6831 57.6261 71.7994 56.5183 72.1115 54.6847C72.2252 54.0081 72.0897 53.3132 71.7302 52.7289C71.6205 52.5505 71.5016 52.3779 71.3741 52.2118L71.9843 51.3969C72.2444 51.5111 72.5297 51.5558 72.8123 51.5267C73.0949 51.4975 73.3651 51.3956 73.5965 51.2308C74.1701 50.8344 74.595 50.2579 74.804 49.5927C74.9104 49.2381 74.9204 48.8615 74.8327 48.5018C74.745 48.142 74.563 47.8122 74.3053 47.5464C73.6716 46.8875 72.4793 45.7062 71.4424 45.0034C71.185 44.5378 70.2747 42.9239 69.4172 41.8015C69.1833 41.4964 68.8716 41.2598 68.5148 41.1165C68.158 40.9733 67.7692 40.9287 67.3893 40.9874C66.4534 41.1306 63.9437 41.6658 63.9437 41.6658C63.5381 41.7768 63.3599 42.3478 63.6688 42.643C64.4503 43.4543 64.4321 45.6049 64.3409 46.6127C62.8489 47.8912 61.4406 49.2642 60.1246 50.7233C59.5846 51.3309 58.8599 52.3262 57.9693 53.6828C57.9256 53.7474 57.8952 53.82 57.8799 53.8964C57.8645 53.9727 57.8645 54.0514 57.8798 54.1278C57.8951 54.2042 57.9254 54.2769 57.969 54.3414C58.0126 54.406 58.0686 54.4613 58.1337 54.5041C58.1989 54.5468 58.2719 54.5762 58.3485 54.5906C58.4251 54.6049 58.5037 54.6038 58.5799 54.5875C58.6561 54.5711 58.7283 54.5398 58.7923 54.4954C58.8563 54.4509 58.9108 54.3941 58.9527 54.3284C59.8116 53.0196 60.5019 52.0697 61.0041 51.5049C62.3234 50.0461 63.7361 48.6746 65.2332 47.399L67.1069 46.3893L68.2687 47.403C68.2779 48.0692 68.4451 48.7238 68.7563 49.313C68.8948 49.5696 69.1054 49.78 69.3621 49.9183L68.9588 50.4687C68.5595 50.334 68.1447 50.2505 67.7244 50.2205C67.1984 50.1839 66.6773 50.3415 66.2597 50.6634C65.8291 51.0071 65.4337 51.3928 65.0794 51.8147C64.7958 52.1307 64.59 52.5085 64.4783 52.9182C64.3666 53.3278 64.3523 53.7578 64.4363 54.174C64.2028 54.3459 63.9861 54.5395 63.7893 54.7524C61.5099 55.0387 58.4646 55.3575 56.5334 55.3102C56.3333 55.3061 56.1391 55.242 55.976 55.1261C55.8128 55.0103 55.6883 54.848 55.6185 54.6605C55.4523 54.2119 55.3388 53.7455 55.2803 53.2708C55.2634 52.833 55.0521 48.9874 52.8068 47.5919C52.5129 47.4088 52.1855 47.2859 51.8437 47.2305C51.5019 47.1751 51.1524 47.1883 50.8157 47.2693C50.479 47.3502 50.1618 47.4974 49.8826 47.7021C49.6033 47.9069 49.3676 48.1652 49.1891 48.4619C48.3857 49.8002 48.3122 51.9003 48.9699 54.704C49.0203 55.0233 49.5421 58.0455 51.4722 59.9405C48.9963 59.7885 46.5132 59.7928 44.0378 59.9533C43.8621 59.739 43.7188 59.5001 43.6125 59.2443C43.5036 58.9634 43.4807 58.6564 43.5467 58.3624C43.6128 58.0683 43.7648 57.8006 43.9834 57.5933C43.9834 57.5933 44.8638 56.7981 45.1112 56.1984C45.684 54.8103 47.1585 51.2342 48.4369 47.9987C49.4349 45.4734 51.3574 44.7512 52.5624 44.5534C53.8482 46.5742 55.6446 46.8194 56.5688 46.8843C57.3694 46.9403 58.1312 46.6764 58.7944 46.3087C58.4396 47.7596 57.5579 48.8661 56.9237 49.5069C56.7427 48.9198 56.5166 48.3475 56.2472 47.7953C56.18 47.6545 56.0597 47.5461 55.9126 47.4941C55.7655 47.442 55.6038 47.4505 55.4629 47.5177C55.3221 47.5849 55.2138 47.7052 55.1617 47.8523C55.1096 47.9994 55.1181 48.1611 55.1853 48.3019C55.6438 49.2627 55.9084 50.0612 55.9719 50.675C55.9932 50.8833 56.2841 51.3571 56.8984 51.094C57.0429 51.0321 60.0272 48.8265 60.1265 45.1993C60.445 44.8129 60.6988 44.3775 60.8779 43.9099C61.4647 43.8862 62.2513 43.7187 62.73 43.0617C63.1953 42.4234 63.3035 41.3283 63.3128 40.5278C63.3657 40.525 63.4178 40.523 63.4709 40.5199C63.6139 40.5117 63.7491 40.4516 63.851 40.3508C63.9528 40.25 64.0144 40.1155 64.0241 39.9725C64.0288 39.594 63.9527 39.2187 63.8008 38.8719C63.649 38.5251 63.4249 38.2147 63.1435 37.9614C63.2368 37.1422 63.3179 35.0905 62.1243 33.3796C61.224 32.0893 59.8093 31.2833 57.9291 30.9853C57.8319 30.9683 55.5212 30.5844 53.5934 32.0467C52.2996 33.0269 51.5072 34.5775 51.2349 36.659C50.6155 36.9544 50.0937 37.4209 49.7309 38.0033C49.6937 38.1092 49.6811 38.2223 49.6943 38.3338C49.7074 38.4453 49.7458 38.5524 49.8066 38.6468C49.8674 38.7412 49.9489 38.8205 50.045 38.8786C50.1411 38.9367 50.2492 38.9721 50.361 38.9821C50.1918 39.8049 50.0963 40.7868 50.3828 41.4584C50.6982 42.1997 51.4184 42.5417 51.98 42.6987C52.0033 42.9498 52.0471 43.1985 52.1107 43.4425C50.7709 43.7243 48.5016 44.6337 47.3429 47.5661C46.0677 50.7936 44.6396 54.3817 44.0244 55.7483C43.8269 56.1869 43.1715 56.7419 43.1715 56.7419C42.7795 57.1099 42.5078 57.5877 42.3918 58.1127C42.2759 58.6377 42.3213 59.1855 42.5219 59.6843C42.637 59.966 42.7847 60.2332 42.9621 60.4805C42.4228 60.9568 41.5743 61.7808 41.2693 62.4919C41.2631 62.5067 41.2575 62.5214 41.2525 62.5361L40.4207 65.005L34.1907 75.4018C34.1105 75.5355 34.0867 75.6957 34.1245 75.847C34.1623 75.9983 34.2586 76.1284 34.3924 76.2087ZM53.2749 43.2319C53.5878 43.3087 53.9727 43.3911 54.4219 43.4644C54.3979 43.8371 54.3691 44.3572 54.3544 44.8999C53.8387 44.4619 53.4632 43.8818 53.2749 43.2319ZM55.5204 45.5455C55.5218 44.8619 55.5596 44.1177 55.591 43.6127C56.0625 43.6559 56.5763 43.6834 57.1259 43.6855C57.0953 44.2149 57.0604 44.9833 57.0657 45.6677C56.5481 45.6722 56.031 45.6313 55.5204 45.5455ZM58.2435 45.2652C58.2512 44.6784 58.2819 44.0671 58.3068 43.6497C58.7774 43.6203 59.2659 43.5712 59.7725 43.4968C59.4834 44.2458 58.9429 44.8709 58.2435 45.2652ZM61.7787 42.3681C61.6216 42.5491 61.403 42.6656 61.1652 42.695C61.2057 42.3706 61.2424 42.0489 61.2724 41.7383C61.2798 41.6614 61.272 41.5838 61.2494 41.5099C61.2269 41.436 61.19 41.3673 61.1408 41.3077C61.0917 41.2481 61.0313 41.1987 60.9632 41.1624C60.895 41.1261 60.8203 41.1036 60.7434 41.0962C60.6665 41.0888 60.5889 41.0966 60.515 41.1191C60.4411 41.1417 60.3724 41.1786 60.3128 41.2277C60.2532 41.2768 60.2038 41.3372 60.1675 41.4054C60.1313 41.4736 60.1088 41.5483 60.1013 41.6252C60.0812 41.8336 60.0572 42.0477 60.0324 42.2639C57.7366 42.67 55.3799 42.5706 53.1265 41.9725C53.1125 41.1637 53.1377 40.3577 53.1671 39.7436C55.803 40.3089 58.4919 40.5909 61.1878 40.5849C61.4979 40.5849 61.8143 40.5805 62.1343 40.5728C62.1172 41.394 61.9849 42.0867 61.779 42.3683L61.7787 42.3681ZM51.9396 37.638C52.0531 37.6058 52.1543 37.5402 52.2301 37.4497C52.3059 37.3592 52.3527 37.248 52.3644 37.1306C52.5556 35.2149 53.2052 33.8218 54.2935 32.9915C55.8056 31.8371 57.7085 32.1409 57.7347 32.1455C59.2925 32.3924 60.4427 33.0315 61.1534 34.0452C62.0238 35.2868 62.0497 36.8208 61.9937 37.5952C59.3518 37.4534 56.7221 37.1372 54.1219 36.6486C54.0462 36.6333 53.9682 36.633 53.8924 36.6479C53.8166 36.6627 53.7444 36.6924 53.6801 36.7351C53.6157 36.7778 53.5604 36.8328 53.5173 36.8969C53.4742 36.961 53.4441 37.033 53.4288 37.1087C53.4135 37.1844 53.4133 37.2624 53.4282 37.3382C53.443 37.4141 53.4726 37.4862 53.5154 37.5506C53.5581 37.6149 53.6131 37.6702 53.6772 37.7133C53.7413 37.7564 53.8133 37.7865 53.889 37.8018C56.6661 38.3244 59.4762 38.6537 62.299 38.7871C62.4891 38.9472 62.6392 39.1495 62.7372 39.378C57.1893 39.5986 52.9522 38.5431 51.2534 38.03C51.4577 37.8606 51.6899 37.728 51.9396 37.638ZM51.465 40.9978C51.3359 40.6943 51.3487 40.0771 51.4916 39.3289C51.6503 39.3733 51.8208 39.4192 52.0031 39.4665C51.9754 39.9892 51.9478 40.6915 51.946 41.4343C51.7387 41.351 51.568 41.1961 51.465 40.9978ZM55.7134 61.4255C55.8694 61.4108 56.0271 61.3903 56.1868 61.3633C57.4594 61.1445 58.7196 60.8593 59.9624 60.5087L57.5496 64.2146C57.0068 63.2411 56.3931 62.3088 55.7134 61.4255ZM67.3231 58.8325L57.8322 72.4481C57.7943 72.5025 57.7456 72.5484 57.6891 72.583C57.6326 72.6176 57.5695 72.6401 57.5039 72.6491C57.4382 72.6582 57.3714 72.6536 57.3077 72.6355C57.2439 72.6175 57.1846 72.5865 57.1334 72.5444L55.1187 70.8883C55.0275 70.8133 54.9671 70.7074 54.9491 70.5907C54.9311 70.4741 54.9568 70.3549 55.0212 70.2559L64.2994 56.0059C64.6924 55.3999 65.2673 54.934 65.9415 54.6749L66.8321 54.3308C67.5217 54.0647 68.1203 53.6061 68.5566 53.0094L70.6562 50.143C70.6732 50.1552 70.689 50.1688 70.7035 50.1839L71.0941 50.624L68.9009 53.5511C68.5017 54.0846 68.2471 54.7122 68.1615 55.373L67.9124 57.3058C67.8412 57.8546 67.6391 58.3782 67.3231 58.8325ZM70.9519 54.4875C70.7485 55.683 70.1578 56.3781 69.1943 56.5652L69.3285 55.5239C69.6227 54.3059 70.6329 53.2015 70.6329 53.2015C70.6641 53.249 71.0184 54.0952 70.9516 54.4875H70.9519ZM73.4577 48.3614C73.5702 48.4761 73.6501 48.6189 73.689 48.7749C73.7279 48.9308 73.7245 49.0944 73.6791 49.2486C73.5468 49.666 73.2773 50.0264 72.9144 50.2714C72.819 50.3384 72.7022 50.3679 72.5865 50.354C72.4707 50.3401 72.3641 50.2838 72.2874 50.1961L71.5825 49.4019C71.2928 49.0756 70.6266 48.8687 70.1531 48.9222C70.0834 48.934 70.0117 48.9245 69.9475 48.895C69.8832 48.8655 69.8293 48.8174 69.7927 48.7569C69.5768 48.3467 69.4578 47.8924 69.4447 47.429L71.0238 46.1459C71.9131 46.7997 72.9062 47.7883 73.4574 48.3614H73.4577ZM67.5672 42.1497C67.7385 42.1229 67.9138 42.1427 68.0748 42.207C68.2358 42.2713 68.3765 42.3777 68.4822 42.5152C69.1233 43.3961 69.7107 44.3148 70.241 45.2665L68.8782 46.3737L67.7753 45.4105V44.6143C67.7753 44.4583 67.7133 44.3087 67.603 44.1984C67.4927 44.088 67.3431 44.0261 67.1871 44.0261C67.0311 44.0261 66.8814 44.088 66.7711 44.1984C66.6608 44.3087 66.5988 44.4583 66.5988 44.6143V45.3265L65.5602 45.8853C65.5827 44.9517 65.5115 43.6206 65.0404 42.6115C65.9359 42.4143 66.8709 42.2569 67.5672 42.1497ZM66.9759 51.5959C67.3962 51.2197 67.9906 51.4281 68.2178 51.4792C68.2178 51.4792 67.4531 52.8702 66.4074 53.2324L65.5616 53.5592C65.5809 53.1968 65.7247 52.8522 65.9687 52.5836C66.2784 52.2288 66.6151 51.8986 66.9759 51.5959ZM52.8131 59.5397C51.1996 58.1933 50.4209 55.8633 50.2084 54.9059C51.0606 54.4817 51.9692 54.182 52.9065 54.0158C52.9826 54.0027 53.0554 53.9748 53.1208 53.9336C53.1861 53.8924 53.2427 53.8387 53.2873 53.7756C53.3319 53.7125 53.3636 53.6413 53.3807 53.5659C53.3978 53.4906 53.3998 53.4126 53.3868 53.3365C53.3737 53.2604 53.3458 53.1875 53.3046 53.1222C53.2634 53.0569 53.2097 53.0003 53.1466 52.9557C53.0835 52.9111 53.0123 52.8793 52.9369 52.8623C52.8616 52.8452 52.7836 52.8431 52.7075 52.8562C51.7583 53.0236 50.8349 53.3137 49.9606 53.7193C49.4459 51.0884 49.7922 49.7424 50.1975 49.0672C50.2957 48.9041 50.4253 48.7622 50.5789 48.6497C50.7325 48.5372 50.907 48.4564 51.0921 48.4121C51.2773 48.3678 51.4694 48.3607 51.6573 48.3914C51.8452 48.4221 52.0251 48.49 52.1865 48.5909C53.9763 49.7034 54.1047 53.2896 54.1062 53.3396C54.1062 53.349 54.1091 53.3578 54.1097 53.3671C54.1103 53.3764 54.1097 53.3855 54.1104 53.3949C54.1794 53.968 54.3156 54.531 54.5163 55.0722C54.6677 55.48 54.9382 55.8328 55.2926 56.0849C55.647 56.337 56.069 56.4767 56.5038 56.4859C56.6429 56.4894 56.7874 56.4912 56.9363 56.4912C58.6187 56.4912 60.8988 56.2783 62.866 56.0492L60.9543 58.9861C59.3296 59.5049 57.6713 59.9116 55.9909 60.2033C55.4949 60.2872 53.7018 60.2811 52.8131 59.5397Z" fill="#114084"/>
<path d="M40.576 48.4199C41.2191 48.4199 41.8477 48.2292 42.3824 47.8719C42.9171 47.5147 43.3338 47.0069 43.5799 46.4128C43.826 45.8186 43.8903 45.1649 43.7649 44.5342C43.6394 43.9035 43.3297 43.3242 42.875 42.8695C42.4203 42.4148 41.8409 42.1051 41.2102 41.9797C40.5795 41.8543 39.9258 41.9187 39.3317 42.1648C38.7376 42.4109 38.2298 42.8276 37.8726 43.3623C37.5153 43.897 37.3247 44.5257 37.3247 45.1687C37.3257 46.0307 37.6686 46.8571 38.2781 47.4666C38.8877 48.0761 39.7141 48.4189 40.576 48.4199ZM40.576 43.0939C40.9864 43.0939 41.3875 43.2155 41.7288 43.4435C42.07 43.6715 42.3359 43.9956 42.4929 44.3747C42.65 44.7538 42.6911 45.171 42.611 45.5735C42.531 45.976 42.3333 46.3457 42.0432 46.6359C41.753 46.926 41.3833 47.1236 40.9808 47.2037C40.5783 47.2838 40.1611 47.2427 39.782 47.0856C39.4029 46.9286 39.0788 46.6626 38.8509 46.3214C38.6229 45.9802 38.5012 45.5791 38.5012 45.1687C38.502 44.6187 38.7208 44.0915 39.1098 43.7026C39.4987 43.3138 40.026 43.0951 40.576 43.0944V43.0939Z" fill="#114084"/>
<path d="M55.5751 40.6744L55.1455 40.5567C54.9954 40.5167 54.8356 40.5377 54.7009 40.6151C54.5662 40.6925 54.4676 40.82 54.4266 40.9698C54.3856 41.1196 54.4055 41.2796 54.482 41.4148C54.5585 41.55 54.6854 41.6494 54.835 41.6914L55.2645 41.8091C55.4146 41.8491 55.5744 41.8281 55.7091 41.7507C55.8438 41.6733 55.9424 41.5458 55.9834 41.396C56.0244 41.2462 56.0045 41.0862 55.928 40.951C55.8515 40.8158 55.7246 40.7164 55.5751 40.6744Z" fill="#114084"/>
<path d="M58.2187 40.8055L57.7775 40.8631C57.7001 40.8721 57.6252 40.8965 57.5573 40.9346C57.4894 40.9728 57.4297 41.0241 57.3818 41.0856C57.3338 41.147 57.2986 41.2174 57.2781 41.2926C57.2576 41.3677 57.2522 41.4462 57.2623 41.5235C57.2724 41.6008 57.2977 41.6753 57.3368 41.7427C57.3759 41.8101 57.4281 41.8691 57.4901 41.9161C57.5522 41.9632 57.6231 41.9975 57.6985 42.017C57.774 42.0365 57.8526 42.0407 57.9297 42.0296L58.3709 41.9721C58.4475 41.9621 58.5214 41.9371 58.5883 41.8986C58.6553 41.86 58.7139 41.8087 58.761 41.7474C58.8081 41.6862 58.8427 41.6163 58.8628 41.5417C58.8829 41.4671 58.8881 41.3893 58.8781 41.3127C58.8681 41.2361 58.8431 41.1622 58.8046 41.0953C58.766 41.0283 58.7147 40.9696 58.6534 40.9225C58.5922 40.8754 58.5223 40.8408 58.4477 40.8208C58.3731 40.8007 58.2953 40.7955 58.2187 40.8055Z" fill="#114084"/>
<path d="M51.5448 68.737L52.029 68.6321C52.1054 68.6167 52.1779 68.5862 52.2425 68.5425C52.307 68.4988 52.3622 68.4427 52.4049 68.3775C52.4475 68.3122 52.4768 68.2392 52.491 68.1625C52.5052 68.0859 52.504 68.0072 52.4875 67.931C52.471 67.8548 52.4395 67.7827 52.3949 67.7188C52.3503 67.6549 52.2934 67.6005 52.2276 67.5587C52.1617 67.517 52.0883 67.4888 52.0114 67.4757C51.9346 67.4626 51.8559 67.4649 51.78 67.4824L51.2957 67.5873C50.3019 67.8576 48.9826 69.1424 48.9826 69.1424L48.9818 69.1433L48.9806 69.1442L42.286 75.2684C42.2271 75.3201 42.1791 75.3829 42.1448 75.4533C42.1105 75.5237 42.0906 75.6003 42.0863 75.6785C42.082 75.7567 42.0934 75.835 42.1197 75.9087C42.1461 75.9825 42.1869 76.0502 42.2398 76.108C42.2926 76.1658 42.3565 76.2124 42.4277 76.2452C42.4988 76.2779 42.5758 76.2962 42.654 76.2988C42.7323 76.3014 42.8103 76.2883 42.8835 76.2604C42.9567 76.2325 43.0235 76.1902 43.0801 76.1361L49.3494 70.4008C50.1876 71.3051 52.1784 73.5886 53.2397 75.9437C53.2712 76.0145 53.3164 76.0783 53.3727 76.1316C53.429 76.1848 53.4952 76.2264 53.5676 76.254C53.64 76.2816 53.7171 76.2946 53.7945 76.2923C53.8719 76.29 53.9481 76.2724 54.0188 76.2406C54.0894 76.2087 54.153 76.1632 54.206 76.1067C54.259 76.0503 54.3003 75.9838 54.3276 75.9113C54.3549 75.8388 54.3675 75.7617 54.3649 75.6842C54.3622 75.6068 54.3443 75.5307 54.3122 75.4602C53.1726 72.9317 51.1126 70.5665 50.2204 69.6073C50.2204 69.6082 50.8654 68.8955 51.5448 68.737Z" fill="#114084"/>
</g>
<defs>
<clipPath id="clip0_3006_32">
<rect width="50" height="50" fill="white" transform="translate(29.5 28.6099)"/>
</clipPath>
</defs>
</svg>
