<svg width="109" height="108" viewBox="0 0 109 108" fill="none" xmlns="http://www.w3.org/2000/svg">
<rect x="2" y="1.5" width="105" height="105" rx="52.5" stroke="#114084" stroke-width="3"/>
<g clip-path="url(#clip0_5001_1749)">
<path fill-rule="evenodd" clip-rule="evenodd" d="M72.8335 71.1101C71.4973 71.1053 70.2118 71.6216 69.2502 72.5493C68.5843 73.2283 67.6732 73.6108 66.7222 73.6108C65.7713 73.6108 64.8602 73.2283 64.1943 72.5493C62.1906 70.631 59.0314 70.631 57.0277 72.5493C56.3617 73.228 55.4507 73.6104 54.4997 73.6104C53.5488 73.6104 52.6378 73.228 51.9718 72.5493C49.9681 70.631 46.8089 70.631 44.8052 72.5493C44.1392 73.2278 43.2284 73.61 42.2777 73.61C41.3269 73.61 40.4161 73.2278 39.7502 72.5493C38.7872 71.6237 37.5026 71.1077 36.1668 71.1101C35.7066 71.1101 35.3335 71.4832 35.3335 71.9435C35.3335 72.4037 35.7066 72.7768 36.1668 72.7768C37.1201 72.7724 38.0342 73.1556 38.6993 73.8385C40.7033 75.7564 43.8621 75.7564 45.866 73.8385C46.532 73.1597 47.443 72.7773 48.3939 72.7773C49.3448 72.7773 50.2558 73.1597 50.9218 73.8385C52.9256 75.7568 56.0847 75.7568 58.0885 73.8385C58.7543 73.1596 59.6651 72.7771 60.616 72.7771C61.5669 72.7771 62.4777 73.1596 63.1435 73.8385C65.1471 75.7572 68.3066 75.7572 70.3102 73.8385C70.9719 73.1561 71.883 72.7728 72.8335 72.7768C73.2937 72.7768 73.6668 72.4037 73.6668 71.9435C73.6668 71.4832 73.2937 71.1101 72.8335 71.1101Z" fill="#114084"/>
<path fill-rule="evenodd" clip-rule="evenodd" d="M46.167 62.7766H44.5003C44.0401 62.7766 43.667 63.1497 43.667 63.6099C43.667 64.0702 44.0401 64.4433 44.5003 64.4433H46.167C46.6272 64.4433 47.0003 64.0702 47.0003 63.6099C47.0003 63.1497 46.6272 62.7766 46.167 62.7766Z" fill="#114084"/>
<path fill-rule="evenodd" clip-rule="evenodd" d="M62.8333 64.4433H64.5C64.9602 64.4433 65.3333 64.0702 65.3333 63.6099C65.3333 63.1497 64.9602 62.7766 64.5 62.7766H62.8333C62.3731 62.7766 62 63.1497 62 63.6099C62 64.0702 62.3731 64.4433 62.8333 64.4433Z" fill="#114084"/>
<path fill-rule="evenodd" clip-rule="evenodd" d="M52.8335 64.4432C52.8335 64.9034 53.2066 65.2765 53.6668 65.2765H55.3335C55.7937 65.2765 56.1668 64.9034 56.1668 64.4432C56.1668 63.983 55.7937 63.6099 55.3335 63.6099H53.6668C53.2066 63.6099 52.8335 63.983 52.8335 64.4432Z" fill="#114084"/>
<path d="M77.8335 43.6099H76.1669V41.9432C76.1669 40.5625 75.0476 39.4432 73.6669 39.4432H72.0002C71.7157 39.446 71.4338 39.4979 71.1669 39.5966V38.6099C71.1669 37.2292 70.0476 36.1099 68.6669 36.1099H67.0002C65.6195 36.1099 64.5002 37.2292 64.5002 38.6099V43.6099H57.3485C57.1869 41.2016 57.0827 38.6682 57.036 36.0491C58.4776 36.3664 59.7888 37.1142 60.796 38.1932C61.0306 38.4589 61.3683 38.6107 61.7227 38.6099C62.0615 38.609 62.386 38.4731 62.6242 38.2322C62.8624 37.9913 62.9948 37.6653 62.9919 37.3266C63.0135 36.0033 62.6483 34.7026 61.941 33.5841C62.789 33.717 63.6226 33.929 64.431 34.2174C64.9236 34.3976 65.4763 34.2488 65.8119 33.8457C66.159 33.442 66.2137 32.8632 65.9485 32.4016C64.5679 30.0482 62.0087 28.6407 59.2819 28.7349C57.7019 28.6083 56.1224 28.9839 54.7685 29.8082C54.6474 29.9005 54.4796 29.9005 54.3585 29.8082C53.0225 28.9454 51.4484 28.5261 49.8602 28.6099C47.1114 28.424 44.488 29.7849 43.0569 32.1391C42.7898 32.5951 42.8336 33.1689 43.1669 33.5791C43.4945 33.9826 44.0377 34.1412 44.531 33.9774C45.3627 33.7101 46.2159 33.515 47.081 33.3941C46.3435 34.4889 45.941 35.7749 45.9227 37.0949C45.8971 37.6247 46.2069 38.1135 46.6969 38.3166C47.1798 38.5249 47.7416 38.4052 48.0977 38.0182C49.1389 36.9428 50.4908 36.2204 51.9635 35.9524C51.9185 38.5649 51.816 41.1307 51.6569 43.6074H44.5002V38.6099C44.5002 37.2292 43.3809 36.1099 42.0002 36.1099H40.3335C38.9528 36.1099 37.8335 37.2292 37.8335 38.6099V39.5966C37.5667 39.4979 37.2847 39.446 37.0002 39.4432H35.3335C33.9528 39.4432 32.8335 40.5625 32.8335 41.9432V43.6099H31.1669C30.2464 43.6099 29.5002 44.3561 29.5002 45.2766V48.6099C29.5002 49.5304 30.2464 50.2766 31.1669 50.2766H32.8335V51.9432C32.8335 53.3239 33.9528 54.4432 35.3335 54.4432H37.0002C37.2847 54.4405 37.5667 54.3886 37.8335 54.2899V55.2766C37.8335 56.6573 38.9528 57.7766 40.3335 57.7766H42.0002C43.3809 57.7766 44.5002 56.6573 44.5002 55.2766V50.2766H51.0135C50.7011 52.8953 50.2258 55.492 49.5902 58.0516C40.1169 59.1174 32.7444 63.2082 31.396 68.4474C31.3577 68.4599 31.3244 68.4782 31.2844 68.4891C30.2133 68.8142 29.486 69.8081 29.5002 70.9274V76.1099C29.5002 77.4906 30.6195 78.6099 32.0002 78.6099H77.0002C78.3809 78.6099 79.5002 77.4906 79.5002 76.1099V70.9241C79.5139 69.8068 78.7883 68.8146 77.7194 68.4891C77.6785 68.4774 77.6435 68.4591 77.6044 68.4457C76.2544 63.2074 68.8827 59.1174 59.4094 58.0516C58.7744 55.4916 58.2971 52.895 57.9802 50.2766H64.5002V55.2766C64.5002 56.6573 65.6195 57.7766 67.0002 57.7766H68.6669C70.0476 57.7766 71.1669 56.6573 71.1669 55.2766V54.2899C71.4338 54.3886 71.7157 54.4405 72.0002 54.4432H73.6669C75.0476 54.4432 76.1669 53.3239 76.1669 51.9432V50.2766H77.8335C78.754 50.2766 79.5002 49.5304 79.5002 48.6099V45.2766C79.5002 44.3561 78.754 43.6099 77.8335 43.6099ZM60.3335 45.2766V48.6099H48.6669V45.2766H60.3335ZM47.7144 36.1099C47.9138 34.8684 48.6682 33.7856 49.7635 33.1682C50.0711 32.9991 50.2396 32.6554 50.1852 32.3087C50.1307 31.962 49.8648 31.6866 49.5202 31.6199C49.4274 31.602 49.333 31.5942 49.2385 31.5966C47.8712 31.5813 46.5073 31.7386 45.1794 32.0649C46.3863 30.7996 48.0975 30.1431 49.841 30.2766C51.0677 30.1861 52.2919 30.4828 53.341 31.1249C54.0402 31.6749 55.0202 31.6916 55.7377 31.1657C56.8034 30.5466 58.0371 30.2789 59.2635 30.4007C60.9802 30.338 62.6399 31.0222 63.8135 32.2766C62.5166 31.9317 61.1813 31.752 59.8394 31.7416C59.4401 31.6598 59.0402 31.8788 58.8941 32.2593C58.7481 32.6399 58.8987 33.0702 59.2502 33.2766C60.3396 33.9273 61.0705 35.0415 61.2335 36.2999C59.322 34.7895 56.9415 33.9969 54.506 34.0599H54.3144C51.944 33.9634 49.6129 34.6874 47.7144 36.1099ZM53.636 35.7532C53.9127 35.7391 54.1827 35.7191 54.4827 35.7249C54.7952 35.7299 55.0777 35.7582 55.3644 35.7832C55.4077 38.4932 55.5135 41.1166 55.6777 43.6082H53.3277C53.4894 41.0674 53.5935 38.4349 53.636 35.7549V35.7532ZM31.1669 48.6099V45.2766H32.8335V48.6099H31.1669ZM37.0002 52.7766H35.3335C34.8733 52.7766 34.5002 52.4035 34.5002 51.9432V41.9432C34.5002 41.483 34.8733 41.1099 35.3335 41.1099H37.0002C37.4604 41.1099 37.8335 41.483 37.8335 41.9432V51.9432C37.8335 52.4035 37.4604 52.7766 37.0002 52.7766ZM42.8335 55.2766C42.8335 55.7368 42.4604 56.1099 42.0002 56.1099H40.3335C39.8733 56.1099 39.5002 55.7368 39.5002 55.2766V38.6099C39.5002 38.1497 39.8733 37.7766 40.3335 37.7766H42.0002C42.4604 37.7766 42.8335 38.1497 42.8335 38.6099V55.2766ZM44.5002 45.2766H47.0002V48.6099H44.5002V45.2766ZM77.8335 70.9241V76.1099C77.8335 76.5701 77.4604 76.9432 77.0002 76.9432H32.0002C31.54 76.9432 31.1669 76.5701 31.1669 76.1099V70.9274C31.1557 70.555 31.3865 70.2182 31.7377 70.0941C32.5398 69.8391 33.2752 69.4094 33.891 68.8357C34.5426 68.1595 35.4412 67.7775 36.3802 67.7775C37.3192 67.7775 38.2178 68.1595 38.8694 68.8357C40.8474 70.757 43.9947 70.757 45.9727 68.8357C46.6244 68.1595 47.5231 67.7775 48.4623 67.7775C49.4014 67.7775 50.3002 68.1595 50.9519 68.8357C52.9298 70.758 56.0781 70.758 58.056 68.8357C58.7077 68.1595 59.6065 67.7775 60.5456 67.7775C61.4848 67.7775 62.3835 68.1595 63.0352 68.8357C65.0133 70.7585 68.1622 70.7585 70.1402 68.8357C70.7918 68.1593 71.6906 67.7771 72.6298 67.7771C73.569 67.7771 74.4678 68.1593 75.1194 68.8357C75.7325 69.4082 76.4652 69.8374 77.2644 70.0924C77.6148 70.2162 77.845 70.5525 77.8335 70.9241ZM74.9485 66.6741C74.2359 66.2882 73.4354 66.0938 72.6252 66.1099C71.2993 66.1072 70.0252 66.6249 69.0769 67.5516C68.4253 68.228 67.5265 68.6102 66.5873 68.6102C65.6481 68.6102 64.7493 68.228 64.0977 67.5516C62.1198 65.6293 58.9715 65.6293 56.9935 67.5516C56.3418 68.2278 55.4431 68.6098 54.504 68.6098C53.5648 68.6098 52.6661 68.2278 52.0144 67.5516C50.0364 65.6293 46.8882 65.6293 44.9102 67.5516C44.2585 68.2278 43.3598 68.6098 42.4206 68.6098C41.4815 68.6098 40.5827 68.2278 39.931 67.5516C38.9796 66.625 37.7033 66.1075 36.3752 66.1099C35.5631 66.0947 34.7611 66.2918 34.0485 66.6816C37.0394 62.4691 45.2069 59.4432 54.5002 59.4432C63.7935 59.4432 71.9552 62.4666 74.9485 66.6774V66.6741ZM57.6519 57.8891C56.6202 57.8141 55.5696 57.7766 54.5002 57.7766C53.4308 57.7766 52.3802 57.8141 51.3485 57.8891C51.941 55.3791 52.39 52.8375 52.6935 50.2766H56.3002C56.608 52.8374 57.0592 55.3788 57.6519 57.8891ZM62.0002 48.6099V45.2766H64.5002V48.6099H62.0002ZM69.5002 55.2766C69.5002 55.7368 69.1271 56.1099 68.6669 56.1099H67.0002C66.54 56.1099 66.1669 55.7368 66.1669 55.2766V38.6099C66.1669 38.1497 66.54 37.7766 67.0002 37.7766H68.6669C69.1271 37.7766 69.5002 38.1497 69.5002 38.6099V55.2766ZM74.5002 51.9432C74.5002 52.4035 74.1271 52.7766 73.6669 52.7766H72.0002C71.54 52.7766 71.1669 52.4035 71.1669 51.9432V41.9432C71.1669 41.483 71.54 41.1099 72.0002 41.1099H73.6669C74.1271 41.1099 74.5002 41.483 74.5002 41.9432V51.9432ZM76.1669 48.6099V45.2766H77.8335V48.6099H76.1669Z" fill="#114084"/>
</g>
<defs>
<clipPath id="clip0_5001_1749">
<rect width="50" height="50" fill="white" transform="translate(29.5 28.6099)"/>
</clipPath>
</defs>
</svg>
