<svg width="109" height="108" viewBox="0 0 109 108" fill="none" xmlns="http://www.w3.org/2000/svg">
<rect x="2" y="1.5" width="105" height="105" rx="52.5" stroke="#114084" stroke-width="3"/>
<g clip-path="url(#clip0_5001_1815)">
<path d="M79.1106 39.2078C79.0577 39.2078 79.0038 39.198 78.9516 39.1773L55.7316 29.998C55.2868 29.8221 54.7969 29.8222 54.3521 29.998L31.1308 39.1773C30.9085 39.2653 30.6569 39.1563 30.569 38.9339C30.4811 38.7115 30.5901 38.46 30.8125 38.3721L54.0338 29.1927C54.6838 28.9358 55.3998 28.9358 56.0499 29.1927L79.2699 38.3721C79.4923 38.46 79.6013 38.7115 79.5134 38.9339C79.4461 39.104 79.2831 39.2078 79.1106 39.2078Z" fill="#114084"/>
<path d="M73.5392 47.7913C73.5391 47.7913 73.5392 47.7913 73.5391 47.7913C72.7245 47.7913 71.973 47.3835 71.5291 46.7003L68.4608 41.9783C68.3305 41.7778 68.3874 41.5097 68.588 41.3794C68.7886 41.249 69.0567 41.306 69.1869 41.5065L72.2553 46.2285C72.543 46.6714 73.011 46.9254 73.5392 46.9254C74.0673 46.9254 74.5354 46.6714 74.8231 46.2285L79.0765 39.6827C79.1801 39.5231 79.121 39.3764 79.0908 39.3208C79.0606 39.2651 78.9698 39.1355 78.7795 39.1355H43.4701L38.5547 46.7003C38.1107 47.3835 37.3593 47.7914 36.5446 47.7914C35.7299 47.7914 34.9785 47.3835 34.5346 46.7003L30.2812 40.1545C30.0372 39.779 30.0183 39.3012 30.2319 38.9076C30.4455 38.5141 30.8564 38.2696 31.3042 38.2696H43.2291C43.2334 38.2695 43.2376 38.2695 43.2419 38.2696H78.7795C79.2273 38.2696 79.6382 38.5141 79.8518 38.9076C80.0655 39.3012 80.0466 39.779 79.8026 40.1545L75.5492 46.7003C75.1053 47.3834 74.3539 47.7913 73.5392 47.7913ZM31.3043 39.1355C31.1141 39.1355 31.0232 39.265 30.993 39.3208C30.9628 39.3764 30.9037 39.5232 31.0073 39.6826L35.2607 46.2285C35.5485 46.6714 36.0164 46.9254 36.5446 46.9254C37.0728 46.9254 37.5408 46.6714 37.8286 46.2285L42.4375 39.1355H31.3043Z" fill="#114084"/>
<path d="M55.0422 47.7938C54.2285 47.7938 53.4771 47.385 53.0322 46.7002L49.9567 41.9672C49.8264 41.7666 49.8833 41.4985 50.0839 41.3682C50.2843 41.2379 50.5525 41.2948 50.6828 41.4953L53.7583 46.2284C54.0471 46.673 54.5151 46.9279 55.0423 46.9279C55.5694 46.9279 56.0373 46.6729 56.3262 46.2284L61.3697 38.4666C61.5 38.2661 61.7683 38.2093 61.9687 38.3394C62.1692 38.4697 62.2261 38.7379 62.0958 38.9384L57.0523 46.7002C56.6073 47.385 55.8559 47.7938 55.0422 47.7938Z" fill="#114084"/>
<path d="M45.5967 47.7938C44.7831 47.7938 44.0316 47.385 43.5867 46.7002L40.7077 42.2696C40.5774 42.069 40.6343 41.8009 40.8348 41.6706C41.0353 41.5403 41.3035 41.5972 41.4338 41.7977L44.3128 46.2284C44.6016 46.673 45.0696 46.9279 45.5967 46.9279C46.1239 46.9279 46.5919 46.6729 46.8807 46.2284L51.9242 38.4666C52.0545 38.2661 52.3227 38.2093 52.5231 38.3394C52.7237 38.4697 52.7806 38.7379 52.6503 38.9384L47.6068 46.7002C47.1618 47.385 46.4104 47.7938 45.5967 47.7938Z" fill="#114084"/>
<path d="M64.0937 47.7938C63.2801 47.7938 62.5287 47.385 62.0837 46.7002L59.2047 42.2695C59.0744 42.069 59.1314 41.8009 59.3319 41.6706C59.5323 41.5403 59.8005 41.5972 59.9309 41.7977L62.8098 46.2284C63.0987 46.6729 63.5666 46.9279 64.0937 46.9279C64.6209 46.9279 65.0889 46.6729 65.3777 46.2284L70.4212 38.4666C70.5516 38.2661 70.8199 38.2093 71.0202 38.3394C71.2207 38.4697 71.2776 38.7379 71.1474 38.9384L66.1038 46.7002C65.6589 47.385 64.9075 47.7938 64.0937 47.7938Z" fill="#114084"/>
<path d="M56.9903 72.5539H53.0936C52.8545 72.5539 52.6606 72.36 52.6606 72.1209V63.4625C52.6606 63.2234 52.8545 63.0295 53.0936 63.0295C53.3327 63.0295 53.5266 63.2234 53.5266 63.4625V71.6879H56.5573V63.4625C56.5573 63.2234 56.7512 63.0295 56.9903 63.0295C57.2294 63.0295 57.4232 63.2234 57.4232 63.4625V72.1209C57.4233 72.36 57.2294 72.5539 56.9903 72.5539Z" fill="#114084"/>
<path d="M65.8254 63.8957H44.2582C42.9452 63.8957 41.877 62.8275 41.877 61.5144C41.877 60.2014 42.9452 59.1331 44.2582 59.1331H65.8254C67.1385 59.1331 68.2068 60.2014 68.2068 61.5144C68.2068 62.8275 67.1385 63.8957 65.8254 63.8957ZM44.2582 59.999C43.4227 59.999 42.7429 60.6788 42.7429 61.5145C42.7429 62.35 43.4227 63.0298 44.2582 63.0298H65.8254C66.661 63.0298 67.3408 62.35 67.3408 61.5145C67.3408 60.6788 66.661 59.999 65.8254 59.999H44.2582Z" fill="#114084"/>
<path d="M46.2613 78.8925C45.6184 78.8925 45.0926 78.4506 44.9819 77.817C44.8712 77.1828 45.2171 76.5881 45.8232 76.3708L51.6187 74.2933V72.121C51.6187 71.8819 51.8126 71.688 52.0517 71.688H58.0625C58.3016 71.688 58.4955 71.8819 58.4955 72.121V74.1808L64.3519 76.3478C64.9517 76.5697 65.2921 77.1644 65.1799 77.794C65.0676 78.4236 64.5427 78.8639 63.9032 78.8649L46.2635 78.8925C46.2628 78.8925 46.262 78.8925 46.2613 78.8925ZM52.4847 72.554V74.5981C52.4847 74.7809 52.3699 74.944 52.1978 75.0057L46.1154 77.186C45.7888 77.3031 45.8245 77.6081 45.835 77.6681C45.8455 77.728 45.9163 78.0271 46.2621 78.0265L63.9019 77.999C64.2465 77.9984 64.3168 77.7015 64.3274 77.6421C64.338 77.5825 64.3746 77.2796 64.0514 77.16L57.9122 74.8883C57.7423 74.8255 57.6295 74.6635 57.6295 74.4823V72.554L52.4847 72.554Z" fill="#114084"/>
<path d="M56.1483 59.9986H53.9354C53.6963 59.9986 53.5024 59.8048 53.5024 59.5657V47.0658C53.5024 46.8267 53.6963 46.6328 53.9354 46.6328C54.1745 46.6328 54.3684 46.8267 54.3684 47.0658V59.1327H55.7154V47.0658C55.7154 46.8267 55.9092 46.6328 56.1483 46.6328C56.3874 46.6328 56.5813 46.8267 56.5813 47.0658V59.5656C56.5813 59.8048 56.3874 59.9986 56.1483 59.9986Z" fill="#114084"/>
<path d="M50.3755 57.9648H46.7508C46.5309 57.9648 46.3458 57.7999 46.3207 57.5814L45.4145 49.7277C45.4003 49.605 45.4392 49.4822 45.5214 49.39C45.6035 49.2978 45.7211 49.2451 45.8446 49.2451H51.2386C51.3617 49.2451 51.4789 49.2975 51.5611 49.3891C51.6432 49.4808 51.6824 49.603 51.669 49.7254L50.8059 57.579C50.7818 57.7986 50.5963 57.9648 50.3755 57.9648ZM47.1366 57.0988H49.9875L50.7554 50.111H46.3303L47.1366 57.0988Z" fill="#114084"/>
<path d="M51.0394 51.923H46.0536C45.8145 51.923 45.6206 51.7292 45.6206 51.4901C45.6206 51.251 45.8145 51.0571 46.0536 51.0571H51.0393C51.2784 51.0571 51.4723 51.2509 51.4723 51.4901C51.4723 51.7292 51.2785 51.923 51.0394 51.923Z" fill="#114084"/>
<path d="M61.4443 55.3456C60.065 55.3456 58.9429 54.2234 58.9429 52.8441V49.6781C58.9429 49.4389 59.1368 49.2451 59.3758 49.2451H63.5128C63.7519 49.2451 63.9458 49.4389 63.9458 49.6781V52.8441C63.9458 54.2234 62.8236 55.3456 61.4443 55.3456ZM59.8088 50.111V52.8441C59.8088 53.746 60.5425 54.4796 61.4443 54.4796C62.3461 54.4796 63.0798 53.746 63.0798 52.8441V50.111H59.8088Z" fill="#114084"/>
<path d="M63.5128 51.6835H59.3758C59.1368 51.6835 58.9429 51.4897 58.9429 51.2506C58.9429 51.0115 59.1368 50.8176 59.3758 50.8176H63.5128C63.7519 50.8176 63.9458 51.0114 63.9458 51.2506C63.9458 51.4897 63.7519 51.6835 63.5128 51.6835Z" fill="#114084"/>
<path d="M61.4442 57.9651C61.2051 57.9651 61.0112 57.7712 61.0112 57.5321V54.913C61.0112 54.6739 61.2051 54.48 61.4442 54.48C61.6833 54.48 61.8772 54.6739 61.8772 54.913V57.5321C61.8772 57.7712 61.6833 57.9651 61.4442 57.9651Z" fill="#114084"/>
<path d="M63.0005 57.9648H59.8885C59.6495 57.9648 59.4556 57.7709 59.4556 57.5319C59.4556 57.2928 59.6495 57.0989 59.8885 57.0989H63.0005C63.2395 57.0989 63.4334 57.2928 63.4334 57.5319C63.4334 57.7709 63.2396 57.9648 63.0005 57.9648Z" fill="#114084"/>
<path d="M31.6348 78.8922C30.7334 78.8922 30 78.1588 30 77.2574V68.3446C30 68.1055 30.1938 67.9116 30.433 67.9116H32.8367C33.0758 67.9116 33.2696 68.1055 33.2696 68.3446V77.2574C33.2697 78.1588 32.5363 78.8922 31.6348 78.8922ZM30.8659 68.7776V77.2574C30.8659 77.6814 31.2108 78.0263 31.6348 78.0263C32.0588 78.0263 32.4037 77.6814 32.4037 77.2574V68.7776H30.8659Z" fill="#114084"/>
<path d="M40.7911 78.8922C39.8896 78.8922 39.1562 78.1588 39.1562 77.2574V68.3446C39.1562 68.1055 39.3501 67.9116 39.5892 67.9116H41.993C42.2321 67.9116 42.4259 68.1055 42.4259 68.3446V77.2574C42.4259 78.1588 41.6925 78.8922 40.7911 78.8922ZM40.0221 68.7776V77.2574C40.0221 77.6814 40.367 78.0263 40.791 78.0263C41.215 78.0263 41.5599 77.6814 41.5599 77.2574V68.7776H40.0221Z" fill="#114084"/>
<path d="M41.9927 68.7776H30.433C30.1939 68.7776 30 68.5837 30 68.3446V64.9781C30 64.7391 30.1939 64.5452 30.433 64.5452H40.3094C41.4763 64.5452 42.4256 65.4945 42.4256 66.6614V68.3446C42.4256 68.5837 42.2318 68.7776 41.9927 68.7776ZM30.866 67.9116H41.5598V66.6614C41.5598 65.972 40.9989 65.4111 40.3095 65.4111H30.866V67.9116Z" fill="#114084"/>
<path d="M30.433 68.7774C30.1939 68.7774 30 68.5835 30 68.3444V52.598C30 52.3589 30.1938 52.165 30.433 52.165H32.3562C33.3907 52.165 34.2324 53.0067 34.2324 54.0412V64.9779C34.2324 65.217 34.0385 65.4109 33.7994 65.4109C33.5603 65.4109 33.3665 65.217 33.3665 64.9779V54.0412C33.3665 53.4841 32.9133 53.0309 32.3562 53.0309H30.8659V68.3444C30.8659 68.5835 30.6721 68.7774 30.433 68.7774Z" fill="#114084"/>
<path d="M78.2863 78.8922C77.3848 78.8922 76.6514 78.1588 76.6514 77.2574V68.3446C76.6514 68.1055 76.8453 67.9116 77.0843 67.9116H79.4881C79.7272 67.9116 79.9211 68.1055 79.9211 68.3446V77.2574C79.9211 78.1588 79.1878 78.8922 78.2863 78.8922ZM77.5173 68.7776V77.2574C77.5173 77.6814 77.8623 78.0263 78.2863 78.0263C78.7102 78.0263 79.0552 77.6814 79.0552 77.2574V68.7776H77.5173Z" fill="#114084"/>
<path d="M69.1305 78.8922C68.229 78.8922 67.4956 78.1588 67.4956 77.2574V68.3446C67.4956 68.1055 67.6895 67.9116 67.9286 67.9116H70.3323C70.5714 67.9116 70.7653 68.1055 70.7653 68.3446V77.2574C70.7653 78.1588 70.032 78.8922 69.1305 78.8922ZM68.3616 68.7776V77.2574C68.3616 77.6814 68.7065 78.0263 69.1305 78.0263C69.5545 78.0263 69.8994 77.6814 69.8994 77.2574V68.7776H68.3616Z" fill="#114084"/>
<path d="M79.4883 68.7776H67.9286C67.6895 68.7776 67.4956 68.5837 67.4956 68.3446V66.6614C67.4956 65.4945 68.4449 64.5452 69.6118 64.5452H79.4883C79.7274 64.5452 79.9213 64.7391 79.9213 64.9781V68.3446C79.9213 68.5837 79.7274 68.7776 79.4883 68.7776ZM68.3616 67.9116H79.0554V65.4111H69.6119C68.9225 65.4111 68.3616 65.972 68.3616 66.6614V67.9116Z" fill="#114084"/>
<path d="M79.4879 68.7773C79.2489 68.7773 79.055 68.5834 79.055 68.3444V53.0309H77.5647C77.0076 53.0309 76.5544 53.4841 76.5544 54.0412V64.9779C76.5544 65.217 76.3605 65.4109 76.1215 65.4109C75.8824 65.4109 75.6885 65.217 75.6885 64.9779V54.0412C75.6885 53.0067 76.5302 52.165 77.5647 52.165H79.4879C79.727 52.165 79.9209 52.3589 79.9209 52.598V68.3444C79.9209 68.5835 79.7271 68.7773 79.4879 68.7773Z" fill="#114084"/>
</g>
<defs>
<clipPath id="clip0_5001_1815">
<rect width="50" height="50" fill="white" transform="translate(29.5 28.6099)"/>
</clipPath>
</defs>
</svg>
