<svg width="109" height="108" viewBox="0 0 109 108" fill="none" xmlns="http://www.w3.org/2000/svg">
<rect x="2" y="1.5" width="105" height="105" rx="52.5" stroke="#114084" stroke-width="3"/>
<path d="M75.832 64.3726H75.5889V58.4009C75.5889 56.856 74.332 55.5991 72.7871 55.5991H47.9609V54.2124C47.9609 52.6421 46.6836 51.3647 45.1123 51.3647H36.25V43.6938C36.25 42.2368 35.0645 41.0513 33.6074 41.0513C32.1504 41.0513 30.9648 42.2368 30.9648 43.6938V64.9585V73.7319V76.5591C30.9648 76.8823 31.2275 77.145 31.5508 77.145H36.2549C36.5781 77.145 36.8408 76.8823 36.8408 76.5591V74.3169H72.1592V76.5591C72.1592 76.8823 72.4219 77.145 72.7451 77.145H77.4492C77.7725 77.145 78.0352 76.8823 78.0352 76.5591V73.731V66.5747C78.0352 65.3608 77.0469 64.3726 75.832 64.3726ZM76.8633 66.5747V73.145H32.1367V65.5435H75.832C76.4004 65.5444 76.8633 66.0063 76.8633 66.5747ZM36.25 64.3726V56.771H49.2451V59.8315C49.2451 61.3765 50.502 62.6333 52.0469 62.6333H74.418V64.3726H36.25ZM74.418 58.4009V61.4614H52.0469C51.1484 61.4614 50.417 60.73 50.417 59.8315V56.771H72.7871C73.6865 56.771 74.418 57.5024 74.418 58.4009ZM45.1133 52.5366C46.0371 52.5366 46.79 53.2886 46.79 54.2124V55.5991H36.25V52.5366H45.1133ZM33.6074 42.2231C34.418 42.2231 35.0781 42.8833 35.0781 43.6938V64.3726H32.1367V43.6938C32.1367 42.8833 32.7969 42.2231 33.6074 42.2231ZM35.6689 75.9731H32.1367V74.3169H35.6689V75.9731ZM73.3311 75.9731V74.3169H76.8633V75.9731H73.3311ZM49.4766 50.7749H74.9668C75.1221 50.7749 75.2715 50.7134 75.3809 50.603C75.4912 50.4927 75.5527 50.3442 75.5527 50.189V30.6606C75.5527 30.3374 75.29 30.0747 74.9668 30.0747H49.4766C49.1533 30.0747 48.8906 30.3374 48.8906 30.6606V50.189C48.8906 50.5122 49.1533 50.7749 49.4766 50.7749ZM50.0625 31.2466H74.3809V49.603H50.0625V31.2466ZM72.9668 32.0747H51.4766C51.1533 32.0747 50.8906 32.3374 50.8906 32.6606V48.189C50.8906 48.5122 51.1533 48.7749 51.4766 48.7749H72.9668C73.29 48.7749 73.5527 48.5122 73.5527 48.189V32.6606C73.5527 32.3374 73.291 32.0747 72.9668 32.0747ZM72.3809 41.1626H71.1631C71.0771 41.0815 70.9883 40.9995 70.8975 40.9146C69.4951 39.6147 67.5977 37.853 67.2168 33.2456H72.3809V41.1626ZM70.2539 41.9165L68.3115 47.603H56.1328L54.1904 41.9165C54.2402 41.8696 54.291 41.8228 54.3428 41.7749C55.8105 40.4146 58.0029 38.3813 58.4023 33.2466H66.041C66.4414 38.3813 68.6328 40.4146 70.1006 41.7749C70.1533 41.8228 70.2041 41.8696 70.2539 41.9165ZM57.2266 33.2466C56.8457 37.854 54.9482 39.6157 53.5459 40.9155C53.4551 41.0005 53.3662 41.0825 53.2803 41.1636H52.0625V33.2466H57.2266ZM52.0625 42.3345H53.0947L54.8945 47.6021H52.0635V42.3345H52.0625ZM69.5498 47.603L71.3496 42.3354H72.3818V47.603H69.5498Z" fill="#114084"/>
</svg>
