<svg width="109" height="108" viewBox="0 0 109 108" fill="none" xmlns="http://www.w3.org/2000/svg">
<rect x="2" y="1.5" width="105" height="105" rx="52.5" stroke="#114084" stroke-width="3"/>
<path d="M75.4993 61.8442C74.5909 61.9649 73.667 61.8795 72.7962 61.5942C72.0578 61.3463 71.3849 60.9351 70.8275 60.3911C70.2823 59.8261 69.5754 59.444 68.804 59.2974C68.7442 59.2935 68.6842 59.2935 68.6243 59.2974L67.9056 58.2114C68.3161 58.3024 68.7351 58.3495 69.1556 58.3521C70.2684 58.3736 71.364 58.0747 72.3118 57.4911C73.2595 56.9074 74.0195 56.0636 74.5011 55.0601C74.9827 54.0567 75.1657 52.9359 75.0282 51.8313C74.8907 50.7268 74.4385 49.6851 73.7256 48.8303C73.0126 47.9756 72.0689 47.3438 71.007 47.0104C69.9451 46.6769 68.8096 46.6558 67.736 46.9496C66.6624 47.2433 65.6959 47.8395 64.9517 48.6672C64.2075 49.4948 63.7169 50.519 63.5384 51.6177L59.4915 45.4927C59.4566 45.4393 59.4379 45.3768 59.4379 45.313C59.4379 45.2492 59.4566 45.1867 59.4915 45.1333C59.5151 45.0825 59.5525 45.0394 59.5995 45.009C59.6465 44.9786 59.7012 44.9621 59.7571 44.9614H66.5384C67.4584 44.9614 68.3406 44.596 68.9912 43.9455C69.6417 43.2949 70.0071 42.4126 70.0071 41.4927C70.0071 40.5727 69.6417 39.6904 68.9912 39.0399C68.3406 38.3894 67.4584 38.0239 66.5384 38.0239H53.0931C52.6107 38.0245 52.1357 38.143 51.7096 38.369C51.2834 38.5951 50.9189 38.9218 50.6478 39.3208C50.3682 39.7337 50.1941 40.2089 50.141 40.7047C50.0879 41.2005 50.1573 41.7018 50.3431 42.1646L54.0931 51.5864C54.2165 51.8863 54.2367 52.2187 54.1504 52.5313C54.0641 52.8439 53.8763 53.1189 53.6165 53.313L45.3118 59.563C45.0754 59.5398 44.8373 59.5398 44.6009 59.563C44.0214 59.636 43.4673 59.8448 42.9837 60.1724C42.5002 60.4728 41.9933 60.7341 41.4681 60.9536C40.1943 61.4736 38.8475 61.7925 37.4759 61.8989C37.2698 61.9168 37.0793 62.0157 36.946 62.1738C36.8127 62.332 36.7476 62.5366 36.765 62.7427C36.7728 62.8454 36.801 62.9455 36.8477 63.0373C36.8944 63.1291 36.9589 63.2108 37.0373 63.2776C37.1157 63.3444 37.2066 63.395 37.3046 63.4266C37.4027 63.4581 37.506 63.47 37.6087 63.4614C39.1385 63.3359 40.6401 62.9776 42.0618 62.3989C42.6536 62.1605 43.2257 61.8757 43.7728 61.5474C44.0726 61.3302 44.4215 61.1906 44.7884 61.1411C45.7181 61.0239 46.2884 61.4692 47.0775 62.0786C47.9246 62.8435 48.9744 63.348 50.1009 63.5317C50.7635 63.5793 51.4287 63.4855 52.0523 63.2565C52.6759 63.0276 53.2437 62.6687 53.7181 62.2036C54.4807 61.4852 55.4695 61.0543 56.515 60.9849C57.6698 60.9997 58.78 61.4327 59.64 62.2036C60.557 62.9976 61.7103 63.4672 62.9212 63.5396C63.1515 63.5398 63.3814 63.5216 63.6087 63.4849C64.8064 63.2582 65.9009 62.6562 66.7337 61.7661C67.4681 61.0942 67.8821 60.7505 68.5462 60.8521C69.0204 60.966 69.4484 61.2223 69.7728 61.5864C70.4899 62.2643 71.3455 62.7788 72.2806 63.0942C73.3705 63.4502 74.526 63.5596 75.6634 63.4146C75.7691 63.406 75.8719 63.3759 75.9657 63.3263C76.0594 63.2767 76.142 63.2085 76.2085 63.1259C76.275 63.0433 76.324 62.948 76.3525 62.8459C76.3811 62.7437 76.3885 62.6368 76.3743 62.5317C76.3627 62.4288 76.3308 62.3293 76.2804 62.2388C76.23 62.1484 76.1621 62.0689 76.0807 62.0049C75.9992 61.941 75.9059 61.8938 75.8061 61.8662C75.7063 61.8386 75.602 61.8312 75.4993 61.8442ZM69.1556 48.2974C69.9989 48.2756 70.8296 48.5058 71.5415 48.9585C72.2533 49.4112 72.814 50.0659 73.152 50.8389C73.4899 51.6119 73.5896 52.4681 73.4385 53.2981C73.2874 54.128 72.8922 54.8941 72.3035 55.4984C71.7149 56.1027 70.9594 56.5177 70.1336 56.6904C69.3079 56.8632 68.4494 56.7858 67.6678 56.4682C66.8863 56.1506 66.2172 55.6072 65.746 54.9074C65.2749 54.2076 65.023 53.3832 65.0228 52.5395C65.0155 51.9896 65.1167 51.4437 65.3205 50.9328C65.5243 50.422 65.8267 49.9564 66.2105 49.5624C66.5943 49.1685 67.0519 48.854 67.5572 48.637C68.0625 48.4199 68.6057 48.3045 69.1556 48.2974ZM65.7025 60.6411C65.1029 61.314 64.3033 61.7768 63.4212 61.9614C62.265 62.1411 61.5228 61.6177 60.5853 60.9536C59.4461 59.9756 57.9929 59.4404 56.4915 59.4458C55.1152 59.5298 53.8088 60.081 52.7884 61.0083C51.9603 61.6489 51.3587 62.1177 50.2884 61.9849C49.4425 61.8323 48.6586 61.4389 48.0306 60.8521C47.7358 60.6139 47.428 60.3922 47.1087 60.188L54.554 54.6099C55.0865 54.2083 55.4722 53.6428 55.6515 53.0004C55.8308 52.358 55.7938 51.6745 55.5462 51.0552L51.7962 41.6333C51.7034 41.4088 51.6683 41.1646 51.6942 40.923C51.7202 40.6814 51.8063 40.4502 51.9446 40.2505C52.0579 40.0431 52.2236 39.8691 52.4251 39.7457C52.6266 39.6223 52.8569 39.554 53.0931 39.5474H66.5228C67.0283 39.5474 67.5132 39.7482 67.8707 40.1057C68.2282 40.4632 68.429 40.948 68.429 41.4536C68.429 41.9592 68.2282 42.444 67.8707 42.8015C67.5132 43.159 67.0283 43.3599 66.5228 43.3599H59.7415C59.4027 43.3609 59.0706 43.4537 58.7803 43.6284C58.4901 43.8031 58.2526 44.0532 58.0931 44.3521C57.931 44.6572 57.8542 45.0003 57.8707 45.3454C57.8872 45.6905 57.9964 46.0247 58.1868 46.313L66.9993 59.6177C66.5263 59.9037 66.0906 60.2475 65.7025 60.6411Z" fill="#114084"/>
<path d="M72.1329 67.5387C71.2243 67.6519 70.3021 67.5666 69.4297 67.2887C68.695 67.0446 68.0228 66.6418 67.461 66.109C66.9198 65.533 66.2125 65.1397 65.4376 64.984C64.0079 64.7653 63.0938 65.5778 62.3126 66.2887C61.7086 66.9617 60.9074 67.4265 60.0235 67.6169C58.8672 67.7887 58.1329 67.2653 57.1954 66.609C56.0541 65.6337 54.6029 65.0964 53.1016 65.0934C51.7245 65.1737 50.4169 65.7254 49.3985 66.6559C48.5704 67.2965 47.961 67.7575 46.8985 67.6247C46.0526 67.4721 45.2687 67.0787 44.6407 66.4919C44.1942 66.0478 43.6578 65.7044 43.0676 65.4847C42.4774 65.2651 41.847 65.1743 41.2188 65.2184C40.6393 65.2914 40.0852 65.5002 39.6016 65.8278C39.1199 66.1314 38.6128 66.3928 38.086 66.609C36.8159 67.1194 35.4745 67.4304 34.1094 67.5309C33.9022 67.5475 33.7101 67.6457 33.5753 67.8039C33.4405 67.9622 33.3741 68.1675 33.3907 68.3747C33.4073 68.5819 33.5055 68.774 33.6637 68.9088C33.8219 69.0436 34.0272 69.11 34.2344 69.0934C35.7672 68.9707 37.2719 68.6123 38.6954 68.0309C39.2978 67.7939 39.8804 67.5091 40.4376 67.1794C40.7346 66.9625 41.081 66.8229 41.4454 66.7731C42.3829 66.6559 42.9532 67.1012 43.7422 67.7106C44.5864 68.48 45.6375 68.9852 46.7657 69.1637C47.4296 69.2244 48.0988 69.1407 48.7273 68.9181C49.3557 68.6956 49.9285 68.3396 50.4063 67.8747C51.1615 67.1639 52.1377 66.7337 53.1719 66.6559C54.3282 66.6708 55.4393 67.1069 56.2969 67.8825C57.2201 68.6839 58.3815 69.1589 59.6016 69.234C59.8319 69.2343 60.0618 69.216 60.2891 69.1794C61.486 68.9553 62.5805 68.3561 63.4141 67.4684C64.1485 66.7965 64.5547 66.445 65.2266 66.5544C65.701 66.6633 66.1297 66.9172 66.4532 67.2809C67.1696 67.9617 68.0252 68.4788 68.961 68.7965C70.0496 69.1464 71.2017 69.2531 72.336 69.109C72.4386 69.0972 72.5379 69.0654 72.6281 69.0152C72.7184 68.965 72.7979 68.8976 72.8621 68.8167C72.9263 68.7358 72.974 68.6431 73.0023 68.5438C73.0307 68.4445 73.0392 68.3405 73.0274 68.2379C73.0156 68.1353 72.9837 68.0361 72.9335 67.9458C72.8834 67.8555 72.8159 67.776 72.7351 67.7118C72.6542 67.6476 72.5614 67.6 72.4621 67.5716C72.3628 67.5433 72.2589 67.5347 72.1563 67.5465L72.1329 67.5387Z" fill="#114084"/>
<path d="M39.5234 45.1887H45.6797C45.8869 45.1887 46.0856 45.1064 46.2321 44.9599C46.3786 44.8134 46.4609 44.6147 46.4609 44.4075C46.4609 44.2003 46.3786 44.0016 46.2321 43.855C46.0856 43.7085 45.8869 43.6262 45.6797 43.6262H39.5234C39.3162 43.6262 39.1175 43.7085 38.971 43.855C38.8245 44.0016 38.7422 44.2003 38.7422 44.4075C38.7422 44.6147 38.8245 44.8134 38.971 44.9599C39.1175 45.1064 39.3162 45.1887 39.5234 45.1887Z" fill="#114084"/>
<path d="M36.4766 48.2583H42.6016C42.8088 48.2583 43.0075 48.176 43.154 48.0295C43.3005 47.883 43.3828 47.6843 43.3828 47.4771C43.3828 47.2699 43.3005 47.0711 43.154 46.9246C43.0075 46.7781 42.8088 46.6958 42.6016 46.6958H36.4766C36.2694 46.6958 36.0706 46.7781 35.9241 46.9246C35.7776 47.0711 35.6953 47.2699 35.6953 47.4771C35.6953 47.6843 35.7776 47.883 35.9241 48.0295C36.0706 48.176 36.2694 48.2583 36.4766 48.2583Z" fill="#114084"/>
<path d="M44.8979 47.4771C44.8979 47.6843 44.9803 47.883 45.1268 48.0295C45.2733 48.176 45.472 48.2583 45.6792 48.2583H48.187C48.3942 48.2583 48.5929 48.176 48.7394 48.0295C48.886 47.883 48.9683 47.6843 48.9683 47.4771C48.9683 47.2699 48.886 47.0711 48.7394 46.9246C48.5929 46.7781 48.3942 46.6958 48.187 46.6958H45.6792C45.472 46.6958 45.2733 46.7781 45.1268 46.9246C44.9803 47.0711 44.8979 47.2699 44.8979 47.4771Z" fill="#114084"/>
<path d="M44.2344 51.3215C44.4416 51.3215 44.6403 51.2392 44.7868 51.0927C44.9333 50.9462 45.0156 50.7475 45.0156 50.5403C45.0156 50.3331 44.9333 50.1344 44.7868 49.9879C44.6403 49.8413 44.4416 49.759 44.2344 49.759H33.4062C33.199 49.759 33.0003 49.8413 32.8538 49.9879C32.7073 50.1344 32.625 50.3331 32.625 50.5403C32.625 50.7475 32.7073 50.9462 32.8538 51.0927C33.0003 51.2392 33.199 51.3215 33.4062 51.3215H44.2344Z" fill="#114084"/>
</svg>
