<svg width="109" height="108" viewBox="0 0 109 108" fill="none" xmlns="http://www.w3.org/2000/svg">
<rect x="2" y="1.5" width="105" height="105" rx="52.5" stroke="#114084" stroke-width="3"/>
<g clip-path="url(#clip0_5001_1730)">
<path d="M78.9325 65.3939L75.4653 66.2309C75.3902 66.2489 75.3135 66.2581 75.2364 66.2581H55.445C54.9056 66.2581 54.4684 65.8197 54.4684 65.2796V38.9304C54.4684 38.3903 54.9056 37.9519 55.445 37.9519C55.9844 37.9519 56.4216 38.3903 56.4216 38.9304V54.2209H57.3592C59.2418 54.2209 61.1197 53.8005 62.8257 53.0032L63.6569 38.873C63.6889 38.3337 64.1524 37.9213 64.6895 37.9538C65.2278 37.9855 65.6386 38.4488 65.6066 38.9881L64.7826 52.9921L71.5362 55.7869C71.7265 55.8656 71.9226 55.9245 72.1221 55.9635C72.1252 55.9642 72.1278 55.9646 72.1309 55.965C72.3209 56.0017 72.5146 56.0204 72.7107 56.0204C72.7122 56.0204 72.7138 56.0204 72.7153 56.0204L74.2122 56.0185C74.2145 56.0185 74.2168 56.0185 74.2194 56.0185C76.3656 56.0185 78.2859 57.3803 78.9989 59.4095L79.6249 61.1914C79.6619 61.2969 79.679 61.4066 79.679 61.5163C79.6794 61.5163 79.6798 61.5163 79.6802 61.5163V64.4429C79.6802 64.8951 79.3712 65.288 78.9325 65.3939ZM75.1205 64.3011L77.727 63.672V62.7818L75.5546 63.3483C75.4745 63.3693 75.3917 63.3796 75.3085 63.3796H56.4216V64.3011H75.1205ZM77.1567 60.0593C76.7184 58.8121 75.5386 57.9751 74.2194 57.9751H74.2149L72.718 57.9774H72.7107C72.57 57.9774 72.4303 57.9701 72.2911 57.9586L70.7702 59.4829C70.5794 59.6736 70.3296 59.7692 70.0797 59.7692C69.8299 59.7692 69.5796 59.6736 69.3893 59.4829C69.0078 59.1007 69.0078 58.4811 69.3893 58.0989L70.1541 57.3322L68.9349 56.8277L67.4026 58.363C67.2118 58.5541 66.962 58.6497 66.7121 58.6497C66.4622 58.6497 66.2124 58.5541 66.0216 58.363C65.6402 57.9812 65.6402 57.3616 66.0216 56.9794L66.9803 56.0189L66.0632 55.6393L64.548 57.1575C64.3573 57.3486 64.1074 57.4442 63.8576 57.4442C63.6077 57.4442 63.3578 57.3486 63.1671 57.1575C62.7856 56.7757 62.7856 56.1561 63.1671 55.7739L64.1086 54.8306L63.8053 54.7048C61.8014 55.6695 59.5828 56.1779 57.3592 56.1779H56.4216V61.4227H75.1838L77.4299 60.8371L77.1567 60.0593Z" fill="#114084"/>
<path d="M53.0661 65.6428C53.0455 65.7525 53.0059 65.8564 52.9513 65.9512C52.9513 65.9512 52.9517 65.9516 52.9521 65.9516L51.4914 68.4861C51.3136 68.7949 50.9879 68.9757 50.6457 68.9757C50.5538 68.9757 50.4607 68.9623 50.3691 68.9356L46.9489 67.9231C46.8752 67.9013 46.8039 67.8707 46.7375 67.8321L30.9519 58.7002C30.3641 58.3604 29.9437 57.8116 29.7682 57.1549C29.5927 56.4983 29.6828 55.8122 30.0219 55.2236L30.6765 54.0876L34.2295 47.9221L39.1177 34.7739C39.3057 34.2674 39.868 34.0098 40.3735 34.1986C40.8789 34.3871 41.136 34.9504 40.948 35.4569L36.3192 47.9064L37.2618 48.4515C38.8602 49.376 40.6561 49.9486 42.4925 50.1252L47.6496 38.533C47.8694 38.0395 48.4465 37.8174 48.939 38.0376C49.4315 38.2578 49.6531 38.8361 49.4334 39.3299L44.2347 51.0158L48.7582 56.9103C48.8829 57.0724 49.0218 57.2207 49.1736 57.3537C49.1778 57.3567 49.1816 57.3598 49.1854 57.3632C49.3327 57.4905 49.4917 57.6044 49.6626 57.7026L50.96 58.451C52.8227 59.525 53.8088 61.6693 53.4129 63.786L53.0661 65.6428ZM31.6546 56.6485C31.6954 56.8002 31.7923 56.9271 31.9285 57.0058L47.6134 66.0793L50.1849 66.8403L50.6289 66.0693L48.4652 65.4716C48.3851 65.449 48.308 65.4169 48.2363 65.3756L31.8796 55.9135L31.7133 56.202C31.6347 56.3381 31.6141 56.4967 31.6546 56.6485ZM49.9861 60.1473L48.6888 59.3989C48.5644 59.3274 48.4446 59.2502 48.3279 59.1692L46.2504 59.7268C46.1657 59.7498 46.0806 59.7605 45.9971 59.7605C45.5657 59.7605 45.1712 59.4723 45.0541 59.035C44.9145 58.5133 45.2239 57.9767 45.7449 57.8368L46.7902 57.5562L45.9857 56.5082L43.8925 57.0701C43.8078 57.093 43.7228 57.1041 43.6392 57.1041C43.2082 57.1041 42.8133 56.8155 42.6966 56.3783C42.557 55.8565 42.866 55.3199 43.3871 55.18L44.6967 54.8284L44.0917 54.0406L42.0218 54.5964C41.9371 54.6189 41.852 54.63 41.7685 54.63C41.3374 54.63 40.9426 54.3414 40.8259 53.9042C40.6863 53.3824 40.9953 52.8458 41.5163 52.7059L42.8027 52.3608L42.6024 52.1001C40.3857 51.9319 38.2109 51.2604 36.2849 50.1462L35.4731 49.6765L32.8558 54.2187L49.1046 63.6182L51.3415 64.2362L51.4933 63.4256C51.7367 62.1245 51.1309 60.8074 49.9861 60.1473Z" fill="#114084"/>
<path d="M69.0684 70.3313H78.7036C79.243 70.3313 79.6802 70.7697 79.6802 71.3098C79.6802 71.8502 79.243 72.2882 78.7036 72.2882H69.0684C68.529 72.2882 68.0919 71.8502 68.0919 71.3098C68.0919 70.7697 68.529 70.3313 69.0684 70.3313Z" fill="#114084"/>
<path d="M64.1538 70.3313C64.4105 70.3313 64.6623 70.436 64.8443 70.618C65.0258 70.7999 65.1304 71.0522 65.1304 71.3098C65.1304 71.567 65.0258 71.8196 64.8443 72.0016C64.6623 72.1835 64.4105 72.2882 64.1538 72.2882C63.8967 72.2882 63.6449 72.1835 63.4633 72.0016C63.2818 71.8196 63.1772 71.567 63.1772 71.3098C63.1772 71.0522 63.2818 70.7999 63.4633 70.618C63.6449 70.436 63.8967 70.3313 64.1538 70.3313Z" fill="#114084"/>
<path d="M30.6612 68.0723H40.2964C40.8358 68.0723 41.2729 68.5107 41.2729 69.0507C41.2729 69.5912 40.8358 70.0292 40.2964 70.0292H30.6612C30.1218 70.0292 29.6846 69.5912 29.6846 69.0507C29.6846 68.5107 30.1218 68.0723 30.6612 68.0723Z" fill="#114084"/>
<path d="M45.046 71.9949H54.6812C55.2206 71.9949 55.6577 72.4333 55.6577 72.9733C55.6577 73.5138 55.2206 73.9518 54.6812 73.9518H45.046C44.5066 73.9518 44.0694 73.5138 44.0694 72.9733C44.0694 72.4333 44.5066 71.9949 45.046 71.9949Z" fill="#114084"/>
</g>
<defs>
<clipPath id="clip0_5001_1730">
<rect width="50" height="50" fill="white" transform="matrix(-1 0 0 1 79.6802 29)"/>
</clipPath>
</defs>
</svg>
