<svg width="109" height="108" viewBox="0 0 109 108" fill="none" xmlns="http://www.w3.org/2000/svg">
<rect x="2" y="1.5" width="105" height="105" rx="52.5" stroke="#114084" stroke-width="3"/>
<path d="M55.7036 70.9833L55.707 68.9909C55.6979 68.8943 55.7059 68.777 55.7283 68.6828C56.1744 66.8283 54.4597 64.1253 53.7612 63.2401C53.5514 62.9745 53.5117 62.6124 53.6595 62.3077C53.8066 62.0041 54.1153 61.8098 54.4539 61.8098H55.5208C57.7708 61.8098 59.6017 63.6413 59.6017 65.8913C59.6017 66.3788 59.2067 66.7743 58.7187 66.7743C58.2312 66.7743 57.8356 66.3788 57.8356 65.8913C57.8356 64.8358 57.1263 63.9437 56.1588 63.6655C56.9556 65.0405 57.8667 67.125 57.4694 68.9886V70.9833C57.4694 72.2342 57.9575 73.4126 58.8428 74.2991C59.7274 75.1843 60.9054 75.6718 62.1585 75.6718H66.5262C67.0137 75.6718 67.4092 76.0673 67.4092 76.5548C67.4092 77.0423 67.0137 77.4378 66.5262 77.4378H62.1585C60.4334 77.4378 58.8123 76.7665 57.5937 75.5477C56.375 74.3265 55.7036 72.7055 55.7036 70.9833Z" fill="#114084"/>
<path d="M60.8525 72.1066C60.365 72.1066 59.9695 71.7111 59.9695 71.2235V66.7478C59.9695 65.2716 60.5443 63.8839 61.5877 62.8411L64.8138 59.6151C65.2403 59.1885 65.5944 58.6964 65.8657 58.1561L67.504 54.8806L69.4993 50.2059C69.6437 49.8701 69.9822 49.6357 70.3478 49.6713C70.7146 49.6862 71.0336 49.9254 71.1491 50.2737L71.8412 52.3489C72.0567 52.995 72.6058 53.4791 73.2731 53.6136L77.0194 54.362C77.4321 54.4448 77.73 54.8069 77.73 55.2277V56.5706C77.73 57.3029 77.4448 57.9905 76.927 58.509C76.409 59.0252 75.7209 59.3104 74.9892 59.3104H74.1211L73.406 60.3818C72.9023 61.1384 72.9023 62.1145 73.406 62.8709C74.1717 64.0183 74.3896 65.437 74.005 66.7615L73.3727 68.9402C73.2364 69.4093 72.7473 69.6807 72.2781 69.5415C71.8102 69.4059 71.5406 68.9161 71.6769 68.4482L72.3092 66.2694C72.5483 65.4451 72.4127 64.5645 71.9367 63.8505C71.5746 63.3067 71.3653 62.6983 71.2946 62.0778L66.7866 60.0125C66.5659 60.3126 66.3268 60.599 66.0623 60.8636L62.8362 64.0897C62.1263 64.799 61.7353 65.743 61.7353 66.7478V71.2235C61.7354 71.7111 61.3399 72.1066 60.8525 72.1066ZM72.9141 57.9376C73.0779 57.6916 73.3532 57.5444 73.6487 57.5444H74.9893C75.2502 57.5444 75.4951 57.4433 75.6791 57.2593C75.8602 57.0788 75.9643 56.827 75.9643 56.5706V55.9521L72.9268 55.345C71.6845 55.0955 70.6556 54.2172 70.2111 53.0364L69.1062 55.6221L67.6783 58.4791L71.5212 60.2399C71.6287 59.9504 71.7604 59.6673 71.9368 59.4023L72.9141 57.9376Z" fill="#114084"/>
<path d="M66.5558 71.393C65.9988 70.7009 65.0169 70.4847 64.2121 70.8883L64.1018 70.9423C63.666 71.163 63.1355 70.9883 62.9153 70.5537C62.695 70.1192 62.8693 69.588 63.3038 69.3672L63.4315 69.3039C64.2834 68.878 65.2422 68.8283 66.1143 69.0866L65.6468 66.9396C65.5431 66.4631 65.8453 65.9928 66.3219 65.8892C66.7982 65.7858 67.2681 66.0878 67.3718 66.564L68.0785 69.8095C68.0975 69.8786 68.1165 69.9476 68.1355 70.0167L69.798 75.0042C69.9305 75.4018 70.3025 75.6699 70.7215 75.6699H71.1529L70.8189 75.0019C70.7398 74.8437 70.672 74.68 70.616 74.5122L69.8744 72.2887C69.6679 71.6694 69.5729 71.0182 69.5939 70.3656L69.676 67.8102C69.6916 67.3228 70.0995 66.9405 70.5869 66.9563H70.5877C71.0748 66.9721 71.457 67.3798 71.4412 67.867L71.3588 70.4204C71.3445 70.8648 71.4091 71.3081 71.5496 71.7299L72.2914 73.9554C72.3255 74.0376 72.3594 74.1196 72.3935 74.2018L73.3718 76.1585C73.5086 76.4322 73.4937 76.7564 73.3327 77.0173C73.1718 77.2772 72.8878 77.4358 72.582 77.4358H70.7225C69.5428 77.4358 68.4953 76.6809 68.1223 75.5617L66.8582 71.7703L66.5558 71.393Z" fill="#114084"/>
<path d="M54.2973 31.7627L59.9596 49.4738C60.1424 50.0498 60.043 50.6604 59.6866 51.1478C59.3291 51.6353 58.7766 51.9157 58.1712 51.9157H53.3741C53.7431 53.0767 53.7483 54.3393 53.3511 55.5626C53.1402 56.2107 52.8274 56.8052 52.4348 57.3349V76.2606C52.4348 76.7481 52.0399 77.1437 51.5518 77.1437C51.0643 77.1437 50.6688 76.7481 50.6688 76.2606V58.9363C49.6381 59.5772 48.4223 59.9545 47.1209 59.9545H43.8798V76.2572C43.8798 76.7447 43.4849 77.1402 42.9968 77.1402C42.5093 77.1402 42.1138 76.7447 42.1138 76.2572V59.9545H36.4039C33.8802 59.9545 31.6981 58.1494 31.3285 55.7546C31.1072 54.3255 31.5199 52.8769 32.4603 51.7801C33.3887 50.6959 34.7275 50.0751 36.1325 50.0751H36.1371C36.1365 50.051 36.1359 50.0279 36.1359 50.0062C36.1359 47.002 38.5761 44.5589 41.5763 44.5589C42.641 44.5589 43.6452 44.8745 44.4995 45.4185L48.8689 31.7593C49.2583 30.5578 50.324 29.7817 51.583 29.7817C52.8419 29.7817 53.9071 30.5578 54.2973 31.7627ZM37.9021 50.0062C37.9021 50.0786 37.9096 50.1717 37.9188 50.2671C37.9556 50.6614 37.8268 51.0558 37.5653 51.3513C37.3048 51.6456 36.9306 51.8215 36.5403 51.833C36.3851 51.8376 36.235 51.841 36.1327 51.841C35.244 51.841 34.3937 52.2377 33.8016 52.9286C33.1968 53.6346 32.9313 54.5658 33.0739 55.4855C33.3119 57.0262 34.7432 58.1885 36.404 58.1885H42.1139V57.0033L39.6542 54.5428C39.3092 54.1979 39.3092 53.6391 39.6542 53.2942C39.9985 52.9493 40.5579 52.9493 40.9027 53.2942L42.1139 54.5058V51.8904C42.1139 51.4029 42.5094 51.0074 42.9969 51.0074C43.485 51.0074 43.8799 51.4029 43.8799 51.8904V55.3076L44.7267 54.4611C45.0716 54.1162 45.6304 54.1162 45.9753 54.4611C46.3201 54.8061 46.3202 55.3648 45.9753 55.7097L43.8799 57.8044V58.1884H47.121C49.1933 58.1884 51.0644 56.8847 51.6714 55.0175C52.0934 53.7184 51.8893 52.3594 51.1116 51.289C50.355 50.2484 49.1491 49.6265 47.8861 49.6265C47.4458 49.6265 47.075 49.6655 46.7553 49.746C46.0396 49.923 45.2952 49.5218 45.0607 48.8239C44.5588 47.3293 43.1586 46.3245 41.5765 46.3245C39.5502 46.3248 37.9021 47.9758 37.9021 50.0062ZM51.583 31.5477C51.3979 31.5477 50.7764 31.6028 50.55 32.3007L45.9288 46.7479C46.207 47.12 46.4484 47.5239 46.6266 47.9677C47.0088 47.8952 47.424 47.8607 47.8861 47.8607C48.8697 47.8607 49.8239 48.1271 50.6689 48.6V47.5405L48.5885 45.4602C48.2436 45.1152 48.2436 44.5564 48.5879 44.2116C48.9329 43.8667 49.4917 43.8667 49.8371 44.2116L50.6689 45.0438V41.8686C50.6689 41.3811 51.0644 40.9855 51.5519 40.9855C52.04 40.9855 52.4349 41.3811 52.4349 41.8686V44.0729L53.0391 43.4689C53.384 43.124 53.9433 43.124 54.2877 43.4689C54.6326 43.8139 54.6326 44.3727 54.2877 44.7175L52.4349 46.5704V50.1234C52.4424 50.1326 52.4499 50.1407 52.4568 50.1499H58.1712L58.277 50.0097L52.6165 32.3042C52.3888 31.6028 51.768 31.5477 51.583 31.5477Z" fill="#114084"/>
</svg>
