<svg width="109" height="108" viewBox="0 0 109 108" fill="none" xmlns="http://www.w3.org/2000/svg">
<rect x="2" y="1.5" width="105" height="105" rx="52.5" stroke="#114084" stroke-width="3"/>
<path fill-rule="evenodd" clip-rule="evenodd" d="M64.208 66.4674C63.6554 65.7389 62.7022 65.2394 61.4487 64.589C62.2937 64.5318 63.1694 63.4547 64.053 61.3838C64.387 60.6033 65.4282 57.9704 64.8434 56.8829C63.8917 55.1138 61.3577 54.6403 59.5594 54.4009C59.7587 54.0054 59.882 53.5632 59.9059 53.0949H62.5976C62.8676 53.0949 63.1122 52.9388 63.2225 52.6891L64.5754 49.6451L67.5163 57.2055C67.7305 57.7542 68.4914 57.7963 68.7609 57.2732L70.9192 53.0949H73.011C71.349 57.986 68.3207 62.5857 64.208 66.4674ZM60.1967 63.5171C59.8896 62.5296 60.3332 60.8637 60.6286 59.5574C60.2769 59.6147 59.8554 59.6303 59.3767 59.547L57.9989 62.7991L60.4549 64.0739C60.3565 63.9334 60.268 63.7512 60.1967 63.5171ZM62.6267 73.8353C61.9768 73.3306 62.0002 72.8727 62.1355 72.5761C62.4269 71.9413 62.8463 70.833 63.1257 69.7975C63.4129 68.7326 63.5299 67.8997 63.1512 67.3467C62.7974 66.8263 61.9851 66.4049 60.754 65.7701L56.8073 63.72C56.4909 63.5535 56.3541 63.1736 56.4935 62.8458L58.3454 58.475C58.4838 58.1472 58.8506 57.9807 59.1889 58.0899C60.1739 58.4177 60.8498 58.1003 61.1042 57.9858C61.7989 57.6675 62.2544 58.1595 62.1828 58.6831C62.0499 59.8067 61.2729 62.2497 61.4944 63.0851C61.7722 62.7989 62.2582 62.1017 62.7942 60.8477C63.506 59.1827 63.7422 57.8298 63.635 57.5228C62.9102 56.196 60.2669 55.8681 58.8454 55.686L58.4541 55.6548C57.9306 56.0086 57.3015 56.2115 56.6246 56.2115C54.8139 56.2115 53.3403 54.739 53.3403 52.9282C53.3403 52.8124 53.3488 52.8394 53.2836 52.6888L53.0786 52.1216C52.6389 50.7583 52.3964 50.009 52.4594 49.3274C52.527 48.5989 52.9183 48.1098 53.5667 47.3033L56.2209 43.9003C56.3931 43.6818 56.6825 43.5881 56.9515 43.6662C57.1043 43.6879 57.5881 43.1769 57.605 42.766C57.6118 42.6099 57.6701 42.4642 57.771 42.3445C58.538 41.4599 58.7768 40.6846 58.6129 40.4089C58.5073 40.2268 58.4375 40.1955 58.4365 40.1955C58.1648 40.1955 57.3571 41.0758 57.0509 41.3715C55.8656 42.511 54.1865 44.1709 51.6993 46.9234C51.0423 47.6464 50.2939 48.4262 50.1643 48.8174C50.0816 49.0671 50.1633 49.4054 50.373 50.2119C51.2419 53.5407 52.0036 58.122 51.7009 61.8205C51.589 63.1942 49.2205 65.0778 45.305 67.924L44.1343 68.7721C41.67 70.5517 39.1209 72.3936 37.9684 73.6424C37.9569 73.658 37.8549 73.7673 37.8909 73.8245C37.9768 73.965 38.4654 74.1575 39.429 73.8765C40.6247 73.5283 44.6621 70.5855 47.2137 69.7346C51.3873 68.3453 53.3963 67.0601 54.2215 66.4201C54.4333 66.2536 54.7194 66.2276 54.9562 66.3524C56.0647 66.9293 58.7114 67.5005 60.3182 67.9446C60.5737 68.0175 60.7657 68.2256 60.8115 68.4858C61.1071 70.1634 60.9224 71.4531 60.5524 73.0023C60.464 73.3717 60.3838 73.715 60.3526 73.9961C61.176 74.1579 62.3493 74.2994 63.2633 74.2667C63.0341 74.1267 62.8109 73.981 62.6267 73.8353ZM54.3336 73.3097C52.6639 72.4095 51.0696 71.4157 49.5731 70.3438C52.2653 69.3083 53.8575 68.3613 54.7207 67.7525C55.9714 68.2829 57.9459 68.7315 59.528 69.1522C59.5738 69.5217 59.5909 69.8703 59.5884 70.2033C57.9463 71.3377 56.1813 72.3835 54.3336 73.3097ZM36.3421 53.0949H38.8563C39.1269 53.0949 39.3714 52.9388 39.4812 52.6891L40.8346 49.6451L43.775 57.2055C43.9893 57.7546 44.7508 57.796 45.0201 57.2732L47.179 53.0949H49.6318C50.0731 55.3427 50.5809 58.7509 50.3374 61.7116C50.3301 61.8053 50.1922 62.3516 48.2373 63.9751C47.3069 64.7504 46.1549 65.6141 44.9535 66.4883C40.9226 62.5649 37.9671 57.9652 36.3421 53.0949ZM56.6246 51.0083C57.6824 51.0083 58.5425 51.8721 58.5425 52.9283C58.5425 53.9846 57.6824 54.8431 56.6246 54.8431C55.5678 54.8431 54.7082 53.9846 54.7082 52.9283C54.7083 51.8721 55.5679 51.0083 56.6246 51.0083ZM36.1418 39.0407C34.6901 42.4229 34.6136 47.0382 35.9233 51.7316H38.412L40.2519 47.5898C40.4969 47.0361 41.2947 47.0528 41.5142 47.621L44.5004 55.3011L46.1551 52.1011C46.2722 51.8721 46.5068 51.7317 46.7629 51.7317H49.3411C49.2334 51.2634 49.133 50.8784 49.0492 50.5558C48.801 49.6036 48.6517 49.0312 48.8666 48.386C49.0997 47.6866 49.8194 46.9639 50.6841 46.0081C53.2009 43.2191 54.9014 41.5384 56.1023 40.3833C56.1975 40.2948 56.2959 40.1908 56.3963 40.0919C57.028 39.4571 57.744 38.7339 58.6108 38.8379C59.0853 38.9003 59.4808 39.1917 59.7888 39.7068C60.3024 40.5757 59.9933 41.7933 58.9438 43.0785C58.8361 43.6821 58.4396 44.3221 57.9208 44.6967C57.6523 44.8892 57.3646 45.0037 57.0789 45.0297L54.6323 48.1621C54.0526 48.8802 53.8502 49.1455 53.8216 49.4525C53.7961 49.7335 53.8965 50.1497 54.1026 50.8262C55.7074 48.8999 58.771 49.4091 59.6831 51.7316H62.1526L63.9925 47.5898C64.2398 47.0308 65.0358 47.0558 65.2548 47.621L68.242 55.3011L69.8888 52.1115C70.0142 51.8786 70.2533 51.7108 70.5179 51.7317H73.4369C74.6654 47.3765 74.6789 43.0838 73.4525 39.8265C72.0023 35.9708 69.0573 33.9207 65.1579 34.0612C62.6229 34.1497 59.4415 35.565 55.1472 38.5101C54.9084 38.6714 54.592 38.6662 54.3579 38.4997C50.0886 35.3881 46.9078 33.8792 44.3462 33.7439C40.6057 33.5408 37.6918 35.4244 36.1418 39.0407ZM76.5648 51.7316H74.8493C76.0996 47.059 75.9857 42.6778 74.7327 39.3425C73.0838 34.9613 69.5762 32.5366 65.1097 32.6927C62.3863 32.7916 59.0942 34.1964 54.7728 37.1103C50.4717 34.0299 47.1733 32.521 44.4192 32.3753C42.2078 32.2608 40.2368 32.7656 38.5634 33.8895C36.98 34.9509 35.7422 36.5015 34.8847 38.4996C33.3273 42.1315 33.1978 46.8093 34.5054 51.7316H32.795C32.4172 51.7316 32.1113 52.0334 32.1113 52.4132C32.1113 52.793 32.4173 53.0948 32.795 53.0948H34.9044C36.5434 58.2617 39.6124 63.1476 43.8317 67.305C41.2073 69.1912 38.2751 71.2915 36.9628 72.7164C36.4643 73.2576 36.3727 73.9756 36.7281 74.548C37.1199 75.1776 38.1361 75.6823 39.8131 75.188C41.3344 74.7399 45.242 71.8216 47.6462 71.0358C47.7753 70.9942 47.9006 70.9473 48.025 70.9057C49.8753 72.295 51.8833 73.5646 54.0031 74.6833C54.1922 74.7827 54.4321 74.7885 54.6238 74.6937C56.28 73.8768 57.8733 72.9714 59.3797 71.988C59.1926 72.8854 58.8636 73.8568 59.0092 74.6573C59.0529 74.8966 59.2251 75.0996 59.4588 75.1776C60.1023 75.3982 61.8379 75.6407 62.9669 75.6407C64.5409 75.6407 65.0248 75.2452 65.2517 74.933C65.3761 74.7613 65.4218 74.548 65.3787 74.3398C65.2457 73.6905 64.2085 73.308 63.5284 72.8048C64.0814 71.4974 64.8688 69.2675 64.7303 67.8461C69.6937 63.2984 72.8444 58.0795 74.447 53.0947H76.5648C76.942 53.0947 77.2485 52.7929 77.2485 52.4131C77.2485 52.0334 76.942 51.7316 76.5648 51.7316Z" fill="#114084"/>
</svg>
