<svg width="109" height="108" viewBox="0 0 109 108" fill="none" xmlns="http://www.w3.org/2000/svg">
<rect x="2" y="1.5" width="105" height="105" rx="52.5" stroke="#114084" stroke-width="3"/>
<path d="M33.6662 58.4609C32.4541 58.4609 31.4692 57.5518 31.4692 56.4912C31.4692 55.3548 32.3783 54.5215 33.6662 54.5215C34.9541 54.5215 35.8632 55.3548 35.8632 56.4912C35.8632 57.6275 34.9541 58.4609 33.6662 58.4609ZM33.6662 56.0366C33.2874 56.0366 32.9844 56.2639 32.9844 56.4912C32.9844 56.7185 33.2874 56.9457 33.6662 56.9457C34.045 56.9457 34.348 56.7185 34.348 56.4912C34.348 56.2639 34.045 56.0366 33.6662 56.0366Z" fill="#114084"/>
<path d="M55.6353 61.9453C51.7717 61.9453 48.5898 58.7635 48.5898 54.8999V52.2484C48.5898 51.7938 48.8929 51.4908 49.3474 51.4908C49.802 51.4908 50.105 51.7938 50.105 52.2484V54.8999C50.105 57.9302 52.605 60.4302 55.6353 60.4302C58.6656 60.4302 61.1656 57.9302 61.1656 54.8999L61.0898 51.415C61.0898 50.9605 61.3929 50.6575 61.8474 50.6575C62.2262 50.6575 62.605 50.9605 62.605 51.415L62.6808 54.8999C62.6808 58.7635 59.4989 61.9453 55.6353 61.9453Z" fill="#114084"/>
<path d="M64.424 77.8548H46.7725C44.4997 77.8548 42.7573 76.1124 42.7573 73.8397V72.7791C42.7573 71.1124 43.2876 69.4457 44.3482 68.0821C45.4088 66.7185 46.924 65.8094 48.5149 65.3548H48.6664C49.5755 65.3548 50.4088 64.9003 50.9391 64.1427C51.2422 63.6882 51.3937 63.1578 51.3937 62.7033V60.2791C51.3937 59.8245 51.6967 59.5215 52.1513 59.5215C52.6058 59.5215 52.9088 59.8245 52.9088 60.2791V62.7033C52.9088 63.5366 52.6058 64.37 52.1513 65.0518C51.3937 66.1882 50.1058 66.87 48.7422 66.87C47.5301 67.173 46.3937 67.9306 45.4846 68.9912C44.6513 70.1275 44.1967 71.4154 44.1967 72.7791V73.8397C44.1967 75.2791 45.2573 76.3397 46.6967 76.3397H64.3482C65.7876 76.3397 66.8482 75.2791 66.8482 73.8397V72.7791C66.8482 71.4154 66.3937 70.1275 65.5604 68.9912C64.8028 67.9306 63.6664 67.2488 62.3785 66.87C61.0149 66.87 59.8785 66.1882 58.9694 65.0518C58.5149 64.37 58.2119 63.5366 58.2119 62.7033V60.2791C58.2119 59.8245 58.5149 59.5215 58.9694 59.5215C59.424 59.5215 59.727 59.8245 59.727 60.2791V62.7033C59.727 63.2336 59.8785 63.7639 60.1816 64.1427C60.5604 64.673 61.3179 65.3548 62.4543 65.3548H62.6058C64.2725 65.8094 65.7119 66.7185 66.7725 68.0821C67.8331 69.4457 68.3634 71.1124 68.3634 72.7791V73.8397C68.4391 76.1124 66.6967 77.8548 64.424 77.8548Z" fill="#114084"/>
<path d="M52.302 53.7623C51.2414 53.7623 50.105 53.535 48.9686 52.9289C48.7414 52.7774 48.5898 52.5501 48.5898 52.2471C48.5898 48.3835 51.7717 45.2017 55.6353 45.2017C59.4989 45.2017 62.6808 48.3835 62.6808 52.2471C62.6808 52.4744 62.605 52.7017 62.3777 52.8532C62.1505 53.0047 61.9989 53.0804 61.7717 53.0047L57.8323 52.0956C57.7565 52.0956 57.302 52.3229 56.9989 52.4744C55.9383 53.0047 54.1959 53.7623 52.302 53.7623ZM50.105 51.7926C52.5292 52.9289 54.802 51.7926 56.3171 51.1108C56.9989 50.8077 57.5292 50.5804 57.908 50.5804H57.9838L61.0141 51.2623C60.5595 48.6865 58.2868 46.7168 55.5595 46.7168C52.7565 46.7168 50.3323 48.9895 50.105 51.7926Z" fill="#114084"/>
<path d="M55.6358 67.7017C54.9539 67.7017 54.1964 67.4744 53.5903 67.0199L51.0903 65.2017C50.7873 64.9744 50.7115 64.4441 50.9388 64.1411C51.1661 63.8381 51.6964 63.7623 51.9994 63.9896L54.4994 65.8077C55.1812 66.3381 56.1661 66.3381 56.8479 65.8077L59.3479 63.9896C59.6509 63.7623 60.1812 63.8381 60.4085 64.1411C60.6358 64.4441 60.56 64.9744 60.257 65.2017L57.757 67.0199C57.1509 67.4744 56.3933 67.7017 55.6358 67.7017Z" fill="#114084"/>
<path d="M55.636 41.3385C55.4845 41.3385 55.333 41.2628 55.1814 41.187C55.0299 41.0355 54.8784 40.8082 54.8784 40.581V32.1719C54.8784 31.7931 55.1057 31.49 55.4845 31.4143L63.8178 29.3688C64.0451 29.2931 64.2724 29.3688 64.4996 29.5203C64.6511 29.6719 64.8027 29.8991 64.8027 30.1264V38.4597C64.8027 38.8385 64.5754 39.1416 64.1966 39.2173L55.8633 41.3385C55.7875 41.3385 55.7118 41.3385 55.636 41.3385ZM56.3936 32.7779V39.5961L63.2118 37.8537V31.1113L56.3936 32.7779Z" fill="#114084"/>
<path d="M55.6358 41.3381C55.5601 41.3381 55.4843 41.3381 55.4843 41.3381L47.151 39.2169C46.848 39.1411 46.5449 38.8381 46.5449 38.4593V30.126C46.5449 29.8987 46.6207 29.6714 46.848 29.5199C46.9995 29.3684 47.2267 29.3684 47.454 29.3684L55.7873 31.4139C56.0904 31.4896 56.3934 31.7927 56.3934 32.1714V40.5805C56.3934 40.8078 56.3176 41.0351 56.0904 41.1866C55.9389 41.2623 55.7873 41.3381 55.6358 41.3381ZM48.0601 37.8533L54.8783 39.5957V32.7775L48.0601 31.1108V37.8533Z" fill="#114084"/>
<path d="M35.1062 56.8682C34.6517 56.8682 34.3486 56.5652 34.3486 56.1107V50.0501C34.3486 49.747 34.5759 49.444 34.8789 49.2925L40.8638 47.4743C41.0911 47.3985 41.3183 47.4743 41.5456 47.6258C41.7729 47.7773 41.8486 48.0046 41.8486 48.2319V54.2925C41.8486 54.747 41.5456 55.0501 41.0911 55.0501C40.6365 55.0501 40.3335 54.747 40.3335 54.2925V49.2167L35.8638 50.5804V56.1107C35.8638 56.5652 35.5608 56.8682 35.1062 56.8682Z" fill="#114084"/>
<path d="M39.6511 56.716C38.4389 56.716 37.4541 55.8069 37.4541 54.7463C37.4541 53.6099 38.3632 52.7766 39.6511 52.7766C40.8632 52.7766 41.848 53.6857 41.848 54.7463C41.848 55.8827 40.939 56.716 39.6511 56.716ZM39.6511 54.2918C39.2723 54.2918 38.9693 54.519 38.9693 54.7463C38.9693 54.9736 39.2723 55.2009 39.6511 55.2009C40.0299 55.2009 40.3329 54.9736 40.3329 54.7463C40.3329 54.519 40.0299 54.2918 39.6511 54.2918Z" fill="#114084"/>
<path d="M76.6962 57.7011H68.5144C68.0599 57.7011 67.7568 57.398 67.7568 56.9435V49.0647C67.7568 48.6102 68.0599 48.3071 68.5144 48.3071H76.6962C77.1508 48.3071 77.4538 48.6102 77.4538 49.0647V56.9435C77.4538 57.398 77.1508 57.7011 76.6962 57.7011ZM69.272 56.1859H75.9387V49.8223H69.272V56.1859Z" fill="#114084"/>
<path d="M71.242 55.3541C71.0904 55.3541 70.9389 55.3541 70.8632 55.2783C70.6359 55.1268 70.4844 54.8995 70.4844 54.5965V51.3389C70.4844 51.0359 70.6359 50.8086 70.8632 50.6571C71.0904 50.5056 71.3935 50.5056 71.6207 50.6571L74.8026 52.3238C75.0298 52.4753 75.1813 52.7025 75.1813 53.0056C75.1813 53.3086 75.0298 53.5359 74.7268 53.6874L71.545 55.2783C71.4692 55.3541 71.3935 55.3541 71.242 55.3541ZM71.9995 52.6268V53.3844L72.7571 53.0056L71.9995 52.6268Z" fill="#114084"/>
<path d="M36.9239 47.0975C36.8482 47.0975 36.7724 47.0975 36.6967 47.0975C36.3179 46.946 36.0906 46.5672 36.1664 46.1884C37.3027 42.0975 39.8785 38.4612 43.4391 36.0369C43.8179 35.8097 44.2724 35.8854 44.4997 36.1884C44.727 36.5672 44.6512 37.0218 44.3482 37.2491C41.0906 39.5218 38.7421 42.8551 37.6815 46.643C37.53 46.8703 37.227 47.0975 36.9239 47.0975Z" fill="#114084"/>
<path d="M45.863 68.309C45.7114 68.309 45.6357 68.309 45.4842 68.2332C41.8478 66.3393 38.8175 63.1574 37.1508 59.3696C36.9993 58.9908 37.1508 58.5362 37.5296 58.3847C37.9084 58.2332 38.363 58.3847 38.5145 58.7635C40.1054 62.2484 42.8327 65.1271 46.2417 66.8696C46.6205 67.0968 46.772 67.5514 46.5448 67.8544C46.3933 68.1574 46.166 68.309 45.863 68.309Z" fill="#114084"/>
<path d="M64.3482 67.6256C64.1209 67.6256 63.8179 67.4741 63.7421 67.2469C63.5148 66.8681 63.5906 66.4135 63.9694 66.1862C66.6209 64.5196 68.7421 62.0953 70.1057 59.3681C70.2572 58.9893 70.7118 58.8378 71.0906 59.065C71.4694 59.2166 71.6209 59.6711 71.3936 60.0499C69.8785 63.0044 67.53 65.6559 64.6512 67.4741C64.6512 67.5499 64.4997 67.6256 64.3482 67.6256Z" fill="#114084"/>
<path d="M71.9994 46.716C71.6964 46.716 71.3933 46.4887 71.2418 46.1857C70.4085 43.5342 68.8933 41.0342 66.8479 39.0645C66.5448 38.7615 66.5448 38.3069 66.8479 38.0039C67.1509 37.7009 67.6055 37.7009 67.9085 38.0039C70.0297 40.1251 71.6964 42.8524 72.6055 45.7312C72.757 46.1099 72.5297 46.5645 72.1509 46.716C72.1509 46.716 72.0752 46.716 71.9994 46.716Z" fill="#114084"/>
<path d="M48.136 77.8533C47.6814 77.8533 47.3784 77.5502 47.3784 77.0957V72.626C47.3784 72.1714 47.6814 71.8684 48.136 71.8684C48.5905 71.8684 48.8936 72.1714 48.8936 72.626V77.0957C48.8936 77.5502 48.5905 77.8533 48.136 77.8533Z" fill="#114084"/>
<path d="M63.136 77.8533C62.6814 77.8533 62.3784 77.5502 62.3784 77.0957V72.626C62.3784 72.1714 62.6814 71.8684 63.136 71.8684C63.5905 71.8684 63.8936 72.1714 63.8936 72.626V77.0957C63.8936 77.5502 63.5905 77.8533 63.136 77.8533Z" fill="#114084"/>
</svg>
