<svg width="109" height="108" viewBox="0 0 109 108" fill="none" xmlns="http://www.w3.org/2000/svg">
<rect x="2" y="1.5" width="105" height="105" rx="52.5" stroke="#114084" stroke-width="3"/>
<g clip-path="url(#clip0_5001_1721)">
<path d="M72.4688 50.0942H71.6875C71.0661 50.0949 70.4704 50.3421 70.031 50.7815C69.5916 51.2208 69.3444 51.8166 69.3438 52.438V54.7817H39.6562V52.438C39.6556 51.8166 39.4084 51.2208 38.969 50.7815C38.5296 50.3421 37.9339 50.0949 37.3125 50.0942H36.5312C35.9099 50.0949 35.3141 50.3421 34.8747 50.7815C34.4353 51.2208 34.1882 51.8166 34.1875 52.438V72.3599C34.1882 72.9813 34.4353 73.577 34.8747 74.0164C35.3141 74.4558 35.9099 74.7029 36.5312 74.7036H39.5934L37.4838 77.3407C37.4191 77.4208 37.3708 77.5128 37.3417 77.6115C37.3127 77.7103 37.3035 77.8138 37.3146 77.9161C37.3257 78.0185 37.3569 78.1176 37.4064 78.2078C37.4559 78.298 37.5228 78.3776 37.6032 78.4419C37.6836 78.5062 37.7759 78.5539 37.8748 78.5825C37.9737 78.611 38.0772 78.6196 38.1795 78.608C38.2818 78.5963 38.3807 78.5646 38.4707 78.5146C38.5607 78.4645 38.6398 78.3972 38.7037 78.3165L41.594 74.7036H67.406L70.2963 78.3165C70.3601 78.3972 70.4393 78.4645 70.5293 78.5146C70.6192 78.5646 70.7182 78.5963 70.8205 78.608C70.9227 78.6196 71.0263 78.611 71.1252 78.5825C71.2241 78.5539 71.3164 78.5062 71.3968 78.4419C71.4772 78.3776 71.544 78.298 71.5936 78.2078C71.6431 78.1176 71.6743 78.0185 71.6854 77.9161C71.6965 77.8138 71.6873 77.7103 71.6582 77.6115C71.6292 77.5128 71.5809 77.4208 71.5162 77.3407L69.4065 74.7036H72.4688C73.0901 74.7029 73.6859 74.4558 74.1253 74.0164C74.5647 73.577 74.8118 72.9813 74.8125 72.3599V52.438C74.8118 51.8166 74.5647 51.2208 74.1253 50.7815C73.6859 50.3421 73.0901 50.0949 72.4688 50.0942ZM67 56.3442H69.3438V69.2349H67V56.3442ZM63.0938 56.3442H65.4375V69.2349H63.0938V56.3442ZM59.1875 56.3442H61.5312V69.2349H59.1875V56.3442ZM55.2812 56.3442H57.625V69.2349H55.2812V56.3442ZM51.375 56.3442H53.7188V69.2349H51.375V56.3442ZM47.4688 56.3442H49.8125V69.2349H47.4688V56.3442ZM43.5625 56.3442H45.9062V69.2349H43.5625V56.3442ZM39.6562 56.3442H42V69.2349H39.6562V56.3442ZM35.75 52.438C35.7503 52.2309 35.8327 52.0323 35.9791 51.8859C36.1256 51.7394 36.3241 51.657 36.5312 51.6567H37.3125C37.5196 51.657 37.7182 51.7394 37.8646 51.8859C38.0111 52.0323 38.0935 52.2309 38.0938 52.438V69.2349H35.75V52.438ZM73.25 72.3599C73.2497 72.567 73.1673 72.7655 73.0209 72.912C72.8744 73.0584 72.6759 73.1408 72.4688 73.1411H36.5312C36.3241 73.1408 36.1256 73.0584 35.9791 72.912C35.8327 72.7655 35.7503 72.567 35.75 72.3599V70.7974H73.25V72.3599ZM73.25 69.2349H70.9062V52.438C70.9065 52.2309 70.9889 52.0323 71.1354 51.8859C71.2818 51.7394 71.4804 51.657 71.6875 51.6567H72.4688C72.6759 51.657 72.8744 51.7394 73.0209 51.8859C73.1673 52.0323 73.2497 52.2309 73.25 52.438V69.2349Z" fill="#114084"/>
<path d="M57.4166 45.9427C57.1063 46.2533 56.8613 46.6229 56.6959 47.0295C56.5305 47.4362 56.448 47.8719 56.4534 48.3109C56.4567 48.7558 56.5488 49.1956 56.7245 49.6045C56.9001 50.0133 57.1556 50.3829 57.4761 50.6916C58.0109 51.2074 58.6987 51.5356 59.4361 51.6269C60.1735 51.7182 60.9206 51.5676 61.5651 51.1978C62.2123 51.5631 62.961 51.7072 63.6976 51.6083C64.4342 51.5095 65.1184 51.173 65.6464 50.65C65.9567 50.3394 66.2017 49.9699 66.3671 49.5632C66.5325 49.1565 66.615 48.7209 66.6096 48.2819C66.6063 47.8369 66.5141 47.397 66.3385 46.9881C66.1629 46.5792 65.9073 46.2095 65.5869 45.9007L62.3127 42.7203V39.5474C62.3121 38.926 62.0649 38.3302 61.6255 37.8908C61.1861 37.4514 60.5904 37.2043 59.969 37.2036H58.0159V29.3911C58.0159 29.1839 57.9336 28.9852 57.787 28.8387C57.6405 28.6922 57.4418 28.6099 57.2346 28.6099C57.0274 28.6099 56.8287 28.6922 56.6822 28.8387C56.5357 28.9852 56.4534 29.1839 56.4534 29.3911V37.2036H52.5471V29.3911C52.5471 29.1839 52.4648 28.9852 52.3183 28.8387C52.1718 28.6922 51.9731 28.6099 51.7659 28.6099C51.5587 28.6099 51.36 28.6922 51.2134 28.8387C51.0669 28.9852 50.9846 29.1839 50.9846 29.3911V37.2036H49.0315C48.4101 37.2043 47.8144 37.4514 47.375 37.8908C46.9356 38.3302 46.6884 38.926 46.6877 39.5474V42.5855L43.3541 45.9427C43.0438 46.2533 42.7988 46.6229 42.6334 47.0295C42.468 47.4362 42.3855 47.8719 42.3909 48.3109C42.3942 48.7558 42.4863 49.1956 42.662 49.6045C42.8376 50.0133 43.0931 50.3829 43.4136 50.6916C43.9484 51.2074 44.6362 51.5356 45.3736 51.6269C46.111 51.7182 46.8581 51.5676 47.5026 51.1978C48.1498 51.5631 48.8985 51.7072 49.6351 51.6083C50.3717 51.5095 51.0559 51.173 51.5839 50.65C51.8942 50.3394 52.1392 49.9699 52.3046 49.5632C52.47 49.1565 52.5525 48.7209 52.5471 48.2819C52.5438 47.8369 52.4516 47.397 52.276 46.9881C52.1004 46.5792 51.8448 46.2095 51.5244 45.9007L48.2502 42.7203V39.5474C48.2505 39.3402 48.3329 39.1417 48.4794 38.9952C48.6258 38.8488 48.8244 38.7664 49.0315 38.7661H59.969C60.1761 38.7664 60.3747 38.8488 60.5211 38.9952C60.6676 39.1417 60.75 39.3402 60.7502 39.5474V42.5855L57.4166 45.9427ZM50.4357 47.0215C50.6074 47.1867 50.7444 47.3845 50.8387 47.6034C50.9329 47.8222 50.9826 48.0577 50.9846 48.296C50.9875 48.5283 50.9439 48.7588 50.8565 48.9739C50.769 49.1891 50.6394 49.3847 50.4754 49.5491C50.1484 49.8705 49.7135 50.0587 49.2554 50.077C48.7973 50.0953 48.3488 49.9423 47.9973 49.6479C47.855 49.5286 47.6749 49.4639 47.4892 49.4654C47.3035 49.467 47.1244 49.5346 46.9841 49.6563C46.6337 49.9527 46.1855 50.1081 45.7267 50.0923C45.268 50.0765 44.8316 49.8906 44.5023 49.5709C44.3306 49.4057 44.1936 49.208 44.0993 48.9892C44.0051 48.7704 43.9554 48.535 43.9534 48.2968C43.9505 48.0645 43.9941 47.834 44.0815 47.6188C44.169 47.4036 44.2986 47.2081 44.4626 47.0436L47.4064 44.0792L50.4357 47.0215ZM61.4689 44.0792L64.4982 47.0215C64.6699 47.1867 64.8069 47.3845 64.9012 47.6034C64.9954 47.8222 65.0451 48.0577 65.0471 48.296C65.05 48.5283 65.0064 48.7588 64.919 48.9739C64.8315 49.1891 64.7019 49.3847 64.5379 49.5491C64.2109 49.8705 63.776 50.0587 63.3179 50.077C62.8598 50.0953 62.4113 49.9423 62.0598 49.6479C61.9175 49.5286 61.7374 49.4639 61.5517 49.4654C61.366 49.467 61.1869 49.5346 61.0466 49.6563C60.6962 49.9527 60.248 50.1081 59.7892 50.0923C59.3305 50.0765 58.8941 49.8906 58.5648 49.5709C58.3931 49.4057 58.2561 49.208 58.1618 48.9892C58.0676 48.7704 58.0179 48.535 58.0159 48.2968C58.013 48.0645 58.0566 47.834 58.144 47.6188C58.2315 47.4036 58.3611 47.2081 58.5251 47.0436L61.4689 44.0792Z" fill="#114084"/>
<path d="M34.6875 41.9201C34.6929 42.0653 34.7387 42.206 34.8197 42.3266C34.9006 42.4472 35.0136 42.5428 35.1459 42.6027C35.2781 42.6627 35.4245 42.6845 35.5685 42.6659C35.7126 42.6473 35.8486 42.5889 35.9613 42.4973L37.7954 41.0061L40.0853 41.6489C40.2258 41.6883 40.3744 41.6876 40.5145 41.6469C40.6545 41.6063 40.7804 41.5272 40.8779 41.4186C40.9753 41.3101 41.0405 41.1765 41.0659 41.0329C41.0913 40.8892 41.0761 40.7414 41.0218 40.606L40.1536 38.4411L41.4731 36.509C41.5556 36.3883 41.6025 36.2468 41.6086 36.1008C41.6147 35.9547 41.5796 35.8099 41.5075 35.6827C41.4361 35.5549 41.3298 35.4499 41.2011 35.3802C41.0724 35.3104 40.9265 35.2787 40.7804 35.2887L38.405 35.4336L36.9393 33.5923C36.8491 33.4788 36.729 33.3926 36.5926 33.3435C36.4561 33.2944 36.3087 33.2843 36.1668 33.3142C36.025 33.3441 35.8942 33.413 35.7892 33.513C35.6843 33.6131 35.6092 33.7404 35.5725 33.8807L34.9813 36.1393L32.7508 36.9423C32.6129 36.992 32.4918 37.0795 32.4013 37.1948C32.3108 37.31 32.2545 37.4484 32.2388 37.5941C32.2232 37.7398 32.2489 37.887 32.3129 38.0188C32.3769 38.1507 32.4767 38.2618 32.6009 38.3397L34.6017 39.592L34.6875 41.9201ZM35.8976 37.4703C36.0168 37.4273 36.1239 37.356 36.2094 37.2624C36.2949 37.1688 36.3564 37.0558 36.3885 36.9332L36.6887 35.7865L37.4353 36.7245C37.5128 36.8235 37.6135 36.902 37.7284 36.9532C37.8433 37.0043 37.969 37.0265 38.0944 37.0179L39.2831 36.9454L38.6281 37.9044C38.5557 38.0103 38.5105 38.1325 38.4965 38.26C38.4826 38.3876 38.5002 38.5166 38.548 38.6357L38.9814 39.716L37.8282 39.3921C37.7077 39.3585 37.5809 39.3542 37.4583 39.3796C37.3358 39.405 37.2212 39.4594 37.124 39.5382L36.1913 40.2966L36.1478 39.1205C36.143 38.9931 36.1071 38.8688 36.0433 38.7585C35.9794 38.6481 35.8896 38.555 35.7816 38.4873L34.7924 37.8681L35.8976 37.4703Z" fill="#114084"/>
<path d="M76.2491 36.9423L74.0186 36.1393L73.4274 33.8807C73.3907 33.7404 73.3156 33.6131 73.2106 33.513C73.1057 33.413 72.9749 33.3441 72.8331 33.3142C72.6912 33.2843 72.5437 33.2944 72.4073 33.3435C72.2709 33.3926 72.1508 33.4788 72.0606 33.5923L70.5949 35.4336L68.2195 35.2887C68.0736 35.2797 67.9281 35.3119 67.7996 35.3816C67.671 35.4512 67.5646 35.5556 67.4925 35.6827C67.4203 35.8098 67.3852 35.9547 67.3913 36.1008C67.3974 36.2468 67.4443 36.3883 67.5268 36.509L68.8463 38.4411L67.9781 40.606C67.9238 40.7414 67.9086 40.8893 67.934 41.0329C67.9594 41.1765 68.0246 41.3101 68.122 41.4187C68.2195 41.5272 68.3454 41.6063 68.4854 41.647C68.6255 41.6877 68.7741 41.6883 68.9146 41.6489L71.2045 41.0061L73.0386 42.4973C73.1513 42.5889 73.2873 42.6473 73.4314 42.6659C73.5754 42.6845 73.7217 42.6626 73.854 42.6027C73.9863 42.5427 74.0993 42.4471 74.1802 42.3266C74.2612 42.206 74.3069 42.0653 74.3124 41.9201L74.3982 39.592L76.399 38.3397C76.5232 38.2618 76.623 38.1507 76.687 38.0188C76.751 37.887 76.7767 37.7398 76.7611 37.5941C76.7454 37.4484 76.6891 37.31 76.5986 37.1948C76.5081 37.0795 76.387 36.992 76.2491 36.9423ZM73.2183 38.4873C73.1103 38.555 73.0205 38.6481 72.9566 38.7585C72.8928 38.8688 72.8569 38.9931 72.8521 39.1205L72.8086 40.2966L71.8759 39.5382C71.7788 39.4593 71.6642 39.4049 71.5416 39.3795C71.4191 39.354 71.2922 39.3584 71.1717 39.3921L70.0186 39.716L70.4519 38.6357C70.4997 38.5166 70.5174 38.3876 70.5034 38.26C70.4894 38.1325 70.4442 38.0103 70.3718 37.9044L69.7168 36.9454L70.9055 37.0179C71.031 37.0266 71.1567 37.0045 71.2716 36.9533C71.3866 36.9022 71.4872 36.8236 71.5647 36.7245L72.3112 35.7865L72.6114 36.9332C72.6435 37.0558 72.705 37.1688 72.7905 37.2624C72.8761 37.356 72.9831 37.4273 73.1024 37.4703L74.2075 37.8682L73.2183 38.4873Z" fill="#114084"/>
</g>
<defs>
<clipPath id="clip0_5001_1721">
<rect width="50" height="50" fill="white" transform="translate(29.5 28.6099)"/>
</clipPath>
</defs>
</svg>
