<svg width="109" height="108" viewBox="0 0 109 108" fill="none" xmlns="http://www.w3.org/2000/svg">
<rect x="2" y="1.5" width="105" height="105" rx="52.5" stroke="#114084" stroke-width="3"/>
<path d="M68.7128 72.3074C66.2059 72.3074 64.8751 71.1155 63.9032 70.2451C63.0573 69.4878 62.6762 69.1804 61.7288 69.1804C60.7817 69.1804 60.4005 69.4878 59.5545 70.2452C58.5828 71.1155 57.252 72.3074 54.7453 72.3074H54.7017C52.1951 72.3074 50.8642 71.1155 49.8924 70.2452C49.0466 69.4878 48.6655 69.1804 47.7182 69.1804C46.7709 69.1804 46.3898 69.4878 45.5437 70.2452C44.572 71.1155 43.2412 72.3074 40.7344 72.3074C38.2273 72.3074 36.8967 71.1155 35.9249 70.2451C35.0789 69.4878 34.6978 69.1805 33.7505 69.1805V70.2547C34.2929 70.2547 34.4248 70.3441 35.2083 71.0455C36.1838 71.9192 37.8166 73.3817 40.7344 73.3817C43.6519 73.3817 45.2848 71.9192 46.2603 71.0456C47.0438 70.3441 47.1756 70.2547 47.7182 70.2547C48.2607 70.2547 48.3925 70.3441 49.1758 71.0454C50.1514 71.9192 51.7844 73.3816 54.7017 73.3816H54.7453C57.6627 73.3816 59.2956 71.9192 60.2711 71.0455C61.0546 70.3441 61.1864 70.2547 61.7288 70.2547C62.2714 70.2547 62.4032 70.344 63.1866 71.0454C64.1622 71.9192 65.7952 73.3816 68.7127 73.3816C71.6302 73.3816 73.2632 71.9192 74.2387 71.0455C75.0222 70.344 75.1541 70.2546 75.6966 70.2546V69.1804C74.7492 69.1804 74.3681 69.4878 73.5221 70.2452C72.5504 71.1155 71.2196 72.3074 68.7128 72.3074Z" fill="#114084"/>
<path d="M68.7527 66.7764C67.223 66.7764 66.4896 66.1158 65.6404 65.351C64.7548 64.5534 63.7512 63.6494 61.809 63.6494C59.8669 63.6494 58.8633 64.5534 57.9778 65.351C57.1286 66.1158 56.3952 66.7764 54.8656 66.7764H54.5815C53.0518 66.7764 52.3184 66.1158 51.4691 65.3509C50.5837 64.5534 49.5801 63.6494 47.638 63.6494C45.6959 63.6494 44.6923 64.5534 43.8068 65.3509C42.9575 66.1158 42.224 66.7764 40.6943 66.7764C39.1645 66.7764 38.431 66.1158 37.5817 65.3509C36.6962 64.5534 35.6926 63.6494 33.7505 63.6494V64.7236C35.2801 64.7236 36.0136 65.3842 36.8628 66.1491C37.7484 66.9466 38.752 67.8506 40.6943 67.8506C42.6365 67.8506 43.6401 66.9466 44.5257 66.1491C45.3749 65.3842 46.1083 64.7236 47.638 64.7236C49.1676 64.7236 49.901 65.3842 50.7502 66.1491C51.6357 66.9466 52.6394 67.8506 54.5815 67.8506H54.8656C56.8077 67.8506 57.8113 66.9466 58.6968 66.1491C59.546 65.3842 60.2794 64.7236 61.809 64.7236C63.3387 64.7236 64.0722 65.3842 64.9215 66.1492C65.807 66.9467 66.8106 67.8506 68.7527 67.8506C70.6949 67.8506 71.6986 66.9467 72.5842 66.1491C73.4334 65.3842 74.1669 64.7237 75.6966 64.7237V63.6494C73.7545 63.6494 72.7508 64.5534 71.8653 65.3509C71.016 66.1158 70.2825 66.7764 68.7527 66.7764Z" fill="#114084"/>
<path d="M75.1749 52.6335H68.1388V44.8379C68.1388 43.3571 66.934 42.1523 65.4532 42.1523C63.9724 42.1523 62.7677 43.3571 62.7677 44.8379V52.6335H57.9116V47.671C57.9116 44.628 55.4359 42.1523 52.3929 42.1523C49.3498 42.1523 46.8741 44.628 46.8741 47.671V52.6468H44.7761V47.671C44.7761 44.628 42.3004 42.1523 39.2573 42.1523C36.2142 42.1523 33.7386 44.628 33.7386 47.671L33.7354 59.1929C36.2417 59.1929 37.5725 60.3847 38.5444 61.255C39.3902 62.0124 39.7712 62.3198 40.7186 62.3198C41.666 62.3198 42.0469 62.0124 42.8927 61.255C43.8643 60.3847 45.1949 59.1929 47.7016 59.1929C50.208 59.1929 51.5388 60.3847 52.5107 61.255C53.3565 62.0124 53.7376 62.3198 54.6849 62.3198C55.4061 62.3227 55.8983 62.2055 56.9062 61.2549C57.7733 60.518 58.8279 59.5351 60.6893 59.2652C60.8436 61.3969 62.2247 63.0482 64.1129 63.6008C65.2147 63.9164 67.2538 64.0453 68.9043 62.3137C69.2765 62.2932 69.703 62.3461 70.8725 61.2549C71.8442 60.3847 73.1751 59.1929 75.6815 59.1929L75.7121 53.1706C75.712 52.874 75.4716 52.6335 75.1749 52.6335ZM41.4166 59.2858V61.0776C40.4413 61.5024 40.0443 61.1562 39.261 60.4547C37.6054 58.8891 36.0403 58.3535 34.8128 58.1893V53.7077H41.4166V59.2858ZM41.4166 52.6335H37.0979V47.671C37.0979 46.4804 38.0666 45.5117 39.2573 45.5117C40.448 45.5117 41.4166 46.4804 41.4166 47.671V52.6335ZM54.5522 61.2428C54.1152 61.2248 53.9421 61.0948 53.2273 60.4547C52.8636 60.129 52.4084 59.7216 51.8297 59.3386C50.8557 58.694 49.5314 58.1187 47.7016 58.1187C46.5338 58.1187 45.5724 58.3532 44.7761 58.6903V56.0063H54.5522V61.2428ZM56.8373 59.8939C56.5936 60.093 56.3789 60.285 56.1894 60.4548C55.9513 60.668 55.7739 60.8239 55.6264 60.9387V55.4692C55.6264 55.1725 55.386 54.9321 55.0893 54.9321H44.239C43.9423 54.9321 43.7019 55.1725 43.7019 55.4692V59.2556C43.2224 59.5599 42.8243 59.8847 42.4909 60.1755V47.671C42.4909 45.8881 41.0403 44.4375 39.2573 44.4375C37.4743 44.4375 36.0237 45.8881 36.0237 47.671V52.6196H34.8128V47.671C34.8128 45.2204 36.8066 43.2266 39.2573 43.2266C41.708 43.2266 43.7019 45.2204 43.7019 47.671V53.1839C43.7019 53.4806 43.9423 53.7211 44.239 53.7211H55.0893C55.386 53.7211 55.6264 53.4806 55.6264 53.1839V47.671C55.6264 45.8881 54.1758 44.4375 52.3929 44.4375C50.6098 44.4375 49.1592 45.8881 49.1592 47.671V52.5929H47.9483V47.671C47.9483 45.2204 49.9421 43.2266 52.3929 43.2266C54.8435 43.2266 56.8373 45.2204 56.8373 47.671V59.8939ZM50.2334 52.6468V47.671C50.2334 46.4804 51.2021 45.5117 52.3929 45.5117C53.5835 45.5117 54.5522 46.4804 54.5522 47.671V52.6468H50.2334ZM57.9116 59.1349V53.7078H62.7677V55.0759C61.695 55.8056 60.9822 56.9229 60.7586 58.1745C59.5881 58.3122 58.6571 58.6922 57.9116 59.1349ZM67.9729 61.7257C67.2142 62.4326 66.2227 62.7818 65.1825 62.7076C63.3472 62.5775 61.8772 61.0938 61.7631 59.2564C61.6762 57.8569 62.3715 56.5453 63.5778 55.8336C63.7414 55.737 63.8419 55.5611 63.8419 55.371V44.8379C63.8419 43.9494 64.5647 43.2266 65.4532 43.2266C66.3418 43.2266 67.0646 43.9494 67.0646 44.8379V55.371C67.0646 55.5611 67.1651 55.737 67.3287 55.8337C68.4525 56.4968 69.1507 57.7176 69.1507 59.0197C69.1507 60.0571 68.7324 61.0181 67.9729 61.7257ZM74.6378 58.1845C73.2498 58.3637 71.8827 58.8539 69.9348 60.651C70.8749 58.0336 69.433 55.9604 68.1388 55.0763V53.7078H74.6378V58.1845Z" fill="#114084"/>
<path d="M65.7754 39.4131V40.4873C65.9722 40.4873 66.1655 40.5022 66.3548 40.5296C68.1131 40.784 69.507 42.1779 69.7614 43.9362C69.7888 44.1255 69.8037 44.3188 69.8037 44.5156H70.8779C70.8779 41.7021 68.5889 39.4131 65.7754 39.4131Z" fill="#114084"/>
<path d="M72.2207 44.5156H73.2949C73.2949 40.3694 69.9216 36.9961 65.7754 36.9961V38.0703C69.3293 38.0703 72.2207 40.9617 72.2207 44.5156Z" fill="#114084"/>
<path d="M74.6377 44.5156H75.7119C75.7119 39.0366 71.2544 34.5791 65.7754 34.5791V35.6533C70.662 35.6533 74.6377 39.629 74.6377 44.5156Z" fill="#114084"/>
<path d="M65.9886 57.0041V46.5977H64.9143V57.0041C64.0178 57.2416 63.356 58.0562 63.356 59.0275C63.356 60.1848 64.2941 61.123 65.4514 61.123C66.6087 61.123 67.5469 60.1848 67.5469 59.0275C67.5469 58.0562 66.8851 57.2416 65.9886 57.0041ZM65.4514 60.0575C64.8826 60.0575 64.4215 59.5963 64.4215 59.0275C64.4215 58.4587 64.8826 57.9976 65.4514 57.9976C66.0203 57.9976 66.4814 58.4587 66.4814 59.0275C66.4814 59.5963 66.0203 60.0575 65.4514 60.0575Z" fill="#114084"/>
</svg>
