<svg width="109" height="108" viewBox="0 0 109 108" fill="none" xmlns="http://www.w3.org/2000/svg">
<rect x="2" y="1.5" width="105" height="105" rx="52.5" stroke="#114084" stroke-width="3"/>
<path fill-rule="evenodd" clip-rule="evenodd" d="M72.4957 52.6381V50.992C72.4957 50.6417 72.7794 50.3573 73.1303 50.3573C73.4801 50.3573 73.7656 50.6416 73.7656 50.992V52.6381H75.4106C75.7615 52.6381 76.0453 52.9218 76.0453 53.2733C76.0453 53.6231 75.7616 53.908 75.4106 53.908H73.7656V55.5536C73.7656 55.904 73.4801 56.1883 73.1303 56.1883C72.7794 56.1883 72.4957 55.904 72.4957 55.5536V53.908H70.8502C70.4993 53.908 70.2155 53.6231 70.2155 53.2733C70.2155 52.9218 70.4992 52.6381 70.8502 52.6381H72.4957ZM38.9112 42.078C38.9112 41.7271 39.1955 41.4433 39.5459 41.4433H41.192V39.7983C41.192 39.4468 41.4757 39.1631 41.8272 39.1631C42.177 39.1631 42.4619 39.4468 42.4619 39.7983V41.4433H44.1069C44.4573 41.4433 44.7422 41.727 44.7422 42.078C44.7422 42.4283 44.4573 42.7132 44.1069 42.7132H42.4619V44.3582C42.4619 44.7091 42.177 44.9934 41.8272 44.9934C41.4757 44.9934 41.192 44.7091 41.192 44.3582V42.7132H39.5459C39.1955 42.7132 38.9112 42.4283 38.9112 42.078ZM69.4418 42.4456C70.235 42.4456 70.88 43.0912 70.88 43.8838C70.88 44.6764 70.235 45.3226 69.4418 45.3226C68.6492 45.3226 68.0042 44.6765 68.0042 43.8838C68.0042 43.0912 68.6492 42.4456 69.4418 42.4456ZM69.4418 46.5924C70.9357 46.5924 72.1499 45.3771 72.1499 43.8837C72.1499 42.3909 70.9357 41.1756 69.4418 41.1756C67.949 41.1756 66.7343 42.3909 66.7343 43.8837C66.7343 45.3771 67.949 46.5924 69.4418 46.5924ZM35.6764 50.7789C36.4696 50.7789 37.114 51.4239 37.114 52.2171C37.114 53.0097 36.4696 53.6547 35.6764 53.6547C34.8832 53.6547 34.2382 53.0097 34.2382 52.2171C34.2382 51.4239 34.8832 50.7789 35.6764 50.7789ZM35.6764 54.9246C37.1698 54.9246 38.3839 53.7104 38.3839 52.2171C38.3839 50.7237 37.1697 49.509 35.6764 49.509C34.1831 49.509 32.9683 50.7238 32.9683 52.2171C32.9683 53.7104 34.1831 54.9246 35.6764 54.9246ZM55.9312 37.2132C55.6831 36.9657 55.6831 36.5636 55.9312 36.3161L57.6956 34.5522C57.9983 34.249 57.9983 33.7556 57.6956 33.4529C57.4469 33.2054 57.4469 32.8027 57.6956 32.5552C57.9431 32.3071 58.3446 32.3071 58.5933 32.5552C59.3906 33.3516 59.3917 34.6505 58.5933 35.4494L56.8289 37.2132C56.5805 37.4615 56.1804 37.4612 55.9312 37.2132ZM64.4753 38.4377L63.577 39.3354C63.2743 39.0316 62.7815 39.0327 62.4788 39.3354L60.7149 41.0987C60.4663 41.3466 60.0646 41.3469 59.8166 41.0987C59.5685 40.8511 59.5685 40.4491 59.8166 40.2015L61.5805 38.4377C62.3783 37.6393 63.6769 37.6393 64.4753 38.4377ZM59.3342 36.7985C59.0855 37.046 59.0855 37.4481 59.3342 37.6968C59.5818 37.9444 59.9842 37.944 60.2314 37.6968L63.1618 34.7664C63.4105 34.5177 63.4105 34.1157 63.1618 33.8681C62.9143 33.62 62.5122 33.62 62.2641 33.8681L59.3342 36.7985ZM56.2517 46.4925L50.5374 40.7794L51.836 38.0133L59.0166 45.1939L56.2517 46.4925ZM46.2176 49.976L47.0539 50.8123L45.4767 51.5532L46.2176 49.976ZM51.0417 48.9393L48.0906 45.9883L46.792 48.7544L48.2756 50.2385L51.0417 48.9393ZM48.6644 44.7666L52.2633 48.3655L55.03 47.0663L49.9636 42.001L48.6644 44.7666ZM50.882 37.0592L43.5802 52.6054C43.3273 53.1428 43.8878 53.7003 44.4245 53.4509L59.9718 46.1479L61.2871 47.4638C61.5347 47.712 61.9375 47.7122 62.1848 47.4638C62.4335 47.2162 62.4335 46.8148 62.1848 46.5661L60.5542 44.9349L50.4638 34.8451C50.2163 34.5975 49.8136 34.5975 49.5661 34.8451C49.3174 35.0926 49.3174 35.4947 49.5661 35.7428L50.882 37.0592ZM57.6129 58.2904C57.6129 59.9078 56.297 61.2236 54.6796 61.2236C53.0628 61.2236 51.7464 59.9078 51.7464 58.2904C51.7464 56.6724 53.0628 55.3572 54.6796 55.3572C56.297 55.3571 57.6129 56.6724 57.6129 58.2904ZM50.4765 58.2904C50.4765 60.6079 52.3621 62.4935 54.6796 62.4935C56.9971 62.4935 58.8828 60.6079 58.8828 58.2904C58.8828 55.9729 56.9972 54.0878 54.6796 54.0878C52.3621 54.0878 50.4765 55.9728 50.4765 58.2904ZM40.7153 61.9927C41.6417 61.9927 42.3959 62.7462 42.3959 63.6733C42.3959 64.6004 41.6418 65.3539 40.7153 65.3539C39.7883 65.3539 39.0342 64.6003 39.0342 63.6733C39.0342 62.7463 39.7883 61.9927 40.7153 61.9927ZM40.7153 66.6238C42.3413 66.6238 43.6652 65.2999 43.6652 63.6733C43.6652 62.0461 42.3413 60.7228 40.7153 60.7228C39.0876 60.7228 37.7642 62.0461 37.7642 63.6733C37.7642 65.2999 39.0875 66.6238 40.7153 66.6238ZM68.6446 65.3539C67.7176 65.3539 66.964 64.6003 66.964 63.6733C66.964 62.7463 67.7176 61.9927 68.6446 61.9927C69.5716 61.9927 70.3252 62.7462 70.3252 63.6733C70.3252 64.6004 69.5716 65.3539 68.6446 65.3539ZM68.6446 60.7228C67.018 60.7228 65.6941 62.0461 65.6941 63.6733C65.6941 65.2999 67.018 66.6238 68.6446 66.6238C70.2717 66.6238 71.5951 65.2999 71.5951 63.6733C71.5951 62.0461 70.2717 60.7228 68.6446 60.7228ZM75.6816 64.1695C75.7752 64.0615 75.8206 63.9225 75.8114 63.7783C75.7788 63.2973 75.1795 63.1066 74.8689 63.463L71.1804 67.7C69.8349 69.246 67.4543 69.2458 66.1088 67.7L62.8309 63.9357L62.1233 64.7943L65.1668 68.4863C65.6768 69.1049 65.9353 69.8245 65.9353 70.6252V74.1133C65.9353 74.246 66.0467 74.3574 66.1794 74.3574H71.1097C71.2418 74.3574 71.3544 74.246 71.3544 74.1133V70.6252C71.3544 69.8245 71.6123 69.1049 72.1217 68.4863L75.6701 64.1821C75.6736 64.1776 75.6782 64.173 75.6816 64.1695ZM60.3026 65.0046L65.7711 58.3719C65.9821 58.1212 66.0887 57.8417 66.0657 57.5075C65.9935 56.455 64.6874 56.043 64.0135 56.8183L58.3285 63.3487C57.3825 64.436 56.1207 65.0103 54.6796 65.0103C53.2385 65.0103 51.9767 64.4359 51.0313 63.3487L45.3457 56.8183C45.1418 56.5834 44.8563 56.4421 44.5422 56.4203C43.524 56.3538 42.8799 57.5304 43.5882 58.372L49.0567 65.0047C49.7993 65.907 50.1612 66.9133 50.1612 68.0821V73.4581C50.1612 73.855 50.484 74.1778 50.8803 74.1778H58.4791C58.8754 74.1778 59.1982 73.855 59.1982 73.4581V68.0821C59.1981 66.9132 59.5605 65.9069 60.3026 65.0046ZM44.1924 68.4864L47.2359 64.7944L46.5283 63.9346L43.251 67.7001C41.9057 69.2461 39.524 69.2459 38.1788 67.7001L34.4903 63.4619C34.3961 63.3551 34.2651 63.2907 34.121 63.2804C33.6649 63.2486 33.348 63.7791 33.6896 64.1822L37.2374 68.4864C37.7469 69.105 38.0047 69.8246 38.0047 70.6253V74.1134C38.0047 74.2461 38.1173 74.3575 38.2494 74.3575H43.1797C43.3124 74.3575 43.4238 74.2461 43.4238 74.1134V70.6253C43.4239 69.8246 43.6824 69.105 44.1924 68.4864ZM77.0773 63.6917C76.9661 62.0776 74.9583 61.4264 73.912 62.6286L70.2229 66.8668C69.382 67.8313 67.9066 67.8313 67.0662 66.8668L63.6493 62.9416L66.7462 59.1859C68.152 57.5205 66.8904 55.0043 64.7291 55.1545C64.0766 55.1987 63.4827 55.4945 63.0554 55.985L57.3704 62.5155C56.6634 63.3276 55.757 63.7406 54.6795 63.7406C53.602 63.7406 52.6963 63.3276 51.9887 62.5155L46.3037 55.985C44.8868 54.358 42.1772 55.2434 42.0264 57.4198C41.9816 58.0694 42.1895 58.696 42.6134 59.186L45.7098 62.9417L42.2929 66.8669C41.4523 67.8316 39.9771 67.8313 39.1368 66.8669L35.4471 62.6287C34.4012 61.4271 32.3936 62.0768 32.2818 63.6918C32.2485 64.1708 32.4024 64.6338 32.7143 64.9956L36.2581 69.2953C36.5838 69.6905 36.7348 70.1132 36.7348 70.6255V74.1136C36.7348 74.9493 37.4143 75.6276 38.2494 75.6276H43.1797C44.0154 75.6276 44.6937 74.9493 44.6937 74.1136V70.6255C44.6937 70.1132 44.8459 69.6904 45.1716 69.2953L48.0589 65.7923C48.626 66.4728 48.8912 67.1961 48.8912 68.0823V73.4583C48.8912 74.5553 49.7838 75.4479 50.8802 75.4479H58.479C59.5754 75.4479 60.468 74.5553 60.468 73.4583V68.0823C60.468 67.1962 60.7338 66.4728 61.3008 65.7923L64.1875 69.2953C64.5132 69.6905 64.6654 70.1132 64.6654 70.6255V74.1136C64.6654 74.9493 65.3437 75.6276 66.1794 75.6276H71.1097C71.9448 75.6276 72.6243 74.9493 72.6243 74.1136V70.6255C72.6243 70.1132 72.7753 69.6904 73.1016 69.2953L76.6448 64.9956C76.9567 64.6336 77.1112 64.1707 77.0773 63.6917Z" fill="#114084"/>
</svg>
