<svg width="109" height="108" viewBox="0 0 109 108" fill="none" xmlns="http://www.w3.org/2000/svg">
<rect x="2" y="1.5" width="105" height="105" rx="52.5" stroke="#114084" stroke-width="3"/>
<path d="M73.3508 34.0129H35.822C35.2288 34.0129 34.7461 34.4956 34.7461 35.0888V55.582C34.7461 56.1751 35.2286 56.6579 35.822 56.6579H73.3509C73.9441 56.6579 74.4268 56.1752 74.4268 55.582V35.0888C74.4267 34.4956 73.9441 34.0129 73.3508 34.0129ZM73.1077 55.3388H36.0651V35.332H73.1077V55.3388Z" fill="#114084"/>
<path d="M54.5866 38.3489C50.7107 38.3489 47.5576 41.502 47.5576 45.3778C47.5576 49.2536 50.7107 52.4068 54.5866 52.4068C58.4624 52.4068 61.6155 49.2536 61.6155 45.3778C61.6155 41.502 58.4624 38.3489 54.5866 38.3489ZM54.5866 51.0877C51.4381 51.0877 48.8766 48.5263 48.8766 45.3778C48.8766 42.2294 51.4381 39.6679 54.5866 39.6679C57.735 39.6679 60.2965 42.2294 60.2965 45.3778C60.2965 48.5263 57.7351 51.0877 54.5866 51.0877Z" fill="#114084"/>
<path d="M57.2736 44.5302L53.4252 42.361C52.8021 42.0096 52.0498 42.4807 52.0498 43.2086V47.5472C52.0498 48.2763 52.8032 48.7455 53.4251 48.3949L55.3956 47.2841L57.2734 46.2255C57.9198 45.8613 57.92 44.8946 57.2736 44.5302ZM53.3689 46.9124V43.8434L56.0912 45.3778L53.3689 46.9124Z" fill="#114084"/>
<path d="M75.5103 69.1026V68.2765C75.5103 67.1742 74.7174 66.255 73.6742 66.0613C74.1444 65.4745 74.4268 64.7298 74.4268 63.9197C74.4268 62.0326 72.8978 60.4973 71.0182 60.4973C69.1386 60.4973 67.6095 62.0326 67.6095 63.9197C67.6095 64.7298 67.8919 65.4744 68.3622 66.0613C67.3188 66.255 66.5261 67.1743 66.5261 68.2765V69.1026C66.1577 69.163 65.8241 69.3277 65.5557 69.5652C65.2874 69.3277 64.9537 69.163 64.5853 69.1026V68.2765C64.5853 67.1742 63.7924 66.255 62.7491 66.0613C63.2193 65.4745 63.5018 64.7298 63.5018 63.9197C63.5018 62.0326 61.9727 60.4973 60.0931 60.4973C58.2136 60.4973 56.6845 62.0326 56.6845 63.9197C56.6845 64.7298 56.9668 65.4744 57.4371 66.0613C56.3938 66.255 55.601 67.1743 55.601 68.2765V69.1026C55.2327 69.163 54.899 69.3277 54.6306 69.5652C54.3624 69.3277 54.0287 69.163 53.6603 69.1026V68.2765C53.6603 67.1742 52.8673 66.255 51.8241 66.0613C52.2944 65.4745 52.5768 64.7298 52.5768 63.9197C52.5768 62.0326 51.0477 60.4973 49.1681 60.4973C47.2887 60.4973 45.7596 62.0326 45.7596 63.9197C45.7596 64.7298 46.0419 65.4744 46.5123 66.0613C45.4689 66.255 44.676 67.1743 44.676 68.2765V69.1026C44.3077 69.163 43.974 69.3277 43.7057 69.5652C43.4375 69.3277 43.1038 69.163 42.7354 69.1026V68.2765C42.7354 67.1742 41.9424 66.255 40.8992 66.0613C41.3695 65.4745 41.6519 64.7298 41.6519 63.9197C41.6519 62.0326 40.1228 60.4973 38.2433 60.4973C36.3638 60.4973 34.8347 62.0326 34.8347 63.9197C34.8347 64.7298 35.117 65.4744 35.5874 66.0613C34.544 66.255 33.7512 67.1743 33.7512 68.2765V69.1026C32.8275 69.2541 32.1206 70.0596 32.1206 71.0278V75.1069C32.1206 75.8528 32.7274 76.4597 33.4734 76.4597H42.9367C43.2083 76.4597 43.4616 76.3821 43.6781 76.2499C43.8869 76.3821 44.1335 76.4597 44.3985 76.4597H53.9136C54.1728 76.4597 54.4146 76.3864 54.6218 76.2613C54.8267 76.3863 55.0665 76.4597 55.3236 76.4597H64.9599C65.19 76.4597 65.4051 76.3964 65.5907 76.2879C65.7856 76.3969 66.0098 76.4597 66.2486 76.4597H75.5665C76.4342 76.4597 77.14 75.7539 77.14 74.8862V71.0278C77.1401 70.0596 76.4333 69.2541 75.5103 69.1026ZM38.2426 61.8163C39.395 61.8163 40.3323 62.7599 40.3323 63.9197C40.3323 65.0795 39.3949 66.0231 38.2426 66.0231C37.0904 66.0231 36.1531 65.0795 36.1531 63.9197C36.1531 62.7599 37.0904 61.8163 38.2426 61.8163ZM35.0695 68.2765C35.0695 67.7613 35.485 67.342 35.996 67.342H40.4896C41.0004 67.342 41.4161 67.7612 41.4161 68.2765V69.0766H35.0695V68.2765ZM43.0458 75.0318C43.0458 75.0918 42.9969 75.1407 42.9368 75.1407H33.4734C33.4548 75.1407 33.4396 75.1256 33.4396 75.1069V71.0278C33.4396 70.6793 33.7204 70.3956 34.0654 70.3956C35.0972 70.3956 41.5758 70.3956 42.4199 70.3956C42.7649 70.3956 43.0457 70.6793 43.0457 71.0278L43.0458 75.0318ZM49.1678 61.8163C50.3201 61.8163 51.2574 62.7599 51.2574 63.9197C51.2574 65.0795 50.32 66.0231 49.1678 66.0231C48.0156 66.0231 47.0783 65.0795 47.0783 63.9197C47.0782 62.7599 48.0156 61.8163 49.1678 61.8163ZM45.9946 68.2765C45.9946 67.7613 46.4103 67.342 46.9211 67.342H51.4146C51.9255 67.342 52.3411 67.7612 52.3411 68.2765V69.0766H45.9947L45.9946 68.2765ZM53.9708 75.0834C53.9708 75.1149 53.9451 75.1407 53.9136 75.1407H44.3985C44.3799 75.1407 44.3647 75.1256 44.3647 75.1069C44.3647 74.2134 44.3647 71.9893 44.3647 71.0278C44.3647 70.6793 44.6454 70.3956 44.9905 70.3956C45.8352 70.3956 52.312 70.3956 53.3449 70.3956C53.69 70.3956 53.9707 70.6793 53.9707 71.0278L53.9708 75.0834ZM60.0929 61.8163C61.2452 61.8163 62.1825 62.7599 62.1825 63.9197C62.1825 65.0795 61.2451 66.0231 60.0929 66.0231C58.9406 66.0231 58.0032 65.0795 58.0032 63.9197C58.0032 62.7599 58.9407 61.8163 60.0929 61.8163ZM57.8462 67.3421H62.3397C62.8506 67.3421 63.2662 67.7613 63.2662 68.2765V69.0767H56.9198V68.2765C56.9197 67.7613 57.3352 67.3421 57.8462 67.3421ZM64.8961 75.1069V75.1407H55.3236C55.305 75.1407 55.2898 75.1256 55.2898 75.1069V75.0834V71.0278C55.2898 70.6793 55.5705 70.3956 55.9156 70.3956C56.7604 70.3956 63.2372 70.3956 64.2702 70.3956C64.6152 70.3956 64.896 70.6793 64.896 71.0278V75.1069H64.8961ZM71.0181 61.8163C72.1704 61.8163 73.1077 62.7599 73.1077 63.9197C73.1077 65.0795 72.1703 66.0231 71.0181 66.0231C69.8659 66.0231 68.9285 65.0795 68.9285 63.9197C68.9284 62.7599 69.8658 61.8163 71.0181 61.8163ZM68.7713 67.3421H73.2649C73.7757 67.3421 74.1914 67.7613 74.1914 68.2765V69.0767H67.8449V68.2765C67.8449 67.7613 68.2604 67.3421 68.7713 67.3421ZM75.8211 74.8862C75.8211 75.0266 75.707 75.1407 75.5667 75.1407H66.2487C66.2301 75.1407 66.215 75.1256 66.215 75.1069V71.0278C66.215 70.6793 66.4957 70.3956 66.8408 70.3956C67.8725 70.3956 74.3512 70.3956 75.1953 70.3956C75.5404 70.3956 75.8211 70.6793 75.8211 71.0278V74.8862Z" fill="#114084"/>
<path d="M75.4259 31.4414H56.1697C55.8055 31.4414 55.5103 31.7367 55.5103 32.1009C55.5103 32.4651 55.8055 32.7603 56.1697 32.7603H75.4259C75.6403 32.7603 75.8215 32.9416 75.8215 33.156V43.7969C75.8215 44.1611 76.1168 44.4564 76.481 44.4564C76.8452 44.4564 77.1405 44.1611 77.1405 43.7969V33.1561C77.1406 32.2107 76.3714 31.4414 75.4259 31.4414Z" fill="#114084"/>
<path d="M76.4807 46.2154C76.1165 46.2154 75.8212 46.5106 75.8212 46.8748V57.5156C75.8212 57.7301 75.64 57.9113 75.4255 57.9113H33.8353C33.6208 57.9113 33.4396 57.7301 33.4396 57.5156V33.1563C33.4396 32.9418 33.6208 32.7606 33.8353 32.7606H53.0914C53.4556 32.7606 53.7509 32.4653 53.7509 32.1011C53.7509 31.7369 53.4556 31.4417 53.0914 31.4417H33.8353C32.8899 31.4416 32.1206 32.2109 32.1206 33.1563V57.5157C32.1206 58.4612 32.8899 59.2304 33.8353 59.2304H75.4254C76.3709 59.2304 77.1401 58.4611 77.1401 57.5157V46.8749C77.1401 46.5106 76.8449 46.2154 76.4807 46.2154Z" fill="#114084"/>
</svg>
