<svg width="109" height="108" viewBox="0 0 109 108" fill="none" xmlns="http://www.w3.org/2000/svg">
<rect x="2" y="1.5" width="105" height="105" rx="52.5" stroke="#114084" stroke-width="3"/>
<path d="M39.6563 47.3599C38.8837 47.3599 38.1284 47.1308 37.4861 46.7015C36.8437 46.2723 36.343 45.6622 36.0473 44.9485C35.7517 44.2347 35.6743 43.4493 35.8251 42.6915C35.9758 41.9338 36.3478 41.2378 36.8941 40.6915C37.4404 40.1452 38.1364 39.7731 38.8942 39.6224C39.6519 39.4717 40.4373 39.5491 41.1511 39.8447C41.8649 40.1404 42.475 40.641 42.9042 41.2834C43.3334 41.9258 43.5625 42.681 43.5625 43.4536C43.5613 44.4892 43.1493 45.4821 42.417 46.2144C41.6847 46.9467 40.6919 47.3586 39.6563 47.3599ZM39.6563 41.1099C39.1927 41.1099 38.7396 41.2473 38.3541 41.5049C37.9687 41.7624 37.6683 42.1284 37.4909 42.5567C37.3135 42.985 37.2671 43.4562 37.3575 43.9109C37.448 44.3655 37.6712 44.7831 37.999 45.1109C38.3267 45.4387 38.7444 45.6619 39.199 45.7523C39.6537 45.8428 40.1249 45.7964 40.5532 45.619C40.9814 45.4416 41.3475 45.1412 41.605 44.7557C41.8625 44.3703 42 43.9172 42 43.4536C42 42.832 41.7531 42.2359 41.3135 41.7963C40.874 41.3568 40.2779 41.1099 39.6563 41.1099Z" fill="#114084"/>
<path d="M38.0813 63.1239L36.5438 62.8442L38.1063 54.2505C38.1355 54.089 38.2148 53.9408 38.333 53.8269C38.4512 53.7131 38.6022 53.6393 38.7647 53.6162C38.9272 53.593 39.0928 53.6216 39.2381 53.6978C39.3834 53.7741 39.501 53.8942 39.5742 54.0411L41.7016 58.2965H47.3578C47.583 58.2959 47.7997 58.2102 47.9643 58.0565C48.1289 57.9028 48.2293 57.6925 48.2453 57.4678C48.2614 57.2432 48.1918 57.0208 48.0507 56.8453C47.9095 56.6697 47.7072 56.5541 47.4844 56.5215L43.4516 55.945C43.339 55.9288 43.2314 55.8883 43.1361 55.8262C43.0408 55.7642 42.9603 55.682 42.9 55.5856L39.7148 50.4895C39.4827 50.1181 39.1521 49.8182 38.7599 49.6231C38.3677 49.428 37.9292 49.3453 37.4929 49.3842C37.0566 49.4232 36.6395 49.5821 36.2881 49.8436C35.9366 50.105 35.6644 50.4586 35.5016 50.8653L32.9484 57.2473C32.2173 59.0715 31.8423 61.0188 31.8438 62.984H30.2813C30.2795 60.8202 30.6925 58.6761 31.4977 56.6676L34.05 50.2856C34.32 49.6109 34.7715 49.0241 35.3545 48.5903C35.9375 48.1565 36.6293 47.8926 37.3531 47.8279C38.0769 47.7632 38.8045 47.9002 39.4553 48.2236C40.106 48.5471 40.6545 49.0445 41.0398 49.6606L44.0328 54.4497L47.7047 54.9739C48.32 55.061 48.8794 55.3782 49.27 55.8615C49.6605 56.3449 49.8533 56.9584 49.8093 57.5782C49.7652 58.1981 49.4878 58.7782 49.0328 59.2015C48.5778 59.6248 47.9792 59.8598 47.3578 59.859H41.2188C41.0736 59.8591 40.9312 59.8187 40.8077 59.7424C40.6842 59.6661 40.5844 59.5569 40.5195 59.427L39.2242 56.8364L38.0813 63.1239Z" fill="#114084"/>
<path d="M69.3438 47.3599C68.5712 47.3599 67.8159 47.1308 67.1736 46.7015C66.5312 46.2723 66.0305 45.6622 65.7348 44.9485C65.4392 44.2347 65.3618 43.4493 65.5126 42.6915C65.6633 41.9338 66.0353 41.2378 66.5816 40.6915C67.1279 40.1452 67.8239 39.7731 68.5817 39.6224C69.3394 39.4717 70.1248 39.5491 70.8386 39.8447C71.5524 40.1404 72.1625 40.641 72.5917 41.2834C73.0209 41.9258 73.25 42.681 73.25 43.4536C73.2488 44.4892 72.8368 45.4821 72.1045 46.2144C71.3722 46.9467 70.3794 47.3586 69.3438 47.3599ZM69.3438 41.1099C68.8802 41.1099 68.4271 41.2473 68.0416 41.5049C67.6562 41.7624 67.3558 42.1284 67.1784 42.5567C67.001 42.985 66.9546 43.4562 67.045 43.9109C67.1355 44.3655 67.3587 44.7831 67.6865 45.1109C68.0143 45.4387 68.4319 45.6619 68.8865 45.7523C69.3412 45.8428 69.8124 45.7964 70.2407 45.619C70.6689 45.4416 71.035 45.1412 71.2925 44.7557C71.55 44.3703 71.6875 43.9172 71.6875 43.4536C71.6875 42.832 71.4406 42.2359 71.001 41.7963C70.5615 41.3568 69.9654 41.1099 69.3438 41.1099Z" fill="#114084"/>
<path d="M70.9192 63.1239L69.7763 56.8364L68.4849 59.427C68.4197 59.5575 68.3193 59.6671 68.195 59.7434C68.0707 59.8198 67.9276 59.8598 67.7817 59.859H61.6427C61.0212 59.8598 60.4227 59.6248 59.9677 59.2015C59.5127 58.7782 59.2352 58.1981 59.1912 57.5782C59.1472 56.9584 59.3399 56.3449 59.7305 55.8615C60.1211 55.3782 60.6805 55.061 61.2958 54.9739L64.9677 54.4497L67.9606 49.6606C68.346 49.0445 68.8945 48.5471 69.5452 48.2236C70.1959 47.9002 70.9236 47.7632 71.6474 47.8279C72.3712 47.8926 73.063 48.1565 73.646 48.5903C74.229 49.0241 74.6805 49.6109 74.9505 50.2856L77.5028 56.6676C78.308 58.6761 78.7209 60.8202 78.7192 62.984H77.1567C77.1581 61.0188 76.7832 59.0715 76.052 57.2473L73.4989 50.8653C73.336 50.4586 73.0637 50.105 72.7121 49.8437C72.3606 49.5823 71.9435 49.4233 71.5072 49.3844C71.0709 49.3455 70.6323 49.4282 70.24 49.6232C69.8478 49.8183 69.5172 50.1181 69.2849 50.4895L66.1005 55.5856C66.0402 55.682 65.9597 55.7642 65.8644 55.8262C65.7691 55.8883 65.6615 55.9288 65.5489 55.945L61.5169 56.5215C61.2941 56.5541 61.0918 56.6697 60.9507 56.8451C60.8096 57.0205 60.74 57.2428 60.7559 57.4674C60.7718 57.692 60.8721 57.9023 61.0365 58.0561C61.201 58.2098 61.4175 58.2957 61.6427 58.2965H67.2989L69.4263 54.0411C69.4995 53.8942 69.6171 53.7741 69.7624 53.6978C69.9077 53.6216 70.0733 53.593 70.2358 53.6162C70.3983 53.6393 70.5493 53.7131 70.6675 53.8269C70.7857 53.9408 70.865 54.089 70.8942 54.2505L72.4567 62.8442L70.9192 63.1239Z" fill="#114084"/>
<path d="M54.5 66.8911C53.2572 66.8899 52.0656 66.3956 51.1868 65.5168C50.308 64.638 49.8137 63.4464 49.8125 62.2036V61.4224C49.8125 60.1792 50.3064 58.9869 51.1854 58.1078C52.0645 57.2287 53.2568 56.7349 54.5 56.7349C55.7432 56.7349 56.9355 57.2287 57.8146 58.1078C58.6936 58.9869 59.1875 60.1792 59.1875 61.4224V62.2036C59.1863 63.4464 58.692 64.638 57.8132 65.5168C56.9344 66.3956 55.7428 66.8899 54.5 66.8911ZM54.5 58.2974C53.6712 58.2974 52.8763 58.6266 52.2903 59.2127C51.7042 59.7987 51.375 60.5936 51.375 61.4224V62.2036C51.375 63.0324 51.7042 63.8273 52.2903 64.4133C52.8763 64.9994 53.6712 65.3286 54.5 65.3286C55.3288 65.3286 56.1237 64.9994 56.7097 64.4133C57.2958 63.8273 57.625 63.0324 57.625 62.2036V61.4224C57.625 60.5936 57.2958 59.7987 56.7097 59.2127C56.1237 58.6266 55.3288 58.2974 54.5 58.2974Z" fill="#114084"/>
<path d="M63.0938 75.4849H61.5312V71.5786C61.5312 70.957 61.2843 70.3609 60.8448 69.9213C60.4052 69.4818 59.8091 69.2349 59.1875 69.2349H49.8125C49.1909 69.2349 48.5948 69.4818 48.1552 69.9213C47.7157 70.3609 47.4688 70.957 47.4688 71.5786V75.4849H45.9062V71.5786C45.9075 70.543 46.3194 69.5501 47.0517 68.8178C47.784 68.0856 48.7769 67.6736 49.8125 67.6724H59.1875C60.2231 67.6736 61.216 68.0856 61.9483 68.8178C62.6806 69.5501 63.0925 70.543 63.0938 71.5786V75.4849Z" fill="#114084"/>
<path d="M54.5 39.5474C53.4644 39.5461 52.4715 39.1342 51.7392 38.4019C51.0069 37.6696 50.595 36.6767 50.5938 35.6411V34.8599C50.5938 33.8239 51.0053 32.8303 51.7379 32.0977C52.4704 31.3652 53.464 30.9536 54.5 30.9536C55.536 30.9536 56.5296 31.3652 57.2621 32.0977C57.9947 32.8303 58.4062 33.8239 58.4062 34.8599V35.6411C58.405 36.6767 57.9931 37.6696 57.2608 38.4019C56.5285 39.1342 55.5356 39.5461 54.5 39.5474ZM54.5 32.5161C53.8784 32.5161 53.2823 32.763 52.8427 33.2026C52.4032 33.6421 52.1562 34.2383 52.1562 34.8599V35.6411C52.1562 36.2627 52.4032 36.8589 52.8427 37.2984C53.2823 37.7379 53.8784 37.9849 54.5 37.9849C55.1216 37.9849 55.7177 37.7379 56.1573 37.2984C56.5968 36.8589 56.8438 36.2627 56.8438 35.6411V34.8599C56.8438 34.2383 56.5968 33.6421 56.1573 33.2026C55.7177 32.763 55.1216 32.5161 54.5 32.5161Z" fill="#114084"/>
<path d="M61.5312 47.3599H59.9688V44.2349C59.9688 43.6133 59.7218 43.0171 59.2823 42.5776C58.8427 42.138 58.2466 41.8911 57.625 41.8911H51.375C50.7534 41.8911 50.1573 42.138 49.7177 42.5776C49.2782 43.0171 49.0312 43.6133 49.0312 44.2349V47.3599H47.4688V44.2349C47.47 43.1992 47.8819 42.2064 48.6142 41.4741C49.3465 40.7418 50.3394 40.3299 51.375 40.3286H57.625C58.6606 40.3299 59.6535 40.7418 60.3858 41.4741C61.1181 42.2064 61.53 43.1992 61.5312 44.2349V47.3599Z" fill="#114084"/>
<path d="M44.3438 70.7955H38.0938C37.8866 70.7955 37.6878 70.7131 37.5413 70.5666C37.3948 70.4201 37.3125 70.2214 37.3125 70.0142V66.8892C37.3123 66.7919 37.3306 66.6954 37.3664 66.6048L39.7102 60.615L41.1648 61.1837L38.875 67.0361V69.233H44.3438V70.7955Z" fill="#114084"/>
<path d="M64.3703 52.3317L63.3414 49.7036H45.6586L44.6297 52.3317L43.1719 51.763L44.3953 48.638C44.4527 48.4913 44.553 48.3653 44.6832 48.2766C44.8135 48.1879 44.9675 48.1407 45.125 48.1411H63.875C64.0321 48.1412 64.1856 48.1886 64.3154 48.2773C64.4451 48.3659 64.5451 48.4916 64.6023 48.638L65.8258 51.763L64.3703 52.3317Z" fill="#114084"/>
<path d="M70.9062 70.7965H64.6562V69.234H70.125V67.0372L67.8352 61.1872L69.2898 60.6184L71.6336 66.6083C71.6691 66.698 71.6874 66.7937 71.6875 66.8903V70.0153C71.6875 70.2225 71.6052 70.4212 71.4587 70.5677C71.3122 70.7142 71.1135 70.7965 70.9062 70.7965Z" fill="#114084"/>
</svg>
