<svg width="109" height="108" viewBox="0 0 109 108" fill="none" xmlns="http://www.w3.org/2000/svg">
<rect x="2" y="1.5" width="105" height="105" rx="52.5" stroke="#114084" stroke-width="3"/>
<g clip-path="url(#clip0_5001_1880)">
<path d="M49.1592 41.4814H52.2541V44.5767C52.2541 44.758 52.3261 44.9319 52.4543 45.0601C52.5825 45.1883 52.7564 45.2603 52.9377 45.2603H56.0627C56.244 45.2603 56.4179 45.1883 56.5461 45.0601C56.6743 44.9319 56.7463 44.758 56.7463 44.5767V41.4814H59.8412C60.0225 41.4814 60.1964 41.4094 60.3246 41.2812C60.4528 41.153 60.5248 40.9791 60.5248 40.7978V37.6728C60.5248 37.4915 60.4528 37.3176 60.3246 37.1894C60.1964 37.0612 60.0225 36.9892 59.8412 36.9892H56.7463V33.8943C56.7463 33.713 56.6743 33.5391 56.5461 33.4109C56.4179 33.2827 56.244 33.2107 56.0627 33.2107H52.9377C52.7564 33.2107 52.5825 33.2827 52.4543 33.4109C52.3261 33.5391 52.2541 33.713 52.2541 33.8943V36.9892H49.1592C48.9779 36.9892 48.804 37.0612 48.6758 37.1894C48.5476 37.3176 48.4756 37.4915 48.4756 37.6728V40.7978C48.4756 40.9791 48.5476 41.153 48.6758 41.2812C48.804 41.4094 48.9779 41.4814 49.1592 41.4814ZM49.8428 38.3564H52.9377C53.119 38.3564 53.2929 38.2844 53.4211 38.1562C53.5493 38.028 53.6213 37.8541 53.6213 37.6728V34.5779H55.3791V37.6724C55.3791 37.7622 55.3967 37.8511 55.431 37.9341C55.4654 38.0171 55.5157 38.0925 55.5792 38.156C55.6427 38.2196 55.718 38.2699 55.801 38.3043C55.884 38.3387 55.9729 38.3564 56.0627 38.3564H59.1576V40.1142H56.0627C55.8814 40.1142 55.7075 40.1862 55.5793 40.3144C55.4511 40.4426 55.3791 40.6165 55.3791 40.7978V43.8931H53.6213V40.7974C53.6212 40.6162 53.5491 40.4424 53.4209 40.3143C53.2927 40.1862 53.1189 40.1142 52.9377 40.1142H49.8428V38.3564Z" fill="#114084"/>
<path d="M78.8164 48.1521C78.9977 48.1521 79.1716 48.08 79.2998 47.9518C79.428 47.8236 79.5 47.6498 79.5 47.4685V43.3185C79.499 42.4123 79.1385 41.5435 78.4978 40.9027C77.857 40.262 76.9882 39.9015 76.082 39.9005H64.9492V31.0024C64.9492 30.8211 64.8772 30.6473 64.749 30.5191C64.6208 30.3909 64.4469 30.3188 64.2656 30.3188H44.7344C44.5531 30.3188 44.3792 30.3909 44.251 30.5191C44.1228 30.6473 44.0508 30.8211 44.0508 31.0024V39.8989H32.918C32.0115 39.9 31.1425 40.2606 30.5017 40.9017C29.8609 41.5428 29.5006 42.412 29.5 43.3185V47.4685C29.5 47.6498 29.572 47.8236 29.7002 47.9518C29.8284 48.08 30.0023 48.1521 30.1836 48.1521H32.4297V71.238H30.1836C30.0026 71.238 29.8291 71.3097 29.7009 71.4375C29.5728 71.5653 29.5005 71.7387 29.5 71.9196V76.2165C29.5 76.3978 29.572 76.5717 29.7002 76.6999C29.8284 76.8281 30.0023 76.9001 30.1836 76.9001H78.8164C78.9977 76.9001 79.1716 76.8281 79.2998 76.6999C79.428 76.5717 79.5 76.3978 79.5 76.2165V71.9196C79.5 71.7383 79.428 71.5645 79.2998 71.4363C79.1716 71.3081 78.9977 71.236 78.8164 71.236H76.5703V48.1501L78.8164 48.1521ZM76.082 41.2677C76.6257 41.2683 77.147 41.4846 77.5315 41.869C77.9159 42.2535 78.1322 42.7747 78.1328 43.3185V46.7849H64.9492V41.2661L76.082 41.2677ZM45.418 31.686H63.582V46.7849H45.418V31.686ZM30.8672 43.3185C30.8674 42.7745 31.0835 42.2528 31.468 41.868C31.8525 41.4832 32.374 41.2667 32.918 41.2661H44.0508V46.7849H30.8672V43.3185ZM78.1328 75.5337H30.8672V72.604H78.1328V75.5337ZM60.966 56.5052V71.236H55.1836V56.5052H60.966ZM53.8176 71.236H48.0363V56.5052H53.8176V71.236ZM75.2043 71.236H62.3332V55.8216C62.3332 55.6403 62.2612 55.4664 62.133 55.3382C62.0048 55.21 61.8309 55.138 61.6496 55.138H47.3516C47.2618 55.1379 47.1729 55.1556 47.0899 55.1899C47.0069 55.2243 46.9316 55.2746 46.8681 55.3381C46.8046 55.4016 46.7542 55.477 46.7199 55.5599C46.6856 55.6429 46.6679 55.7318 46.668 55.8216V71.236H33.7969V48.1501H75.2031L75.2043 71.236Z" fill="#114084"/>
<path d="M65.1201 64.5543H72.7619C72.9432 64.5542 73.117 64.4822 73.2452 64.354C73.3734 64.2258 73.4454 64.052 73.4455 63.8708V55.8215C73.4455 55.6402 73.3735 55.4664 73.2453 55.3382C73.1171 55.21 72.9432 55.1379 72.7619 55.1379H65.1201C64.9388 55.1379 64.7649 55.21 64.6367 55.3382C64.5085 55.4664 64.4365 55.6402 64.4365 55.8215V63.8708C64.4366 64.052 64.5087 64.2258 64.6369 64.354C64.765 64.4822 64.9388 64.5542 65.1201 64.5543ZM65.8037 56.5051H72.0783V63.1872H65.8037V56.5051Z" fill="#114084"/>
<path d="M43.8797 55.1379H36.2383C36.057 55.1379 35.8831 55.21 35.7549 55.3382C35.6267 55.4664 35.5547 55.6402 35.5547 55.8215V63.8708C35.5548 64.052 35.6268 64.2258 35.755 64.354C35.8832 64.4822 36.057 64.5542 36.2383 64.5543H43.8797C44.061 64.5543 44.2349 64.4823 44.3631 64.3541C44.4913 64.2259 44.5633 64.0521 44.5633 63.8708V55.8215C44.5633 55.7317 44.5457 55.6428 44.5114 55.5599C44.477 55.4769 44.4267 55.4015 44.3632 55.338C44.2997 55.2746 44.2243 55.2242 44.1413 55.1899C44.0584 55.1555 43.9695 55.1379 43.8797 55.1379ZM43.1961 63.1872H36.9219V56.5051H43.1961V63.1872Z" fill="#114084"/>
</g>
<defs>
<clipPath id="clip0_5001_1880">
<rect width="50" height="50" fill="white" transform="translate(29.5 28.6099)"/>
</clipPath>
</defs>
</svg>
