<svg width="109" height="108" viewBox="0 0 109 108" fill="none" xmlns="http://www.w3.org/2000/svg">
<rect x="2" y="1.5" width="105" height="105" rx="52.5" stroke="#114084" stroke-width="3"/>
<g clip-path="url(#clip0_5001_1775)">
<path d="M78.7676 74.0395H75.9458C76.5985 73.148 76.8675 72.0173 76.6596 70.895C76.547 70.2896 76.3025 69.7331 75.9573 69.2539C76.576 69.1113 77.1688 68.8309 77.6884 68.4151C77.9825 68.1797 78.1546 67.8284 78.1607 67.4519C78.1668 67.075 78.0062 66.7183 77.7197 66.4734L70.9406 60.6777C70.4416 60.2509 70.0674 59.6966 69.8587 59.074L68.2749 54.3446C68.2745 54.343 68.2737 54.3415 68.2733 54.34L66.847 50.0824C66.2004 48.1518 64.6547 46.6351 62.7123 46.0251L57.8005 44.4824C59.1341 43.5421 60.0077 41.9907 60.0077 40.2382V36.829C60.0077 33.9661 57.6784 31.6372 54.8159 31.6372C51.9533 31.6372 49.6241 33.9661 49.6241 36.829V40.2386C49.6241 41.9102 50.419 43.3991 51.65 44.3489C51.5226 44.384 51.3956 44.421 51.269 44.4607L46.2877 46.0251C44.3453 46.6351 42.7996 48.1518 42.153 50.0824L39.1409 59.074C38.9322 59.6966 38.5584 60.2512 38.0594 60.6777L31.2803 66.4738C30.9938 66.7187 30.8332 67.075 30.8393 67.4519C30.8454 67.8288 31.0175 68.1797 31.3116 68.4151C31.8548 68.85 32.4778 69.1368 33.127 69.2726C32.514 70.4006 32.3976 71.7762 32.8703 73.0232C33.0137 73.4005 33.2025 73.7404 33.4299 74.0399H30.2324C29.8277 74.0399 29.5 74.3675 29.5 74.7723C29.5 75.1766 29.8277 75.5047 30.2324 75.5047H74.0694H74.0702H74.0709H78.7676C79.1723 75.5047 79.5 75.1766 79.5 74.7723C79.5 74.3675 79.1719 74.0395 78.7676 74.0395ZM62.0993 56.9534L64.686 63.39C64.7005 63.4258 64.7177 63.4606 64.7375 63.4937C65.1953 64.2559 65.8472 64.8872 66.6235 65.3202L67.481 65.7982L62.0993 64.1548V56.9534ZM69.9884 61.7912L76.5715 67.4191C75.6887 68.0088 74.5523 68.0611 73.612 67.5385L67.3368 64.0408C66.8001 63.7417 66.3465 63.3087 66.0223 62.7873L63.7167 57.05L67.1362 55.5573L68.4698 59.539C68.7628 60.4134 69.2881 61.192 69.9884 61.7912ZM51.0889 40.2386V36.829C51.0889 34.774 52.7609 33.1021 54.8159 33.1021C56.8708 33.1021 58.5428 34.774 58.5428 36.829V40.2386C58.5428 42.2936 56.8708 43.9655 54.8159 43.9655C52.7609 43.9655 51.0889 42.2936 51.0889 40.2386ZM46.7264 47.4224L51.708 45.8584C53.5345 45.2847 55.4655 45.2847 57.292 45.8584L62.2736 47.4224C63.7697 47.8924 64.9603 49.0605 65.4581 50.5478L66.6693 54.163L63.17 55.69L62.0462 52.8938C61.9154 52.5684 61.5724 52.3811 61.2276 52.4479C60.8831 52.5147 60.6344 52.8164 60.6344 53.167V63.9645H48.3656V53.167C48.3656 52.8164 48.1169 52.5147 47.7724 52.4479C47.4287 52.3811 47.0846 52.5684 46.9538 52.8938L45.981 55.3139L42.5245 53.5854L43.5419 50.5478C44.0397 49.0605 45.2303 47.8924 46.7264 47.4224ZM39.0112 61.7912C39.7119 61.192 40.2372 60.4134 40.5298 59.539L42.0542 54.9881L45.4328 56.6776L44.9003 58.0025C44.7496 58.3779 44.9316 58.8043 45.307 58.9554C45.6819 59.1061 46.1088 58.9241 46.2595 58.5487L46.9007 56.9538V64.1525L41.6246 65.7395L42.3761 65.3202C43.1524 64.8876 43.8047 64.2563 44.2625 63.4941C44.2823 63.4609 44.2995 63.4262 44.314 63.39L44.8614 62.0274C45.0125 61.652 44.8305 61.2255 44.4551 61.0748C44.0798 60.9238 43.6533 61.1057 43.5022 61.4811L42.9773 62.7873C42.6531 63.3091 42.1999 63.7417 41.6632 64.0408L35.3887 67.5381C34.4477 68.0611 33.3116 68.0088 32.4285 67.4191L39.0112 61.7912ZM36.5 74.0395H36.4973C35.433 74.0395 34.6105 73.4799 34.2401 72.5037C33.8213 71.3989 34.1082 70.0966 34.9348 69.2806L47.7407 65.4293H61.2577L73.4152 69.1418C74.3639 69.4313 75.0383 70.1866 75.2191 71.162C75.4 72.1375 75.0414 73.0843 74.2594 73.6946L73.818 74.0399H58.3509C58.2563 73.5264 58.0282 72.8436 57.4884 72.2359L58.9476 72.1554C59.3515 72.1333 59.6609 71.7877 59.6384 71.3837C59.6163 70.9801 59.2707 70.6711 58.8671 70.6928L54.8975 70.9122C54.7296 70.882 54.5546 70.8569 54.3707 70.8382L43.0742 69.6583C42.6691 69.6159 42.3117 69.9085 42.2697 70.3106C42.2277 70.7131 42.5199 71.0732 42.922 71.1151L54.2192 72.295C54.3901 72.3126 54.5507 72.3366 54.701 72.3656C54.7041 72.3663 54.7075 72.3667 54.7106 72.3675C56.1727 72.6544 56.687 73.4501 56.8643 74.0395H36.5Z" fill="#114084"/>
<path d="M62.7042 71.9487C62.7175 71.9487 62.7313 71.9487 62.745 71.9479L67.6846 71.6752C68.0882 71.6527 68.3976 71.3074 68.3755 70.9035C68.3534 70.4995 68.0074 70.1897 67.6038 70.2126L62.6645 70.4854C62.2605 70.5075 61.9512 70.8531 61.9733 71.2567C61.995 71.6469 62.3178 71.9487 62.7042 71.9487Z" fill="#114084"/>
</g>
<defs>
<clipPath id="clip0_5001_1775">
<rect width="50" height="50" fill="white" transform="translate(29.5 28.6099)"/>
</clipPath>
</defs>
</svg>
