<svg width="203" height="80" viewBox="0 0 203 80" fill="none" xmlns="http://www.w3.org/2000/svg">
<g clip-path="url(#clip0_2940_113)">
<path fill-rule="evenodd" clip-rule="evenodd" d="M98.9043 10.3161C98.6614 8.46303 98.4185 6.17173 98.1757 3.52671C97.69 6.61521 97.3626 8.9065 97.199 10.3161H98.9043ZM101.66 1.52588e-05L104.585 15.9599H99.39L99.1471 13.1406H97.199L96.9561 15.9599H91.6819L94.2794 1.52588e-05H101.665H101.66ZM86.318 1.52588e-05V15.9599H81.8515L79.1748 8.727V15.9599H74.8721V1.52588e-05H79.1748L82.0152 7.14316V1.52588e-05H86.318ZM62.1274 2.73479V6.26148C62.7768 6.26148 63.1833 6.17173 63.4261 6.08726C63.669 5.99751 63.7482 5.55931 63.7482 4.85186V3.97019C63.7482 3.44224 63.669 3.08851 63.4261 2.90901C63.1833 2.81926 62.7768 2.73479 62.1274 2.72951V2.73479ZM57.0168 1.52588e-05H60.6702C63.1041 1.52588e-05 64.7302 0.0897665 65.6224 0.174238C66.4354 0.353741 67.164 0.791938 67.7342 1.31989C68.2199 2.02206 68.5472 2.99348 68.5472 4.31863C68.5472 5.55403 68.3044 6.4357 67.9823 6.8739C67.5758 7.22763 66.842 7.4916 65.7069 7.58135C66.7628 7.84533 67.4121 8.1093 67.7342 8.46303C68.0615 8.81675 68.3044 9.08073 68.3836 9.3447C68.468 9.69843 68.5472 10.4903 68.5472 11.7257V15.9599H63.7587V10.6698C63.7587 9.78818 63.6796 9.26023 63.5159 9.08073C63.3522 8.81675 62.8665 8.727 62.1327 8.727V15.9599H57.0221V1.52588e-05H57.0168ZM46.1358 10.3161C45.893 8.46303 45.6501 6.17173 45.3228 3.52671C44.8371 6.61521 44.5098 8.9065 44.3461 10.3161H46.1358ZM48.8178 1.52588e-05L51.7374 15.9599H46.5424L46.2995 13.1406H44.4306L44.1085 15.9599H38.829L41.4318 1.52588e-05H48.8178ZM28.117 2.73479V6.78943H28.5235C29.0092 6.78943 29.4157 6.69968 29.5794 6.52546C29.743 6.34595 29.8222 5.99751 29.8222 5.37981V4.05466C29.8222 3.43696 29.743 3.08323 29.5002 2.99876C29.2573 2.81926 28.8508 2.73479 28.117 2.73479ZM23.0011 1.52588e-05H28.1962C29.5794 1.52588e-05 30.7145 0.0897665 31.443 0.263989C32.1716 0.443492 32.7418 0.702186 33.1483 1.05591C33.5548 1.31989 33.7977 1.76336 33.9613 2.20156C34.0458 2.72951 34.125 3.43696 34.125 4.4031V5.90248C34.125 6.8739 33.9613 7.57607 33.7185 8.1093C33.4756 8.55278 32.9846 8.90122 32.2561 9.17048C31.6067 9.43445 30.6353 9.5242 29.4949 9.5242H28.1117V15.9599H22.9959V1.52588e-05H23.0011ZM12.1201 10.3161C11.8773 8.46303 11.6344 6.17173 11.3124 3.52671C10.8267 6.61521 10.4993 8.9065 10.4201 10.3161H12.1254H12.1201ZM14.8021 1.52588e-05L17.8061 15.9599H12.6111L12.2891 13.1406H10.4201L10.0928 15.9599H4.8186L7.41611 1.52588e-05H14.8021Z" fill="#0072BC"/>
<path fill-rule="evenodd" clip-rule="evenodd" d="M117.245 7.41242C117.784 7.52328 120.022 8.06179 120.481 8.65309C121.147 9.27607 121.516 10.0416 121.516 10.9602C121.516 13.2357 119.991 15.4003 117.689 15.7646C117.377 15.8121 117.045 15.717 116.738 15.7857C116.4 15.9335 116.073 16.0233 115.709 16.0233C114.542 16.0233 113.977 15.5428 113.977 14.3549C113.977 14.1226 114.004 13.9326 114.104 13.7372C115.244 13.7372 114.843 14.0698 115.26 13.9326C115.645 14.318 116.11 14.3866 116.654 14.3866C117.747 14.3866 118.929 14.0593 119.426 12.9928C119.832 12.0953 119.991 10.9497 119.167 10.2317C118.222 9.40278 115.698 8.91179 115.382 8.66893C114.975 8.35216 114.262 7.69751 114.109 7.20652L113.982 6.76304C113.982 3.26802 116.448 2.76119 119.447 2.76119C119.795 2.76119 120.138 2.81927 120.492 2.72951C120.73 2.97765 120.851 3.20995 120.851 3.57423C120.851 4.03883 120.777 4.77795 120.291 5.02081L120.086 5.12112L119.848 4.73572C119.763 4.79379 119.668 4.79379 119.563 4.79379C119.177 4.38199 118.734 4.13914 118.153 4.13914C117.546 4.13914 116.474 4.20249 116.036 4.70404C115.741 5.1 115.556 5.50652 115.556 6.01335C115.556 6.91086 116.511 7.23819 117.24 7.4177L117.245 7.41242ZM131.954 8.85371C131.669 9.22328 131.769 9.3975 131.711 9.81986C131.547 10.9761 131.737 12.1639 131.737 13.3254C131.737 13.4785 131.658 13.5683 131.579 13.6792C131.484 13.9062 131.663 14.941 131.727 15.1574L131.88 15.9229V17.2428C131.822 17.4065 130.819 18.2987 130.27 18.2987C129.784 18.2987 130.296 18.1298 129.388 18.1298C129.224 17.3959 129.161 16.5882 129.578 15.9124C129.863 15.4372 129.826 15.6167 129.826 14.9515C129.826 14.8776 129.816 14.6559 129.8 14.5133L129.43 14.5767L129.346 14.8301C128.401 14.8301 126.975 16.2133 124.589 15.4689C123.945 15.2683 123.253 14.7509 122.884 14.1702C122.646 13.7953 122.757 13.1987 122.757 12.7764C122.757 10.6329 126.864 8.38912 128.696 8.11987C129.567 7.99316 129.831 8.03011 129.831 7.05341C129.831 5.54876 128.96 4.61957 127.577 4.15497L127.197 3.99131C126.553 3.99131 125.882 4.00187 125.233 4.0969C124.906 4.40311 124.552 4.61957 124.087 4.61957C123.755 4.61957 123.417 4.46646 123.417 4.08634C123.417 3.99131 123.591 3.57951 123.623 3.47392C123.786 2.98293 124.225 2.77175 124.71 2.76119C125.508 2.37051 126.854 2.33355 127.704 2.33355C130.808 2.33355 131.568 5.23727 131.568 7.81366C131.838 7.98788 132.202 7.97732 132.202 8.38384C132.202 8.6003 132.107 8.71645 131.954 8.84843V8.85371ZM137.867 7.61832C138.59 6.27733 139.567 5.31118 141.066 4.90994C141.346 4.83075 142.376 4.49814 142.624 4.58789C142.777 4.64597 143.115 5.04193 143.115 5.25839C143.115 5.83385 142.745 6.00279 142.65 6.47267C142.613 6.67857 142.354 7.11149 142.159 7.19068L141.636 7.159C140.866 6.7472 140.855 6.66801 140.095 7.04813C139.593 7.30683 138.759 8.38384 138.601 8.94347C138.532 9.27607 138.374 9.59284 138.178 9.86738V10.2633C137.846 11.3087 138.041 10.8705 138.041 11.5885L138.015 11.995C137.967 12.032 137.846 12.0953 137.84 12.1587C137.809 12.486 138.046 14.0065 138.353 14.3972C138.416 14.4764 138.411 14.5292 138.411 14.6347C138.411 15.0624 138.242 15.4267 137.809 15.4795C137.682 15.5428 137.65 15.717 137.481 15.7382C136.858 15.8226 136.235 15.7804 135.639 15.5587C135.639 14.64 136.093 13.9484 136.103 13.3043C136.135 10.0258 136.278 7.49161 135.792 4.10746C135.708 3.56895 135.797 3.08324 136.304 2.78231C136.769 2.49722 137.587 2.28604 138.025 2.73479L138.305 3.16243C138.368 3.4528 138.168 4.04411 138.057 4.33448C137.703 5.27422 137.872 6.62049 137.872 7.62887L137.867 7.61832ZM156.429 5.26895C156.762 5.63851 157.047 6.1031 157.306 6.53602C157.538 6.9531 157.538 7.87173 157.538 8.33633C157.538 12.4174 154.497 15.6801 150.369 15.6801C150.131 15.6801 149.888 15.622 149.661 15.5534C148.822 16.3611 143.511 14.999 143.511 11.0975C143.511 10.1366 143.616 9.33943 143.954 8.44719L144.25 7.73974C144.281 7.60776 144.213 7.46521 144.281 7.3385C145.812 4.44007 148.531 3.35249 151.71 3.35249C153.579 3.35249 155.189 3.78541 156.435 5.26895H156.429ZM170.536 4.3556C170.441 4.52982 170.235 4.67236 170.056 4.76739C169.158 6.07671 168.403 7.52328 167.743 8.9593C166.988 10.5168 166.318 12.1481 165.848 13.8111C165.6 14.809 165.278 14.9938 165.151 15.395L165.378 15.6273C164.871 15.849 164.856 15.7593 164.856 16.3295C163.969 16.076 164.444 16.1024 163.456 16.2978C163.456 15.9124 163.488 16.076 163.282 15.8121C163.002 15.4531 163.076 15.3316 162.865 14.941L162.427 14.149L162.601 14.0434C162.142 12.8503 159.803 6.70497 159.069 5.83913C158.346 4.98385 158.362 4.77795 158.964 3.88572C159.734 2.74535 160.141 3.36833 160.632 3.67454C161.128 3.97547 161.234 3.74318 161.308 4.39783C161.339 4.73044 161.361 5.0736 161.382 5.40093C161.471 6.5149 162.274 8.32049 162.765 9.3975C162.823 9.52421 162.96 9.8621 163.045 9.95713C163.161 10.0733 163.288 10.2053 163.335 10.3742C163.599 11.2717 163.884 12.0584 164.586 12.713C164.644 12.5494 164.623 12.4068 164.623 12.2431C164.85 12.2431 164.882 12.2854 164.988 12.0531C165.156 11.6202 165.373 11.1978 165.552 10.7754C165.838 10.0733 166.767 7.27515 167.163 6.94782C167.406 6.75248 167.363 6.25621 167.453 6.11366C167.765 5.65963 167.78 4.9469 167.86 4.78851L168.081 4.57205L168.155 4.05994L168.129 3.88044C168.129 2.31244 169.723 2.64504 170.6 3.28386L170.695 3.35249C170.695 3.6587 170.763 4.11274 170.531 4.34504L170.536 4.3556ZM179.538 7.81366C179.717 7.92453 180.588 8.09875 179.939 8.84316C179.68 9.13353 179.707 9.44502 179.686 9.80402C179.596 10.9708 179.675 12.1534 179.686 13.3254C179.686 13.468 179.628 13.5841 179.538 13.6844C179.485 13.827 179.612 14.8723 179.696 15.1574L179.855 15.9229L179.823 16.5618L179.855 17.2323C179.48 17.6282 178.841 18.2934 178.244 18.2934C177.711 18.2934 178.276 18.1245 177.378 18.1245C177.141 17.4223 177.146 16.5618 177.542 15.9071C177.822 15.4425 177.796 15.6537 177.796 14.9462C177.796 14.8723 177.796 14.6506 177.769 14.508L177.394 14.5714L177.31 14.8248C176.402 14.8248 174.934 16.208 172.553 15.4636C171.851 15.2472 171.281 14.772 170.879 14.1754C170.615 13.7531 170.732 13.241 170.732 12.7764C170.732 10.6223 174.86 8.38384 176.697 8.11987C177.547 7.99316 177.796 8.01428 177.796 7.05341C177.796 5.54876 176.93 4.61957 175.541 4.15497L175.166 3.99131C174.522 3.99131 173.841 4.00187 173.197 4.0969C172.886 4.39255 172.506 4.61957 172.062 4.61957C171.719 4.61957 171.413 4.46646 171.413 4.08634L171.603 3.4528C171.782 3.01461 172.178 2.78231 172.653 2.76647C173.445 2.37579 174.802 2.33883 175.652 2.33883C178.746 2.33883 179.543 5.23727 179.543 7.81366H179.538ZM190.593 6.48323C190.561 6.76304 190.324 7.00062 190.139 7.1854C189.981 7.1854 189.759 7.23291 189.616 7.15372C188.846 6.76832 188.835 6.64161 188.069 7.04285C187.695 7.23291 187.404 7.61304 187.156 7.94564C186.924 8.25185 186.707 8.59502 186.544 8.94875C186.496 9.28663 186.327 9.6034 186.127 9.87793L186.111 10.2581C185.873 11.0183 185.984 11.2664 185.984 12.0056C185.921 12.032 185.81 12.0795 185.81 12.1534C185.81 12.7289 186.01 13.9379 186.338 14.4025L186.38 14.6295C186.38 15.0571 186.216 15.4214 185.783 15.4742C185.646 15.5375 185.614 15.7118 185.451 15.7329C184.833 15.8068 184.21 15.7857 183.64 15.5428C183.64 14.3866 184.062 13.8059 184.068 13.2938C184.099 10.163 184.242 7.14316 183.735 3.99131H183.698C183.698 3.46336 183.761 3.04628 184.289 2.76647C184.817 2.4761 185.82 2.24908 186.164 2.92486C186.259 3.11492 186.274 3.14131 186.274 3.34721C186.274 3.84349 185.805 4.60901 185.82 5.94472L185.852 7.65527C186.528 6.29317 187.552 5.32702 189.046 4.90994C189.347 4.83075 190.398 4.44535 190.651 4.63541C191.158 5.01553 191.179 5.46957 190.862 5.98696L190.609 6.48323H190.593ZM126.199 10.2845C125.465 10.6857 124.388 11.4143 124.388 12.354C124.388 13.5525 125.888 14.1279 126.88 14.1279C127.16 14.1279 127.646 13.9062 127.91 13.8534C128.411 13.7478 128.818 13.4521 129.172 13.1037L129.214 12.8661C129.853 11.9369 130.201 11.0764 129.763 9.99936C129.615 9.65092 129.288 9.52421 128.929 9.52421C127.229 9.52421 126.769 10.2053 126.537 10.2845H126.194H126.199ZM152.987 13.6422C153.758 12.9506 154.413 12.1534 154.904 11.2348C155.294 10.5273 155.558 10.0205 155.558 9.218C155.558 6.45155 153.668 4.69876 150.934 4.69876C150.648 4.69876 149.872 4.77795 149.63 4.95746C149.476 5.07888 149.339 5.37454 149.186 5.52764C148.7 5.52764 149.091 5.57516 148.273 5.50652V5.67019C147.354 5.79161 146.874 6.27205 146.383 7.04285C145.86 7.87701 145.564 8.80092 145.564 9.78818C145.564 10.2053 145.67 10.7438 145.712 11.1608C145.828 12.4596 146.916 13.2462 147.998 13.7848C148.489 14.0276 149.086 14.3708 149.651 14.2229C150.252 14.0593 151.805 14.3919 152.533 13.7056C152.649 13.5947 152.839 13.6052 152.987 13.6369V13.6422ZM177.727 10.0046C177.553 9.66148 177.278 9.52421 176.898 9.52421C175.198 9.52421 174.744 10.2053 174.501 10.2845H174.163C173.424 10.6857 172.358 11.4143 172.358 12.354C172.358 13.5366 173.841 14.1279 174.818 14.1279C175.114 14.1279 175.594 13.9115 175.879 13.8534C176.375 13.7478 176.777 13.4521 177.136 13.1037C177.136 13.0087 177.13 12.94 177.183 12.8608C177.906 11.8789 178.186 11.145 177.727 10.0046Z" fill="#EB2227"/>
<path d="M57.4285 79.9419C57.3757 79.9419 57.3229 79.9367 57.2701 79.9208C57.2173 79.905 57.1645 79.8839 57.117 79.8575C57.0695 79.8311 57.0325 79.7941 57.0009 79.7572C56.9745 79.7202 56.9586 79.678 56.9586 79.6305C56.9586 79.6041 56.9586 79.5829 56.9639 79.5671L58.3841 74.9528C58.4105 74.8684 58.4738 74.805 58.5636 74.7628C58.6533 74.7205 58.7536 74.6994 58.8645 74.6994C58.9754 74.6994 59.0757 74.7205 59.1654 74.7628C59.2605 74.805 59.3185 74.8684 59.3449 74.9528L60.7546 79.5671C60.7651 79.5935 60.7704 79.6146 60.7704 79.6305C60.7704 79.6727 60.7546 79.7149 60.7229 79.7519C60.6912 79.7888 60.6543 79.8205 60.6067 79.8522C60.5592 79.8786 60.5117 79.905 60.4536 79.9208C60.3956 79.9367 60.3428 79.9472 60.29 79.9472C60.2266 79.9472 60.1738 79.9367 60.1316 79.9103C60.0841 79.8891 60.0524 79.8469 60.0366 79.7888L59.7462 78.7752H57.9881L57.6977 79.7888C57.6766 79.8469 57.645 79.8839 57.6027 79.9103C57.5552 79.9314 57.5024 79.9472 57.4338 79.9472L57.4285 79.9419ZM59.5772 78.168L58.8645 75.7236L58.1518 78.168H59.5772Z" fill="#808285"/>
<path d="M61.3353 74.9739C61.3353 74.9053 61.3617 74.8525 61.4145 74.805C61.4673 74.7575 61.5359 74.7311 61.6257 74.7311H63.0142C63.2307 74.7311 63.4366 74.7575 63.6266 74.8156C63.8167 74.8684 63.9803 74.9581 64.1229 75.0848C64.2654 75.2115 64.371 75.3752 64.4555 75.5705C64.5347 75.7712 64.5769 76.014 64.5769 76.2991V76.3572C64.5769 76.6423 64.5347 76.8851 64.4502 77.0857C64.3658 77.2864 64.2549 77.45 64.1071 77.5715C63.9645 77.6982 63.7903 77.7879 63.6002 77.846C63.4049 77.9041 63.1937 77.9305 62.972 77.9305H62.0903V79.6885C62.0903 79.7677 62.0533 79.8311 61.9741 79.8733C61.895 79.9155 61.8105 79.9367 61.7155 79.9367C61.6204 79.9367 61.5359 79.9155 61.4568 79.8733C61.3776 79.8311 61.3406 79.7677 61.3406 79.6885V74.9739H61.3353ZM62.0903 75.4016V77.3339H62.972C63.2359 77.3339 63.4471 77.26 63.5949 77.1069C63.7428 76.9538 63.8167 76.7215 63.8167 76.41V76.3255C63.8167 76.014 63.7428 75.7817 63.5949 75.6286C63.4471 75.4808 63.2359 75.4069 62.972 75.4069H62.0903V75.4016Z" fill="#808285"/>
<path d="M65.0468 79.9419C64.994 79.9419 64.9412 79.9367 64.8884 79.9208C64.8356 79.905 64.7828 79.8839 64.7353 79.8575C64.6878 79.8311 64.6508 79.7941 64.6191 79.7572C64.5927 79.7202 64.5769 79.678 64.5769 79.6305C64.5769 79.6041 64.5769 79.5829 64.5822 79.5671L66.0024 74.9528C66.0288 74.8684 66.0921 74.805 66.1819 74.7628C66.2716 74.7205 66.3719 74.6994 66.4828 74.6994C66.5937 74.6994 66.694 74.7205 66.7837 74.7628C66.8788 74.805 66.9368 74.8684 66.9632 74.9528L68.3729 79.5671C68.3834 79.5935 68.3887 79.6146 68.3887 79.6305C68.3887 79.6727 68.3729 79.7149 68.3412 79.7519C68.3095 79.7888 68.2725 79.8205 68.225 79.8522C68.1775 79.8786 68.13 79.905 68.0719 79.9208C68.0138 79.9367 67.9611 79.9472 67.9083 79.9472C67.8449 79.9472 67.7921 79.9367 67.7499 79.9103C67.7024 79.8891 67.6707 79.8469 67.6548 79.7888L67.3645 78.7752H65.6064L65.316 79.7888C65.2949 79.8469 65.2632 79.8839 65.221 79.9103C65.1735 79.9314 65.1207 79.9472 65.0521 79.9472L65.0468 79.9419ZM67.1903 78.168L66.4775 75.7236L65.7648 78.168H67.1903Z" fill="#808285"/>
<path d="M68.9483 74.9739C68.9483 74.9053 68.9694 74.8525 69.0169 74.805C69.0644 74.7575 69.1225 74.7311 69.1964 74.7311H70.548C70.7697 74.7311 70.9809 74.7575 71.1815 74.805C71.3821 74.8525 71.5564 74.9317 71.7042 75.0479C71.852 75.164 71.9734 75.3118 72.0579 75.4966C72.1424 75.6814 72.1846 75.9137 72.1846 76.1882C72.1846 76.3994 72.1582 76.5895 72.1054 76.7479C72.0526 76.9062 71.984 77.0435 71.8943 77.1597C71.8045 77.2758 71.6989 77.3656 71.5775 77.4395C71.4561 77.5134 71.3188 77.5662 71.1762 77.5978L72.1741 79.4721C72.1952 79.5037 72.2005 79.5407 72.2005 79.5777C72.2005 79.6252 72.1846 79.6727 72.1582 79.7202C72.1318 79.7677 72.0949 79.81 72.0526 79.8469C72.0104 79.8839 71.9629 79.9103 71.9048 79.9314C71.852 79.9525 71.7939 79.9631 71.7464 79.9631C71.625 79.9631 71.5247 79.8891 71.4455 79.7413L70.4054 77.7034H69.6874V79.6885C69.6874 79.7677 69.6505 79.8311 69.5713 79.8733C69.4921 79.9155 69.4076 79.9367 69.3126 79.9367C69.2176 79.9367 69.1331 79.9155 69.0539 79.8733C68.98 79.8311 68.9377 79.7677 68.9377 79.6885V74.9739H68.9483ZM69.698 75.4016V77.0963H70.5533C70.8172 77.0963 71.0337 77.0329 71.1921 76.9062C71.3557 76.7795 71.4349 76.5578 71.4349 76.2516C71.4349 75.9454 71.3557 75.7236 71.1921 75.5969C71.0284 75.4702 70.8172 75.4069 70.5533 75.4069H69.698V75.4016Z" fill="#808285"/>
<path d="M75.7007 74.7311C75.7852 74.7311 75.8485 74.7681 75.8908 74.8367C75.933 74.9053 75.9488 74.9845 75.9488 75.0637C75.9488 75.1587 75.9277 75.2432 75.8855 75.3118C75.8433 75.3857 75.7799 75.4174 75.7007 75.4174H74.6026V79.6832C74.6026 79.7624 74.5656 79.8258 74.4864 79.868C74.4072 79.9103 74.3228 79.9314 74.2277 79.9314C74.1327 79.9314 74.0482 79.9103 73.969 79.868C73.8898 79.8258 73.8529 79.7624 73.8529 79.6832V75.4174H72.7495C72.6703 75.4174 72.6069 75.3805 72.5647 75.3118C72.5225 75.2432 72.5013 75.1587 72.5013 75.0637C72.5013 74.9845 72.5225 74.9053 72.5594 74.8314C72.6017 74.7575 72.665 74.7205 72.7495 74.7205H75.706L75.7007 74.7311Z" fill="#808285"/>
<path d="M78.7683 78.036C78.7313 78.1047 78.6891 78.1469 78.6416 78.1733C78.594 78.1944 78.5465 78.2103 78.4937 78.2103C78.4462 78.2103 78.3987 78.1997 78.3565 78.1733C78.3089 78.1522 78.272 78.1047 78.2403 78.036L77.2847 76.2252V79.6885C77.2847 79.7677 77.2478 79.8311 77.1686 79.8733C77.0894 79.9155 77.0049 79.9367 76.9099 79.9367C76.8149 79.9367 76.7304 79.9155 76.6512 79.8733C76.572 79.8311 76.535 79.7677 76.535 79.6885V75.1059C76.535 74.9687 76.572 74.8684 76.6512 74.8156C76.7304 74.7575 76.8149 74.7311 76.9099 74.7311C77.0471 74.7311 77.158 74.7628 77.2425 74.8208C77.327 74.8789 77.4167 74.9951 77.5065 75.1587L78.5043 77.0488L79.5179 75.1587C79.6077 74.9951 79.6922 74.8789 79.7766 74.8208C79.8611 74.7628 79.972 74.7311 80.1092 74.7311C80.2096 74.7311 80.2993 74.7575 80.3732 74.8156C80.4471 74.8736 80.4894 74.9687 80.4894 75.1059V79.6885C80.4894 79.7677 80.4524 79.8311 80.3732 79.8733C80.294 79.9155 80.2096 79.9367 80.1145 79.9367C80.0195 79.9367 79.935 79.9155 79.8558 79.8733C79.7766 79.8311 79.7397 79.7677 79.7397 79.6885V76.2674L78.7841 78.036H78.7683Z" fill="#808285"/>
<path d="M82.1735 77.0329H83.2716C83.3508 77.0329 83.4142 77.0646 83.4564 77.128C83.4987 77.1913 83.5198 77.26 83.5198 77.3392C83.5198 77.4078 83.4987 77.4711 83.4617 77.5345C83.4195 77.5979 83.3561 77.6295 83.2716 77.6295H82.1735V79.2662H84.2906C84.3698 79.2662 84.4331 79.2978 84.4754 79.3665C84.5176 79.4351 84.5387 79.5143 84.5387 79.6093C84.5387 79.6885 84.5176 79.7624 84.4807 79.8311C84.4384 79.8997 84.3751 79.9367 84.2906 79.9367H81.7564C81.6772 79.9367 81.5981 79.9155 81.5294 79.8733C81.4608 79.8311 81.4238 79.7677 81.4238 79.6885V74.9792C81.4238 74.9 81.4608 74.8367 81.5294 74.7944C81.6033 74.7522 81.6772 74.7311 81.7564 74.7311H84.2906C84.3751 74.7311 84.4384 74.768 84.4807 74.8367C84.5229 74.9053 84.5387 74.9792 84.5387 75.0637C84.5387 75.1587 84.5176 75.2379 84.4754 75.3066C84.4331 75.3752 84.3698 75.4069 84.2906 75.4069H82.1735V77.0382V77.0329Z" fill="#808285"/>
<path d="M88.0495 79.9419C87.9544 79.9419 87.87 79.9208 87.7908 79.8733C87.7169 79.8258 87.6482 79.7572 87.6007 79.6621L85.8954 76.4205V79.6885C85.8954 79.7677 85.8585 79.8311 85.7793 79.8733C85.7001 79.9155 85.6156 79.9367 85.5206 79.9367C85.4256 79.9367 85.3411 79.9155 85.2619 79.8733C85.1827 79.8311 85.1458 79.7677 85.1458 79.6885V74.9792C85.1458 74.8895 85.1827 74.8261 85.2619 74.7892C85.3411 74.7522 85.4256 74.7311 85.5206 74.7311C85.6579 74.7311 85.7687 74.7628 85.8426 74.8208C85.9218 74.8789 86.001 74.9951 86.0908 75.1587L87.6746 78.2419V74.9739C87.6746 74.8895 87.7116 74.8261 87.7908 74.7892C87.87 74.7522 87.9544 74.7311 88.0495 74.7311C88.1445 74.7311 88.229 74.7522 88.3082 74.7892C88.3874 74.8261 88.4243 74.8895 88.4243 74.9739V79.6885C88.4243 79.7677 88.3874 79.8311 88.3082 79.8733C88.229 79.9155 88.1445 79.9367 88.0495 79.9367V79.9419Z" fill="#808285"/>
<path d="M92.1991 74.7311C92.2836 74.7311 92.3469 74.7681 92.3892 74.8367C92.4314 74.9053 92.4473 74.9845 92.4473 75.0637C92.4473 75.1587 92.4261 75.2432 92.3839 75.3118C92.3417 75.3857 92.2783 75.4174 92.1991 75.4174H91.101V79.6832C91.101 79.7624 91.064 79.8258 90.9848 79.868C90.9056 79.9103 90.8212 79.9314 90.7261 79.9314C90.6311 79.9314 90.5466 79.9103 90.4675 79.868C90.3883 79.8258 90.3513 79.7624 90.3513 79.6832V75.4174H89.2479C89.1687 75.4174 89.1053 75.3805 89.0631 75.3118C89.0209 75.2432 88.9998 75.1587 88.9998 75.0637C88.9998 74.9845 89.0209 74.9053 89.0578 74.8314C89.1001 74.7575 89.1634 74.7205 89.2479 74.7205H92.2044L92.1991 74.7311Z" fill="#808285"/>
<path d="M94.2582 79.3137C94.5169 79.3137 94.728 79.2503 94.897 79.1289C95.0659 79.0075 95.1557 78.8174 95.1557 78.5587C95.1557 78.3475 95.0976 78.1839 94.9867 78.0572C94.8759 77.9305 94.728 77.8249 94.5591 77.7351C94.3902 77.6454 94.2001 77.5662 93.9995 77.487C93.7989 77.4078 93.6088 77.3128 93.4398 77.2019C93.2709 77.091 93.1284 76.9485 93.0122 76.769C92.8961 76.5895 92.8433 76.3625 92.8433 76.0774C92.8433 75.8187 92.8908 75.5969 92.9911 75.4227C93.0914 75.2485 93.2181 75.1059 93.3818 75.0003C93.5402 74.8948 93.7197 74.8208 93.915 74.7733C94.1103 74.7311 94.3004 74.71 94.4905 74.71C94.6066 74.71 94.7386 74.7205 94.8864 74.7364C95.0342 74.7522 95.1768 74.7839 95.3088 74.8208C95.4408 74.8631 95.5569 74.9159 95.6467 74.9792C95.7417 75.0426 95.7839 75.1271 95.7839 75.2274C95.7839 75.2643 95.7787 75.3066 95.7681 75.3541C95.7575 75.4016 95.7364 75.4438 95.71 75.4861C95.6836 75.5283 95.652 75.5652 95.6097 75.5916C95.5675 75.618 95.5252 75.6339 95.4724 75.6339C95.4249 75.6339 95.3774 75.618 95.3246 75.5916C95.2718 75.5652 95.2085 75.5336 95.1346 75.4966C95.0606 75.4649 94.9709 75.4333 94.8706 75.4016C94.7703 75.3752 94.6436 75.3594 94.4905 75.3594C94.2318 75.3594 94.0153 75.4121 93.8516 75.5125C93.688 75.6128 93.6035 75.7817 93.6035 76.0087C93.6035 76.1829 93.6616 76.3255 93.7724 76.4258C93.8886 76.5261 94.0312 76.6159 94.2001 76.6951C94.369 76.7743 94.5591 76.8482 94.7597 76.9274C94.9603 77.0013 95.1504 77.1016 95.3193 77.2283C95.4883 77.355 95.6308 77.5134 95.747 77.714C95.8631 77.9093 95.9159 78.168 95.9159 78.4795C95.9159 78.7382 95.8737 78.96 95.7945 79.15C95.7153 79.3401 95.5992 79.4985 95.4566 79.6252C95.3141 79.7519 95.1398 79.8469 94.9392 79.905C94.7386 79.9683 94.5221 80 94.2898 80C94.0575 80 93.8464 79.9736 93.651 79.9155C93.461 79.8627 93.292 79.7941 93.1548 79.7096C93.0122 79.6252 92.9066 79.5354 92.8327 79.4404C92.7588 79.3454 92.7166 79.2503 92.7166 79.1606C92.7166 79.1183 92.7271 79.0708 92.743 79.0233C92.7588 78.9758 92.7852 78.9336 92.8116 78.8913C92.8433 78.8491 92.8802 78.8174 92.9172 78.791C92.9594 78.7646 93.0017 78.7541 93.0439 78.7541C93.1072 78.7541 93.1653 78.7857 93.2287 78.8438C93.292 78.9019 93.3659 78.9652 93.4557 79.0339C93.5454 79.1025 93.651 79.1659 93.7777 79.2239C93.9044 79.282 94.0681 79.3137 94.2634 79.3137H94.2582Z" fill="#808285"/>
<path d="M99.242 76.5367C99.242 76.4786 99.2684 76.4258 99.3265 76.373C99.3846 76.3202 99.4585 76.278 99.5535 76.2357C99.6486 76.1988 99.7489 76.1671 99.865 76.146C99.9812 76.1249 100.097 76.1143 100.208 76.1143C100.367 76.1143 100.509 76.1354 100.641 76.1724C100.773 76.2146 100.889 76.2727 100.984 76.3519C101.079 76.4311 101.159 76.5261 101.217 76.6423C101.275 76.7584 101.301 76.8904 101.301 77.0435V78.2419C101.322 78.3581 101.359 78.4478 101.412 78.5059C101.465 78.564 101.533 78.5904 101.613 78.5904C101.708 78.5904 101.781 78.5534 101.84 78.4848C101.898 78.4162 101.94 78.3264 101.972 78.2155C102.003 78.11 102.024 77.9938 102.03 77.8724C102.04 77.751 102.045 77.6401 102.045 77.5398C102.045 76.901 101.903 76.4152 101.613 76.0721C101.322 75.7289 100.868 75.56 100.245 75.56C99.8914 75.56 99.5905 75.618 99.3529 75.7289C99.1153 75.8398 98.9253 75.9929 98.7827 76.183C98.6402 76.373 98.5399 76.5895 98.4818 76.8376C98.4237 77.0857 98.3921 77.3444 98.3921 77.6137C98.3921 77.8671 98.4185 78.11 98.4712 78.3423C98.524 78.5746 98.6138 78.7805 98.7405 78.96C98.8672 79.1395 99.0361 79.2767 99.242 79.3823C99.4532 79.4879 99.7119 79.5407 100.023 79.5407C100.171 79.5407 100.298 79.5301 100.404 79.5143C100.509 79.4932 100.604 79.4721 100.678 79.4457C100.752 79.4193 100.815 79.3982 100.868 79.377C100.916 79.3559 100.963 79.3506 101 79.3506C101.063 79.3506 101.111 79.377 101.143 79.4351C101.174 79.4879 101.19 79.5354 101.19 79.5724C101.19 79.641 101.148 79.6991 101.063 79.7519C100.979 79.8047 100.873 79.8469 100.747 79.8892C100.62 79.9261 100.488 79.9578 100.34 79.9736C100.198 79.9947 100.06 80 99.9389 80C99.675 80 99.4163 79.9525 99.1681 79.8575C98.92 79.7624 98.7035 79.6199 98.5135 79.4246C98.3234 79.2292 98.1703 78.9864 98.0595 78.6854C97.9433 78.3898 97.8905 78.036 97.8905 77.6295C97.8905 77.2758 97.938 76.9485 98.0278 76.6423C98.1175 76.3361 98.2654 76.0721 98.4554 75.8451C98.6455 75.618 98.8936 75.4438 99.1945 75.3118C99.4955 75.1798 99.8492 75.1165 100.256 75.1165C100.99 75.1165 101.56 75.3224 101.956 75.7289C102.352 76.1354 102.552 76.7109 102.552 77.4553C102.552 77.6665 102.536 77.8618 102.499 78.0519C102.463 78.2419 102.404 78.4056 102.331 78.5482C102.251 78.6907 102.151 78.8016 102.03 78.886C101.908 78.9705 101.755 79.0128 101.581 79.0128C101.38 79.0128 101.217 78.9652 101.09 78.8649C100.963 78.7699 100.884 78.6485 100.852 78.5112C100.731 78.6485 100.599 78.7593 100.467 78.8385C100.335 78.9177 100.166 78.96 99.9706 78.96C99.8545 78.96 99.7489 78.9441 99.638 78.9124C99.5324 78.8808 99.4374 78.8332 99.3476 78.7699C99.2632 78.7065 99.1945 78.6221 99.147 78.5218C99.0995 78.4214 99.0731 78.3 99.0731 78.1575C99.0731 77.9938 99.1048 77.8513 99.1787 77.7457C99.2473 77.6348 99.3424 77.5503 99.4691 77.487C99.5958 77.4236 99.7436 77.3761 99.9178 77.3497C100.092 77.3233 100.282 77.3128 100.493 77.3128H100.757V77.1913C100.757 76.8376 100.546 76.6581 100.129 76.6581C100.018 76.6581 99.9284 76.6687 99.8492 76.6845C99.7753 76.7056 99.7119 76.7267 99.6591 76.7479C99.6116 76.7742 99.5641 76.7954 99.5324 76.8112C99.4955 76.8323 99.4638 76.8376 99.4374 76.8376C99.3793 76.8376 99.3318 76.8006 99.3001 76.732C99.2632 76.6634 99.2473 76.6 99.2473 76.5472L99.242 76.5367ZM100.773 77.6559H100.562C100.293 77.6559 100.076 77.6876 99.9231 77.7562C99.7647 77.8249 99.6855 77.9516 99.6855 78.1416C99.6855 78.2736 99.7225 78.3739 99.8017 78.432C99.8756 78.4954 99.9759 78.527 100.092 78.527C100.187 78.527 100.277 78.5112 100.361 78.4795C100.446 78.4478 100.514 78.4003 100.578 78.3475C100.641 78.2947 100.689 78.2314 100.726 78.1628C100.763 78.0941 100.778 78.0255 100.778 77.9516V77.6612L100.773 77.6559Z" fill="#808285"/>
<path d="M107.573 79.9419C107.478 79.9419 107.394 79.9208 107.314 79.8733C107.24 79.8258 107.172 79.7572 107.124 79.6621L105.419 76.4205V79.6885C105.419 79.7677 105.382 79.8311 105.303 79.8733C105.224 79.9155 105.139 79.9367 105.044 79.9367C104.949 79.9367 104.865 79.9155 104.785 79.8733C104.706 79.8311 104.669 79.7677 104.669 79.6885V74.9792C104.669 74.8895 104.706 74.8261 104.785 74.7892C104.865 74.7522 104.949 74.7311 105.044 74.7311C105.181 74.7311 105.292 74.7628 105.366 74.8208C105.445 74.8789 105.525 74.9951 105.614 75.1587L107.198 78.2419V74.9739C107.198 74.8895 107.235 74.8261 107.314 74.7892C107.394 74.7522 107.478 74.7311 107.573 74.7311C107.668 74.7311 107.753 74.7522 107.832 74.7892C107.911 74.8261 107.948 74.8895 107.948 74.9739V79.6885C107.948 79.7677 107.911 79.8311 107.832 79.8733C107.753 79.9155 107.668 79.9367 107.573 79.9367V79.9419Z" fill="#808285"/>
<path d="M108.993 79.9419C108.94 79.9419 108.888 79.9367 108.835 79.9208C108.782 79.905 108.729 79.8839 108.682 79.8575C108.634 79.8311 108.597 79.7941 108.566 79.7572C108.539 79.7202 108.523 79.678 108.523 79.6305C108.523 79.6041 108.523 79.5829 108.529 79.5671L109.949 74.9528C109.975 74.8684 110.039 74.805 110.128 74.7628C110.218 74.7205 110.318 74.6994 110.429 74.6994C110.54 74.6994 110.64 74.7205 110.73 74.7628C110.825 74.805 110.883 74.8684 110.91 74.9528L112.319 79.5671C112.33 79.5935 112.335 79.6146 112.335 79.6305C112.335 79.6727 112.319 79.7149 112.288 79.7519C112.256 79.7888 112.219 79.8205 112.171 79.8522C112.124 79.8786 112.076 79.905 112.018 79.9208C111.96 79.9367 111.907 79.9472 111.855 79.9472C111.791 79.9472 111.739 79.9367 111.696 79.9103C111.649 79.8891 111.617 79.8469 111.601 79.7888L111.311 78.7752H109.553L109.262 79.7888C109.241 79.8469 109.21 79.8839 109.167 79.9103C109.12 79.9314 109.067 79.9472 108.998 79.9472L108.993 79.9419ZM111.137 78.168L110.424 75.7236L109.711 78.168H111.137Z" fill="#808285"/>
<path d="M113.233 79.9419C113.153 79.9419 113.074 79.9208 113.006 79.8786C112.937 79.8364 112.9 79.773 112.9 79.6938V74.9792C112.9 74.8948 112.937 74.8314 113.016 74.7944C113.095 74.7575 113.18 74.7364 113.275 74.7364C113.37 74.7364 113.454 74.7575 113.534 74.7944C113.613 74.8314 113.65 74.8948 113.65 74.9792V79.2767H115.503C115.577 79.2767 115.635 79.3137 115.672 79.3823C115.709 79.451 115.73 79.5301 115.73 79.6146C115.73 79.6938 115.709 79.773 115.672 79.8416C115.635 79.9155 115.577 79.9472 115.503 79.9472H113.233V79.9419Z" fill="#808285"/>
<path d="M116.627 79.9419C116.548 79.9419 116.469 79.9208 116.4 79.8786C116.332 79.8364 116.295 79.773 116.295 79.6938V74.9792C116.295 74.8948 116.332 74.8314 116.411 74.7944C116.49 74.7575 116.574 74.7364 116.67 74.7364C116.765 74.7364 116.849 74.7575 116.928 74.7944C117.007 74.8314 117.044 74.8948 117.044 74.9792V79.2767H118.897C118.971 79.2767 119.029 79.3137 119.066 79.3823C119.103 79.451 119.124 79.5301 119.124 79.6146C119.124 79.6938 119.103 79.773 119.066 79.8416C119.029 79.9155 118.971 79.9472 118.897 79.9472H116.627V79.9419Z" fill="#808285"/>
<path d="M119.79 79.9419C119.737 79.9419 119.684 79.9367 119.631 79.9208C119.579 79.905 119.526 79.8839 119.478 79.8575C119.431 79.8311 119.394 79.7941 119.362 79.7572C119.336 79.7202 119.32 79.678 119.32 79.6305C119.32 79.6041 119.32 79.5829 119.325 79.5671L120.74 74.9528C120.767 74.8684 120.83 74.805 120.92 74.7628C121.009 74.7205 121.11 74.6994 121.221 74.6994C121.331 74.6994 121.432 74.7205 121.521 74.7628C121.617 74.805 121.675 74.8684 121.701 74.9528L123.111 79.5671C123.121 79.5935 123.126 79.6146 123.126 79.6305C123.126 79.6727 123.111 79.7149 123.079 79.7519C123.047 79.7888 123.01 79.8205 122.963 79.8522C122.915 79.8786 122.868 79.905 122.81 79.9208C122.752 79.9367 122.699 79.9472 122.646 79.9472C122.583 79.9472 122.53 79.9367 122.488 79.9103C122.44 79.8891 122.408 79.8469 122.393 79.7888L122.102 78.7752H120.344L120.054 79.7888C120.033 79.8469 120.001 79.8839 119.959 79.9103C119.911 79.9314 119.858 79.9472 119.79 79.9472V79.9419ZM121.933 78.168L121.221 75.7236L120.508 78.168H121.933Z" fill="#808285"/>
<path d="M126.088 76.1671C126.078 76.0615 126.057 75.9665 126.025 75.8715C125.993 75.7764 125.94 75.6972 125.877 75.6286C125.814 75.56 125.729 75.5072 125.629 75.4649C125.529 75.4227 125.397 75.4069 125.238 75.4069C124.969 75.4069 124.758 75.4808 124.615 75.6286C124.473 75.7764 124.399 76.0087 124.399 76.3255V78.4003C124.399 78.7118 124.473 78.9441 124.615 79.0972C124.758 79.2451 124.969 79.319 125.238 79.319C125.507 79.319 125.713 79.2451 125.861 79.0972C126.009 78.9494 126.088 78.7171 126.088 78.4003V77.8143H125.37C125.291 77.8143 125.228 77.7826 125.191 77.7193C125.148 77.6559 125.133 77.5873 125.133 77.5081C125.133 77.4395 125.154 77.3708 125.191 77.3075C125.233 77.2441 125.291 77.2124 125.37 77.2124H126.595C126.674 77.2124 126.738 77.2388 126.78 77.2916C126.822 77.3444 126.843 77.4025 126.843 77.4711V78.4056C126.843 78.696 126.801 78.9388 126.716 79.1447C126.632 79.3454 126.521 79.509 126.373 79.6357C126.231 79.7624 126.057 79.8522 125.866 79.9103C125.671 79.9683 125.465 79.9947 125.238 79.9947C125.011 79.9947 124.8 79.9683 124.605 79.9103C124.409 79.8522 124.24 79.7624 124.098 79.6357C123.955 79.509 123.844 79.3454 123.765 79.1447C123.686 78.9441 123.644 78.696 123.644 78.4056V76.3308C123.644 76.0404 123.686 75.7975 123.771 75.5916C123.855 75.391 123.966 75.2274 124.108 75.1007C124.251 74.9739 124.415 74.8842 124.605 74.8261C124.795 74.768 125.001 74.7417 125.217 74.7417C125.455 74.7417 125.671 74.7733 125.872 74.8367C126.072 74.9 126.241 74.9845 126.384 75.1007C126.526 75.2168 126.637 75.3541 126.716 75.5177C126.796 75.6814 126.838 75.8609 126.838 76.0615C126.838 76.2093 126.806 76.3044 126.743 76.3519C126.68 76.3994 126.584 76.4205 126.463 76.4205C126.363 76.4205 126.278 76.4047 126.204 76.3677C126.13 76.3308 126.093 76.2674 126.088 76.1724V76.1671Z" fill="#808285"/>
<path d="M127.756 79.9419C127.704 79.9419 127.651 79.9367 127.598 79.9208C127.545 79.905 127.493 79.8839 127.445 79.8575C127.397 79.8311 127.361 79.7941 127.329 79.7572C127.302 79.7202 127.287 79.678 127.287 79.6305C127.287 79.6041 127.287 79.5829 127.292 79.5671L128.712 74.9528C128.738 74.8684 128.802 74.805 128.892 74.7628C128.981 74.7205 129.082 74.6994 129.193 74.6994C129.303 74.6994 129.404 74.7205 129.493 74.7628C129.588 74.805 129.647 74.8684 129.673 74.9528L131.083 79.5671C131.093 79.5935 131.098 79.6146 131.098 79.6305C131.098 79.6727 131.083 79.7149 131.051 79.7519C131.019 79.7888 130.982 79.8205 130.935 79.8522C130.887 79.8786 130.84 79.905 130.782 79.9208C130.724 79.9367 130.671 79.9472 130.618 79.9472C130.555 79.9472 130.502 79.9367 130.46 79.9103C130.412 79.8891 130.38 79.8469 130.365 79.7888L130.074 78.7752H128.316L128.026 79.7888C128.005 79.8469 127.973 79.8839 127.931 79.9103C127.883 79.9314 127.83 79.9472 127.762 79.9472L127.756 79.9419ZM129.9 78.168L129.187 75.7236L128.475 78.168H129.9Z" fill="#808285"/>
<path d="M134.567 79.9419C134.472 79.9419 134.388 79.9208 134.308 79.8733C134.234 79.8258 134.166 79.7572 134.118 79.6621L132.413 76.4205V79.6885C132.413 79.7677 132.376 79.8311 132.297 79.8733C132.218 79.9155 132.133 79.9367 132.038 79.9367C131.943 79.9367 131.859 79.9155 131.779 79.8733C131.7 79.8311 131.663 79.7677 131.663 79.6885V74.9792C131.663 74.8895 131.7 74.8261 131.779 74.7892C131.859 74.7522 131.943 74.7311 132.038 74.7311C132.175 74.7311 132.286 74.7628 132.36 74.8208C132.439 74.8789 132.519 74.9951 132.608 75.1587L134.192 78.2419V74.9739C134.192 74.8895 134.229 74.8261 134.308 74.7892C134.388 74.7522 134.472 74.7311 134.567 74.7311C134.662 74.7311 134.747 74.7522 134.826 74.7892C134.905 74.8261 134.942 74.8895 134.942 74.9739V79.6885C134.942 79.7677 134.905 79.8311 134.826 79.8733C134.747 79.9155 134.662 79.9367 134.567 79.9367V79.9419Z" fill="#808285"/>
<path d="M137.481 74.7311C137.708 74.7311 137.919 74.7575 138.115 74.8156C138.31 74.8736 138.479 74.9634 138.622 75.0901C138.764 75.2168 138.875 75.3805 138.96 75.5811C139.044 75.7817 139.086 76.0298 139.086 76.3202V78.3528C139.086 78.6432 139.044 78.886 138.96 79.0919C138.875 79.2926 138.764 79.4562 138.622 79.5829C138.479 79.7096 138.31 79.7994 138.115 79.8575C137.919 79.9155 137.708 79.9419 137.481 79.9419H136.219C136.119 79.9419 136.04 79.9208 135.977 79.8733C135.913 79.8258 135.882 79.7677 135.882 79.7044V74.9792C135.882 74.9106 135.913 74.8578 135.977 74.8103C136.04 74.7628 136.119 74.7364 136.219 74.7364H137.481V74.7311ZM136.637 75.4016V79.2714H137.476C137.745 79.2714 137.956 79.1975 138.104 79.0497C138.252 78.9019 138.326 78.6696 138.326 78.3528V76.3202C138.326 76.0087 138.252 75.7764 138.104 75.6233C137.956 75.4755 137.751 75.4016 137.476 75.4016H136.637Z" fill="#808285"/>
<path d="M140.301 79.9419C140.221 79.9419 140.142 79.9208 140.073 79.8786C140.005 79.8364 139.968 79.773 139.968 79.6938V74.9792C139.968 74.8948 140.005 74.8314 140.084 74.7944C140.163 74.7575 140.248 74.7364 140.343 74.7364C140.438 74.7364 140.522 74.7575 140.601 74.7944C140.681 74.8314 140.718 74.8948 140.718 74.9792V79.2767H142.571C142.645 79.2767 142.703 79.3137 142.74 79.3823C142.777 79.451 142.798 79.5301 142.798 79.6146C142.798 79.6938 142.777 79.773 142.74 79.8416C142.703 79.9155 142.645 79.9472 142.571 79.9472H140.301V79.9419Z" fill="#808285"/>
<path d="M143.463 79.9419C143.41 79.9419 143.357 79.9367 143.305 79.9208C143.252 79.905 143.199 79.8839 143.151 79.8575C143.104 79.8311 143.067 79.7941 143.035 79.7572C143.009 79.7202 142.993 79.678 142.993 79.6305C142.993 79.6041 142.993 79.5829 142.998 79.5671L144.418 74.9528C144.445 74.8684 144.508 74.805 144.598 74.7628C144.688 74.7205 144.788 74.6994 144.899 74.6994C145.01 74.6994 145.11 74.7205 145.2 74.7628C145.295 74.805 145.353 74.8684 145.379 74.9528L146.789 79.5671C146.8 79.5935 146.805 79.6146 146.805 79.6305C146.805 79.6727 146.789 79.7149 146.757 79.7519C146.726 79.7888 146.689 79.8205 146.641 79.8522C146.594 79.8786 146.546 79.905 146.488 79.9208C146.43 79.9367 146.377 79.9472 146.324 79.9472C146.261 79.9472 146.208 79.9367 146.166 79.9103C146.119 79.8891 146.087 79.8469 146.071 79.7888L145.781 78.7752H144.023L143.732 79.7888C143.711 79.8469 143.679 79.8839 143.637 79.9103C143.59 79.9314 143.537 79.9472 143.468 79.9472L143.463 79.9419ZM145.606 78.168L144.894 75.7236L144.181 78.168H145.606Z" fill="#808285"/>
<path d="M14.8285 23.7946H14.2689C8.72019 23.7946 4.40685 32.0887 1.82518 46.771H0.758728L2.88636 20.8223H34.162L36.2896 46.771H35.2232C32.6468 32.0887 28.3282 23.7946 22.7794 23.7946H22.109V67.6196C22.109 76.9221 24.0148 77.7668 25.6409 78.828V79.7783H11.2913V78.828C12.9174 77.7615 14.8233 76.9221 14.8233 67.6196V23.7946H14.8285Z" fill="url(#paint0_linear_2940_113)"/>
<path d="M65.3848 37.8275V59.0669C65.3848 66.6904 61.742 71.9013 52.2125 71.9013C42.683 71.9013 39.0983 66.6904 39.0983 59.0669V37.8275C39.0983 30.5999 42.7992 24.8822 52.3814 24.8822C61.9637 24.8822 65.3848 30.5999 65.3848 37.8275ZM57.6504 59.9644V36.93C57.6504 32.8384 56.3041 28.467 52.2125 28.467C48.1209 28.467 46.8327 32.8384 46.8327 36.93V59.9644C46.8327 64.6737 48.6805 68.3165 52.3234 68.3165C55.9662 68.3165 57.6451 64.6737 57.6451 59.9644H57.6504Z" fill="url(#paint1_linear_2940_113)"/>
<path d="M83.4933 62.3771L88.3135 34.4117C88.0337 29.3117 87.0253 27.7437 85.2303 26.5083V25.4418H97.674V26.5083C96.3858 27.7437 95.7681 29.3117 96.6076 34.4117L101.428 62.3771L106.248 34.2427C107.035 29.3645 106.528 27.7437 105.181 26.5083V25.4418H113.982V26.5083C112.076 27.7437 111.01 29.3645 110.229 34.2427L105.467 62.319C104.68 67.1973 105.129 69.0451 106.475 70.2752V71.3417H93.1389V70.2752C94.4852 69.0398 94.934 67.2501 94.1473 62.3718L90.7843 42.2517L87.3632 62.4827C86.5237 67.3609 87.0253 69.0398 88.3716 70.2752V71.3417H75.1465V70.2752C76.4927 69.0398 77.0524 67.3029 76.2129 62.4299L71.3927 34.2375C70.5533 29.3592 69.5449 27.7384 67.639 26.503V25.4366H79.7449V26.503C78.3986 27.7384 77.7809 29.3592 78.6256 34.2375L83.5039 62.3718L83.4933 62.3771Z" fill="url(#paint2_linear_2940_113)"/>
<path d="M118.639 33.4561C118.639 29.3117 117.852 27.7384 116.226 26.5083V25.4418H139.598L141.504 37.3788H140.438C138.701 32.6695 138.03 28.6359 130.407 28.6359H125.925V42.4207H129.958C133.379 42.2517 133.992 40.7418 134.33 38.3291H135.396V50.097H134.33C133.992 47.6896 133.379 46.1744 129.958 46.0054H125.925V68.0895H131.473C137.64 68.0895 139.936 60.4659 141.562 53.7979H142.629L140.216 71.3417H116.226V70.2752C117.852 69.0398 118.639 67.4718 118.639 63.3274V33.4561Z" fill="url(#paint3_linear_2940_113)"/>
<path d="M147.28 33.4561C147.28 29.3117 146.493 27.7384 144.867 26.5083V25.4418H161.624C169.021 25.4418 172.891 30.5418 172.891 37.3788C172.891 43.1492 170.145 47.7477 164.818 49.0359L169.581 63.1004C171.096 67.6408 172.775 69.0398 174.908 70.328V71.3364H162.015V70.328C163.134 69.1507 163.134 67.8044 161.793 63.1004L157.702 49.3685H154.566V63.3221C154.566 67.4718 155.352 69.0398 156.978 70.2699V71.3364H144.873V70.2699C146.499 69.0345 147.285 67.4665 147.285 63.3221V33.4508L147.28 33.4561ZM154.566 46.1797H159.106C163.868 46.1797 165.774 41.4176 165.774 37.4368C165.774 33.4561 163.868 28.6359 159.106 28.6359H154.566V46.1797Z" fill="url(#paint4_linear_2940_113)"/>
<path d="M198.005 40.293C197.108 31.1595 193.354 27.9074 190.16 27.9074C187.636 27.9074 185.509 29.8661 185.451 32.6167C185.171 41.8082 202.767 48.9831 202.994 59.6846C203.163 68.0895 196.495 71.9594 189.542 71.9594C184.553 71.9594 179.395 69.9426 176.597 66.2417L180.182 54.6427L181.248 54.8697C181.808 64.7898 186.237 68.6016 190.049 68.6016C193.19 68.6016 195.936 66.078 195.936 62.1554C195.883 53.0747 177.611 46.4067 178.17 34.3008C178.45 27.5748 184.226 24.7186 190.276 24.7186C194.257 24.7186 198.401 25.954 201.263 28.1397L199.077 40.3036H198.011L198.005 40.293Z" fill="url(#paint5_linear_2940_113)"/>
<path d="M54.1131 78.7699V79.7836H23.8722V78.7699H54.1131Z" fill="url(#paint6_linear_2940_113)"/>
<path d="M202.847 78.7699V79.7836H149.482V78.7699H202.847Z" fill="url(#paint7_linear_2940_113)"/>
</g>
<defs>
<linearGradient id="paint0_linear_2940_113" x1="18.5242" y1="79.7836" x2="18.5242" y2="20.8276" gradientUnits="userSpaceOnUse">
<stop stop-color="#222C64"/>
<stop offset="1" stop-color="#0054A6"/>
</linearGradient>
<linearGradient id="paint1_linear_2940_113" x1="52.2442" y1="71.9013" x2="52.2442" y2="24.8822" gradientUnits="userSpaceOnUse">
<stop stop-color="#222C64"/>
<stop offset="1" stop-color="#0054A6"/>
</linearGradient>
<linearGradient id="paint2_linear_2940_113" x1="90.8054" y1="71.3417" x2="90.8054" y2="25.4418" gradientUnits="userSpaceOnUse">
<stop stop-color="#222C64"/>
<stop offset="1" stop-color="#0054A6"/>
</linearGradient>
<linearGradient id="paint3_linear_2940_113" x1="129.43" y1="71.3417" x2="129.43" y2="25.4418" gradientUnits="userSpaceOnUse">
<stop stop-color="#222C64"/>
<stop offset="1" stop-color="#0054A6"/>
</linearGradient>
<linearGradient id="paint4_linear_2940_113" x1="159.893" y1="71.3417" x2="159.893" y2="25.4418" gradientUnits="userSpaceOnUse">
<stop stop-color="#222C64"/>
<stop offset="1" stop-color="#0054A6"/>
</linearGradient>
<linearGradient id="paint5_linear_2940_113" x1="189.801" y1="71.9594" x2="189.801" y2="24.7133" gradientUnits="userSpaceOnUse">
<stop stop-color="#222C64"/>
<stop offset="1" stop-color="#0054A6"/>
</linearGradient>
<linearGradient id="paint6_linear_2940_113" x1="38.9926" y1="8.9501e-05" x2="38.9926" y2="78.7699" gradientUnits="userSpaceOnUse">
<stop stop-color="#222C64"/>
<stop offset="1" stop-color="#0054A6"/>
</linearGradient>
<linearGradient id="paint7_linear_2940_113" x1="176.159" y1="8.9501e-05" x2="176.159" y2="78.7699" gradientUnits="userSpaceOnUse">
<stop stop-color="#222C64"/>
<stop offset="1" stop-color="#0054A6"/>
</linearGradient>
<clipPath id="clip0_2940_113">
<rect width="202.241" height="80" fill="white" transform="translate(0.75885 1.52588e-05)"/>
</clipPath>
</defs>
</svg>
