<svg width="109" height="109" viewBox="0 0 109 109" fill="none" xmlns="http://www.w3.org/2000/svg">
<rect x="2" y="1.89014" width="105" height="105" rx="52.5" stroke="#114084" stroke-width="3"/>
<g clip-path="url(#clip0_3108_315)">
<path d="M61.2761 56.6639L56.5698 54.491C53.7094 53.1691 50.0927 54.5681 47.4802 57.6691L43.3729 55.4243C42.4615 55.0004 41.1781 55.7764 40.5688 57.091C40.273 57.6999 40.166 58.3833 40.2615 59.0535C40.2867 59.3088 40.3731 59.5542 40.5135 59.769C40.6539 59.9837 40.844 60.1613 41.0677 60.2868L44.8709 62.3702C43.2969 67.1181 44.4781 71.8671 47.8313 73.4118L52.5365 75.5837C53.2741 75.9228 54.0768 76.0966 54.8886 76.0931C56.2417 76.0617 57.5614 75.6659 58.7084 74.9473C60.8873 73.5769 62.6057 71.5849 63.6417 69.2285C66.0511 64.0191 64.9896 58.3764 61.2761 56.6639ZM41.8427 58.9358C41.8232 58.8902 41.8095 58.8422 41.8021 58.7931C41.7628 58.4354 41.8268 58.0739 41.9865 57.7514C42.1328 57.3727 42.4135 57.0612 42.775 56.8764L46.5313 58.9316C46.1283 59.5408 45.7717 60.1794 45.4646 60.8421C45.4563 60.8618 45.449 60.8816 45.4396 60.9014L41.8427 58.9358ZM46.8834 61.5014C48.9313 57.0671 52.9813 54.5608 55.9156 55.9129L57.0688 56.4462C56.3805 56.6473 55.7204 56.9347 55.1042 57.3014C52.9252 58.6714 51.2069 60.663 50.1709 63.0191C49.0496 65.3363 48.6476 67.9361 49.0167 70.4837C49.1382 71.1902 49.3482 71.8786 49.6417 72.5327L48.4959 72.0014C45.5552 70.6431 44.8354 65.9327 46.8834 61.5014ZM62.224 68.5848C61.3199 70.6535 59.8181 72.4049 57.9115 73.6139C57.2315 74.0884 56.445 74.3876 55.6216 74.485C54.7982 74.5824 53.9636 74.475 53.1917 74.1723C52.4607 73.7802 51.8379 73.2138 51.3783 72.5233C50.9188 71.8328 50.6368 71.0396 50.5573 70.2139C50.2406 67.9783 50.5998 65.6991 51.5886 63.6691C52.4921 61.6 53.994 59.8485 55.9011 58.64C56.8074 58.068 57.8506 57.7497 58.9219 57.7181C59.5064 57.7146 60.0847 57.8383 60.6167 58.0806C63.5521 59.4358 64.2719 64.1462 62.224 68.5848Z" fill="#114084"/>
<path d="M42.4787 65.9857C41.8718 66.2982 41.2039 66.4744 40.5218 66.5019C39.8398 66.5295 39.1599 66.4077 38.5297 66.1451C36.8339 65.3618 35.8016 63.3586 35.7693 60.7857C35.7666 60.5803 35.6831 60.3843 35.5369 60.24C35.3906 60.0957 35.1935 60.0149 34.9881 60.0149H34.9777C34.8751 60.0162 34.7737 60.0378 34.6795 60.0783C34.5852 60.1188 34.4998 60.1775 34.4283 60.2511C34.3567 60.3246 34.3003 60.4115 34.2623 60.5068C34.2243 60.6021 34.2055 60.704 34.2068 60.8066C34.2096 62.0818 34.4763 63.3426 34.9902 64.5097L33.8235 63.9722C33.0925 63.58 32.4696 63.0136 32.0099 62.3232C31.5502 61.6327 31.2679 60.8395 31.1881 60.0138C30.8722 57.7781 31.2317 55.499 32.2204 53.4691C33.1242 51.4001 34.626 49.6487 36.5329 48.4399C37.213 47.9663 37.9993 47.6675 38.8223 47.57C39.6453 47.4724 40.4796 47.5791 41.2516 47.8805C41.2672 47.8883 41.2832 47.8953 41.2995 47.9013L42.4318 48.4222C40.8843 48.9735 39.469 49.842 38.2767 50.9721C37.0844 52.1022 36.1413 53.4689 35.5079 54.9847C35.0527 55.9645 34.7095 56.9925 34.485 58.0493C34.4421 58.2519 34.4814 58.4633 34.5943 58.6369C34.7072 58.8106 34.8844 58.9323 35.087 58.9753C35.1408 58.9865 35.1956 58.992 35.2506 58.992C35.4295 58.9917 35.6028 58.93 35.7417 58.8172C35.8805 58.7044 35.9763 58.5472 36.0131 58.3722C36.214 57.4301 36.5201 56.5136 36.9256 55.6399C38.9735 51.2066 43.0245 48.6941 45.9579 50.0524C46.7208 50.4657 47.3662 51.0662 47.8334 51.7974C48.3006 52.5286 48.5742 53.3666 48.6287 54.2326C48.6433 54.3342 48.6778 54.4319 48.7302 54.5201C48.7826 54.6083 48.8519 54.6854 48.9341 54.7469C49.0162 54.8083 49.1097 54.853 49.2091 54.8784C49.3086 54.9037 49.412 54.9092 49.5136 54.8946C49.6152 54.8799 49.7129 54.8454 49.8011 54.793C49.8893 54.7407 49.9664 54.6714 50.0279 54.5892C50.0893 54.5071 50.134 54.4136 50.1594 54.3141C50.1847 54.2147 50.1902 54.1112 50.1756 54.0097C50.0818 52.8863 49.7062 51.8047 49.0835 50.865C48.4608 49.9253 47.6111 49.1578 46.6131 48.6336L41.9089 46.4597C41.8919 46.4515 41.8746 46.4442 41.8568 46.4378C40.8607 46.0383 39.7818 45.8893 38.7147 46.0037C37.6476 46.1181 36.6248 46.4925 35.736 47.0941C33.5573 48.4643 31.839 50.4558 30.8027 52.8118C28.3933 58.0357 29.4537 63.6763 33.1683 65.392L37.8745 67.5638C38.6096 67.8996 39.4091 68.0709 40.2172 68.0659C41.2191 68.0543 42.2072 67.8317 43.1172 67.4128C43.3065 67.3281 43.4543 67.1717 43.5283 66.9781C43.6022 66.7844 43.5962 66.5692 43.5115 66.38C43.4268 66.1907 43.2705 66.0429 43.0768 65.969C42.8831 65.895 42.6679 65.901 42.4787 65.9857Z" fill="#114084"/>
<path d="M66.2279 60.8358C66.0207 60.8383 65.8229 60.923 65.6782 61.0713C65.5334 61.2195 65.4535 61.4192 65.456 61.6264C65.4585 61.8336 65.5432 62.0314 65.6914 62.1761C65.8397 62.3209 66.0394 62.4008 66.2466 62.3983H66.2706C67.2888 62.3729 68.2815 62.0741 69.1447 61.5334C70.0079 60.9926 70.7098 60.2297 71.177 59.3246C71.6442 58.4195 71.8594 57.4054 71.8002 56.3885C71.741 55.3717 71.4095 54.3895 70.8404 53.5447C70.2713 52.6999 69.4856 52.0237 68.5654 51.5868C67.6453 51.1499 66.6247 50.9684 65.6103 51.0613C64.596 51.1542 63.6253 51.5181 62.7999 52.1149C61.9744 52.7117 61.3246 53.5194 60.9185 54.4535C60.8356 54.6435 60.8316 54.8585 60.9073 55.0515C60.983 55.2444 61.1322 55.3993 61.3221 55.4822C61.5121 55.5651 61.7271 55.5691 61.9201 55.4934C62.113 55.4177 62.2679 55.2685 62.3508 55.0785C62.6451 54.4013 63.1162 53.8157 63.7145 53.383C64.3129 52.9503 65.0165 52.6864 65.7519 52.6189C66.4872 52.5515 67.2271 52.683 67.8942 52.9996C68.5613 53.3162 69.131 53.8064 69.5437 54.4187C69.9563 55.0311 70.1968 55.7431 70.2398 56.4803C70.2829 57.2174 70.127 57.9526 69.7884 58.6088C69.4499 59.2651 68.9412 59.8182 68.3155 60.2104C67.6898 60.6025 66.9702 60.8193 66.232 60.8379L66.2279 60.8358Z" fill="#114084"/>
<path d="M78.1767 35.7797C77.4203 34.59 76.3752 33.611 75.1388 32.9339C73.9023 32.2567 72.5146 31.9034 71.1048 31.9068H61.235C59.826 31.907 58.4398 32.262 57.2041 32.939C55.9685 33.6161 54.9232 34.5933 54.1646 35.7807C53.4061 36.968 52.9587 38.3273 52.8638 39.7331C52.7689 41.1389 53.0294 42.5459 53.6215 43.8245L56.2558 49.5109C55.6569 50.3318 55.1618 51.2237 54.7819 52.1661C54.7098 52.3574 54.7155 52.5693 54.7978 52.7564C54.8802 52.9434 55.0325 53.0908 55.2222 53.1668C55.412 53.2429 55.6239 53.2416 55.8127 53.1632C56.0014 53.0847 56.1519 52.9355 56.2319 52.7474C56.6071 51.8143 57.1114 50.9384 57.7298 50.1453C57.7384 50.1353 57.7464 50.1249 57.7538 50.1141C58.4451 49.2325 59.2721 48.4664 60.2038 47.8443C60.21 47.8443 60.2131 47.8359 60.2194 47.8338C61.4068 47.0509 62.7389 46.5135 64.1371 46.2531C65.5354 45.9928 66.9716 46.0149 68.3612 46.318C69.7508 46.6211 71.0658 47.1992 72.2286 48.0182C73.3914 48.8372 74.3786 49.8806 75.1321 51.0869C75.8856 52.2932 76.3901 53.6381 76.616 55.0424C76.8418 56.4466 76.7844 57.8819 76.4472 59.2636C76.11 60.6453 75.4997 61.9456 74.6523 63.088C73.805 64.2303 72.7376 65.1915 71.5131 65.9151H66.1673C65.9601 65.9151 65.7614 65.9974 65.6149 66.1439C65.4684 66.2904 65.3861 66.4891 65.3861 66.6963C65.3861 66.9035 65.4684 67.1023 65.6149 67.2488C65.7614 67.3953 65.9601 67.4776 66.1673 67.4776H71.7183C71.8526 67.4764 71.9843 67.4406 72.1006 67.3734C73.6016 66.5352 74.9082 65.3889 75.9347 64.0099C76.9612 62.6309 77.6843 61.0503 78.0565 59.3719C78.4288 57.6936 78.4418 55.9555 78.0946 54.2718C77.7475 52.588 77.0481 50.9968 76.0423 49.6026L78.7194 43.8234C79.3146 42.5457 79.577 41.1382 79.4821 39.7318C79.3872 38.3254 78.9381 36.9659 78.1767 35.7797ZM77.3017 43.1672L74.9371 48.2713C74.4666 47.7832 73.9565 47.3348 73.4121 46.9307L75.534 42.3474C75.8785 41.6038 76.0301 40.7853 75.9749 39.9677C75.9197 39.15 75.6594 38.3594 75.2181 37.6688C74.7767 36.9782 74.1686 36.41 73.4497 36.0165C72.7308 35.6229 71.9243 35.4168 71.1048 35.4172H70.1256C69.9184 35.4172 69.7197 35.4995 69.5732 35.646C69.4267 35.7925 69.3444 35.9912 69.3444 36.1984C69.3444 36.4056 69.4267 36.6043 69.5732 36.7509C69.7197 36.8974 69.9184 36.9797 70.1256 36.9797H71.1017C71.659 36.9792 72.2075 37.1192 72.6965 37.3867C73.1855 37.6543 73.5991 38.0407 73.8992 38.5104C74.1994 38.9801 74.3763 39.5178 74.4137 40.0739C74.4511 40.63 74.3477 41.1866 74.1131 41.6922L72.0923 46.062C70.2826 45.0455 68.2436 44.5072 66.1679 44.4979C64.0923 44.4886 62.0486 45.0086 60.2298 46.0088L58.2298 41.6922C57.9953 41.1867 57.8919 40.6302 57.9292 40.0742C57.9666 39.5181 58.1434 38.9805 58.4434 38.5108C58.7434 38.0412 59.1569 37.6547 59.6457 37.3871C60.1346 37.1195 60.6829 36.9794 61.2402 36.9797H67.7933C68.0005 36.9797 68.1993 36.8974 68.3458 36.7509C68.4923 36.6043 68.5746 36.4056 68.5746 36.1984C68.5746 35.9912 68.4923 35.7925 68.3458 35.646C68.1993 35.4995 68.0005 35.4172 67.7933 35.4172H61.235C60.4155 35.4174 59.6092 35.624 58.8905 36.0178C58.1718 36.4117 57.5638 36.9801 57.1227 37.6708C56.6815 38.3614 56.4213 39.152 56.3661 39.9697C56.311 40.7874 56.4625 41.6058 56.8069 42.3495L58.8965 46.8588C58.3502 47.2588 57.8383 47.7037 57.3663 48.1891L55.0402 43.1661C54.5578 42.1258 54.3453 40.9806 54.4222 39.8364C54.4991 38.6922 54.863 37.5858 55.4802 36.6194C56.0975 35.6529 56.9483 34.8575 57.9541 34.3066C58.9599 33.7557 60.0882 33.467 61.235 33.4672H71.1048C72.2515 33.467 73.3798 33.7556 74.3856 34.3064C75.3914 34.8572 76.2422 35.6524 76.8597 36.6187C77.4771 37.585 77.8413 38.6912 77.9185 39.8353C77.9958 40.9794 77.7836 42.1246 77.3017 43.1651V43.1672Z" fill="#114084"/>
</g>
<defs>
<clipPath id="clip0_3108_315">
<rect width="50" height="50" fill="white" transform="translate(29.5 29)"/>
</clipPath>
</defs>
</svg>
